<?xml version="1.0" encoding="utf-8" ?>
<svg baseProfile="full" fill="white" height="1276" version="1.1" width="1276" xmlns="http://www.w3.org/2000/svg" xmlns:ev="http://www.w3.org/2001/xml-events" xmlns:xlink="http://www.w3.org/1999/xlink"><defs /><path d="M 495.549913 452.400020 L 476.182236 450.676730" fill="none" stroke="rgb(31,119,180)" stroke-width="5" /><circle cx="495.5499131578841" cy="452.4000198118906" fill="rgb(31,119,180)" r="7" /><circle cx="476.18223562029846" cy="450.6767298431598" fill="rgb(31,119,180)" r="4" /><circle cx="476.18223562029846" cy="450.6767298431598" fill="white" r="2" /><path d="M 599.680103 495.469295 L 578.649351 483.185348 L 556.910634 471.438553 L 534.870109 460.777932 L 512.563298 451.780003 L 488.142249 440.814350 L 503.412548 436.131574" fill="none" stroke="rgb(174,199,232)" stroke-width="5" /><circle cx="599.6801028873524" cy="495.46929474177807" fill="rgb(174,199,232)" r="7" /><circle cx="578.649350716928" cy="483.18534805921263" fill="rgb(174,199,232)" r="4" /><circle cx="578.649350716928" cy="483.18534805921263" fill="white" r="2" /><circle cx="556.9106337381263" cy="471.4385528961438" fill="rgb(174,199,232)" r="4" /><circle cx="556.9106337381263" cy="471.4385528961438" fill="white" r="2" /><circle cx="534.8701094170389" cy="460.77793183415355" fill="rgb(174,199,232)" r="4" /><circle cx="534.8701094170389" cy="460.77793183415355" fill="white" r="2" /><circle cx="512.563297982089" cy="451.7800032542677" fill="rgb(174,199,232)" r="4" /><circle cx="512.563297982089" cy="451.7800032542677" fill="white" r="2" /><circle cx="488.14224912930183" cy="440.8143502074053" fill="rgb(174,199,232)" r="4" /><circle cx="488.14224912930183" cy="440.8143502074053" fill="white" r="2" /><circle cx="503.4125481985047" cy="436.1315738050182" fill="rgb(174,199,232)" r="4" /><circle cx="503.4125481985047" cy="436.1315738050182" fill="white" r="2" /><path d="M 647.310045 10.000000 L 641.572069 31.153606 L 637.359494 53.213203 L 633.694355 76.390193 L 631.810830 101.170217 L 634.680596 127.496401 L 647.429118 150.309639 L 643.981306 177.039767 L 646.001951 203.917948 L 664.356848 195.102066 L 681.598960 180.376008 L 696.739957 162.567649 L 704.357250 140.779780 L 688.220902 130.007120 L 666.073601 134.199690 L 678.547274 112.674408 L 690.541251 92.864530" fill="none" stroke="rgb(255,127,14)" stroke-width="5" /><circle cx="647.3100453764583" cy="10.0" fill="rgb(255,127,14)" r="7" /><circle cx="641.5720688151415" cy="31.15360633234071" fill="rgb(255,127,14)" r="4" /><circle cx="641.5720688151415" cy="31.15360633234071" fill="white" r="2" /><circle cx="637.3594936328561" cy="53.2132027270532" fill="rgb(255,127,14)" r="4" /><circle cx="637.3594936328561" cy="53.2132027270532" fill="white" r="2" /><circle cx="633.6943548068971" cy="76.39019291205611" fill="rgb(255,127,14)" r="4" /><circle cx="633.6943548068971" cy="76.39019291205611" fill="white" r="2" /><circle cx="631.8108301768643" cy="101.17021673201388" fill="rgb(255,127,14)" r="4" /><circle cx="631.8108301768643" cy="101.17021673201388" fill="white" r="2" /><circle cx="634.6805963524805" cy="127.49640088162401" fill="rgb(255,127,14)" r="4" /><circle cx="634.6805963524805" cy="127.49640088162401" fill="white" r="2" /><circle cx="647.429118419157" cy="150.3096391969742" fill="rgb(255,127,14)" r="4" /><circle cx="647.429118419157" cy="150.3096391969742" fill="white" r="2" /><circle cx="643.9813060439924" cy="177.0397672203617" fill="rgb(255,127,14)" r="4" /><circle cx="643.9813060439924" cy="177.0397672203617" fill="white" r="2" /><circle cx="646.0019508559377" cy="203.91794750664764" fill="rgb(255,127,14)" r="4" /><circle cx="646.0019508559377" cy="203.91794750664764" fill="white" r="2" /><circle cx="664.3568476060989" cy="195.1020656824873" fill="rgb(255,127,14)" r="4" /><circle cx="664.3568476060989" cy="195.1020656824873" fill="white" r="2" /><circle cx="681.5989599772219" cy="180.3760084398611" fill="rgb(255,127,14)" r="4" /><circle cx="681.5989599772219" cy="180.3760084398611" fill="white" r="2" /><circle cx="696.7399570242086" cy="162.56764889007746" fill="rgb(255,127,14)" r="4" /><circle cx="696.7399570242086" cy="162.56764889007746" fill="white" r="2" /><circle cx="704.3572503109332" cy="140.77978014193033" fill="rgb(255,127,14)" r="4" /><circle cx="704.3572503109332" cy="140.77978014193033" fill="white" r="2" /><circle cx="688.2209017999681" cy="130.00712024402787" fill="rgb(255,127,14)" r="4" /><circle cx="688.2209017999681" cy="130.00712024402787" fill="white" r="2" /><circle cx="666.0736009425225" cy="134.1996900886622" fill="rgb(255,127,14)" r="4" /><circle cx="666.0736009425225" cy="134.1996900886622" fill="white" r="2" /><circle cx="678.547273879414" cy="112.67440822331304" fill="rgb(255,127,14)" r="4" /><circle cx="678.547273879414" cy="112.67440822331304" fill="white" r="2" /><circle cx="690.5412514019782" cy="92.8645297658923" fill="rgb(255,127,14)" r="4" /><circle cx="690.5412514019782" cy="92.8645297658923" fill="white" r="2" /><path d="M 447.068351 676.630783 L 434.847165 661.440793 L 432.973986 688.220758" fill="none" stroke="rgb(255,187,120)" stroke-width="5" /><circle cx="447.0683507061374" cy="676.6307831805595" fill="rgb(255,187,120)" r="7" /><circle cx="434.84716500235857" cy="661.4407925497853" fill="rgb(255,187,120)" r="4" /><circle cx="434.84716500235857" cy="661.4407925497853" fill="white" r="2" /><circle cx="432.97398561225043" cy="688.2207580612537" fill="rgb(255,187,120)" r="4" /><circle cx="432.97398561225043" cy="688.2207580612537" fill="white" r="2" /><path d="M 98.712090 101.415625 L 114.019611 116.066677 L 131.007372 129.388362 L 147.828646 143.396910 L 164.201161 158.626084 L 182.525044 172.509275 L 205.665251 178.688639 L 223.994345 194.017155 L 243.259753 207.789728 L 263.340115 221.120014 L 283.223054 235.006842 L 303.582703 249.043162 L 324.200606 263.672959 L 346.307216 278.042584 L 371.680304 287.816102 L 401.554309 285.882620 L 421.014354 303.691822 L 440.672634 321.199373 L 461.317107 338.252869 L 485.441814 356.776814 L 475.766312 349.121418" fill="none" stroke="rgb(44,160,44)" stroke-width="5" /><circle cx="98.71208992876778" cy="101.4156251232276" fill="rgb(44,160,44)" r="7" /><circle cx="114.0196112183684" cy="116.06667725145671" fill="rgb(44,160,44)" r="4" /><circle cx="114.0196112183684" cy="116.06667725145671" fill="white" r="2" /><circle cx="131.00737196672168" cy="129.38836219820604" fill="rgb(44,160,44)" r="4" /><circle cx="131.00737196672168" cy="129.38836219820604" fill="white" r="2" /><circle cx="147.82864590411955" cy="143.39691010371567" fill="rgb(44,160,44)" r="4" /><circle cx="147.82864590411955" cy="143.39691010371567" fill="white" r="2" /><circle cx="164.20116053209625" cy="158.62608412529832" fill="rgb(44,160,44)" r="4" /><circle cx="164.20116053209625" cy="158.62608412529832" fill="white" r="2" /><circle cx="182.52504402352307" cy="172.50927516268243" fill="rgb(44,160,44)" r="4" /><circle cx="182.52504402352307" cy="172.50927516268243" fill="white" r="2" /><circle cx="205.6652511996128" cy="178.68863928065463" fill="rgb(44,160,44)" r="4" /><circle cx="205.6652511996128" cy="178.68863928065463" fill="white" r="2" /><circle cx="223.99434505585293" cy="194.01715523677504" fill="rgb(44,160,44)" r="4" /><circle cx="223.99434505585293" cy="194.01715523677504" fill="white" r="2" /><circle cx="243.2597526179062" cy="207.7897276841216" fill="rgb(44,160,44)" r="4" /><circle cx="243.2597526179062" cy="207.7897276841216" fill="white" r="2" /><circle cx="263.3401145104711" cy="221.1200139198809" fill="rgb(44,160,44)" r="4" /><circle cx="263.3401145104711" cy="221.1200139198809" fill="white" r="2" /><circle cx="283.22305385811427" cy="235.0068422975781" fill="rgb(44,160,44)" r="4" /><circle cx="283.22305385811427" cy="235.0068422975781" fill="white" r="2" /><circle cx="303.5827032865729" cy="249.04316242728157" fill="rgb(44,160,44)" r="4" /><circle cx="303.5827032865729" cy="249.04316242728157" fill="white" r="2" /><circle cx="324.200606390785" cy="263.6729591974074" fill="rgb(44,160,44)" r="4" /><circle cx="324.200606390785" cy="263.6729591974074" fill="white" r="2" /><circle cx="346.30721610560767" cy="278.0425844360207" fill="rgb(44,160,44)" r="4" /><circle cx="346.30721610560767" cy="278.0425844360207" fill="white" r="2" /><circle cx="371.6803044836983" cy="287.8161023466077" fill="rgb(44,160,44)" r="4" /><circle cx="371.6803044836983" cy="287.8161023466077" fill="white" r="2" /><circle cx="401.5543094899609" cy="285.8826199110739" fill="rgb(44,160,44)" r="4" /><circle cx="401.5543094899609" cy="285.8826199110739" fill="white" r="2" /><circle cx="421.0143536863212" cy="303.6918217625688" fill="rgb(44,160,44)" r="4" /><circle cx="421.0143536863212" cy="303.6918217625688" fill="white" r="2" /><circle cx="440.67263359193356" cy="321.19937260339793" fill="rgb(44,160,44)" r="4" /><circle cx="440.67263359193356" cy="321.19937260339793" fill="white" r="2" /><circle cx="461.3171066695532" cy="338.2528686024336" fill="rgb(44,160,44)" r="4" /><circle cx="461.3171066695532" cy="338.2528686024336" fill="white" r="2" /><circle cx="485.44181434692285" cy="356.77681425691304" fill="rgb(44,160,44)" r="4" /><circle cx="485.44181434692285" cy="356.77681425691304" fill="white" r="2" /><circle cx="475.76631156302165" cy="349.121418351039" fill="rgb(44,160,44)" r="4" /><circle cx="475.76631156302165" cy="349.121418351039" fill="white" r="2" /><path d="M 497.415020 489.712961 L 474.275572 473.133613 L 485.045737 481.939606" fill="none" stroke="rgb(152,223,138)" stroke-width="5" /><circle cx="497.41501969430965" cy="489.71296138650206" fill="rgb(152,223,138)" r="7" /><circle cx="474.2755718597187" cy="473.1336133193431" fill="rgb(152,223,138)" r="4" /><circle cx="474.2755718597187" cy="473.1336133193431" fill="white" r="2" /><circle cx="485.0457371300123" cy="481.93960567856624" fill="rgb(152,223,138)" r="4" /><circle cx="485.0457371300123" cy="481.93960567856624" fill="white" r="2" /><path d="M 646.001951 203.917948 L 641.658591 230.320042 L 639.031476 256.277323 L 661.558954 256.034332" fill="none" stroke="rgb(214,39,40)" stroke-width="5" /><circle cx="646.0019508559377" cy="203.91794750664764" fill="rgb(214,39,40)" r="7" /><circle cx="641.6585914761664" cy="230.3200416250585" fill="rgb(214,39,40)" r="4" /><circle cx="641.6585914761664" cy="230.3200416250585" fill="white" r="2" /><circle cx="639.0314764702072" cy="256.277323476496" fill="rgb(214,39,40)" r="4" /><circle cx="639.0314764702072" cy="256.277323476496" fill="white" r="2" /><circle cx="661.5589542429889" cy="256.03433210999543" fill="rgb(214,39,40)" r="4" /><circle cx="661.5589542429889" cy="256.03433210999543" fill="white" r="2" /><path d="M 470.936654 718.599045 L 452.957143 703.621769 L 432.973986 688.220758" fill="none" stroke="rgb(255,152,150)" stroke-width="5" /><circle cx="470.9366535877749" cy="718.5990446840055" fill="rgb(255,152,150)" r="7" /><circle cx="452.95714294297613" cy="703.6217685237851" fill="rgb(255,152,150)" r="4" /><circle cx="452.95714294297613" cy="703.6217685237851" fill="white" r="2" /><circle cx="432.97398561225043" cy="688.2207580612537" fill="rgb(255,152,150)" r="4" /><circle cx="432.97398561225043" cy="688.2207580612537" fill="white" r="2" /><path d="M 274.166489 31.032661 L 285.424666 49.872664 L 296.672450 69.277051 L 307.876033 89.169815 L 319.193961 109.448222 L 330.253514 129.995339 L 341.445768 150.768289 L 352.900764 171.622630 L 364.763158 192.418895 L 377.079974 213.153295 L 389.258801 234.625914 L 399.756224 260.620521 L 383.078263 253.887267 L 370.969498 266.900162" fill="none" stroke="rgb(148,103,189)" stroke-width="5" /><circle cx="274.1664893524064" cy="31.032661114749388" fill="rgb(148,103,189)" r="7" /><circle cx="285.4246656964409" cy="49.87266354662859" fill="rgb(148,103,189)" r="4" /><circle cx="285.4246656964409" cy="49.87266354662859" fill="white" r="2" /><circle cx="296.67244974852434" cy="69.27705078888134" fill="rgb(148,103,189)" r="4" /><circle cx="296.67244974852434" cy="69.27705078888134" fill="white" r="2" /><circle cx="307.87603342014313" cy="89.1698149753578" fill="rgb(148,103,189)" r="4" /><circle cx="307.87603342014313" cy="89.1698149753578" fill="white" r="2" /><circle cx="319.1939613551528" cy="109.4482218003363" fill="rgb(148,103,189)" r="4" /><circle cx="319.1939613551528" cy="109.4482218003363" fill="white" r="2" /><circle cx="330.2535144664582" cy="129.9953386763362" fill="rgb(148,103,189)" r="4" /><circle cx="330.2535144664582" cy="129.9953386763362" fill="white" r="2" /><circle cx="341.44576797071164" cy="150.76828946477588" fill="rgb(148,103,189)" r="4" /><circle cx="341.44576797071164" cy="150.76828946477588" fill="white" r="2" /><circle cx="352.9007640042943" cy="171.62263017892988" fill="rgb(148,103,189)" r="4" /><circle cx="352.9007640042943" cy="171.62263017892988" fill="white" r="2" /><circle cx="364.76315819649324" cy="192.41889536087504" fill="rgb(148,103,189)" r="4" /><circle cx="364.76315819649324" cy="192.41889536087504" fill="white" r="2" /><circle cx="377.07997361007494" cy="213.1532951195849" fill="rgb(148,103,189)" r="4" /><circle cx="377.07997361007494" cy="213.1532951195849" fill="white" r="2" /><circle cx="389.25880085038153" cy="234.62591435064365" fill="rgb(148,103,189)" r="4" /><circle cx="389.25880085038153" cy="234.62591435064365" fill="white" r="2" /><circle cx="399.7562236115261" cy="260.62052085846386" fill="rgb(148,103,189)" r="4" /><circle cx="399.7562236115261" cy="260.62052085846386" fill="white" r="2" /><circle cx="383.0782634830912" cy="253.8872670397483" fill="rgb(148,103,189)" r="4" /><circle cx="383.0782634830912" cy="253.8872670397483" fill="white" r="2" /><circle cx="370.9694975717552" cy="266.90016237161046" fill="rgb(148,103,189)" r="4" /><circle cx="370.9694975717552" cy="266.90016237161046" fill="white" r="2" /><path d="M 647.429118 150.309639 L 666.073601 134.199690 L 659.060154 114.028970" fill="none" stroke="rgb(197,176,213)" stroke-width="5" /><circle cx="647.429118419157" cy="150.3096391969742" fill="rgb(197,176,213)" r="7" /><circle cx="666.0736009425225" cy="134.1996900886622" fill="rgb(197,176,213)" r="4" /><circle cx="666.0736009425225" cy="134.1996900886622" fill="white" r="2" /><circle cx="659.060154361954" cy="114.02897026808884" fill="rgb(197,176,213)" r="4" /><circle cx="659.060154361954" cy="114.02897026808884" fill="white" r="2" /><path d="M 390.070866 1035.948322 L 392.803191 1011.702336 L 396.131329 988.929531 L 398.622343 966.700233 L 401.501223 944.892590 L 405.949347 923.479130 L 408.094474 902.007786 L 412.802968 880.871571 L 414.138800 859.468602 L 417.155498 838.259286 L 417.356314 816.799718 L 418.516073 795.459945 L 418.655063 774.055021 L 417.266996 752.346904 L 417.221229 730.407688 L 421.327751 708.413680 L 432.973986 688.220758" fill="none" stroke="rgb(140,86,75)" stroke-width="5" /><circle cx="390.0708655311518" cy="1035.9483218796943" fill="rgb(140,86,75)" r="7" /><circle cx="392.8031906006068" cy="1011.7023356218923" fill="rgb(140,86,75)" r="4" /><circle cx="392.8031906006068" cy="1011.7023356218923" fill="white" r="2" /><circle cx="396.1313290341635" cy="988.9295314855952" fill="rgb(140,86,75)" r="4" /><circle cx="396.1313290341635" cy="988.9295314855952" fill="white" r="2" /><circle cx="398.62234347120847" cy="966.7002330557387" fill="rgb(140,86,75)" r="4" /><circle cx="398.62234347120847" cy="966.7002330557387" fill="white" r="2" /><circle cx="401.5012234908919" cy="944.8925898330801" fill="rgb(140,86,75)" r="4" /><circle cx="401.5012234908919" cy="944.8925898330801" fill="white" r="2" /><circle cx="405.9493466421195" cy="923.4791295174045" fill="rgb(140,86,75)" r="4" /><circle cx="405.9493466421195" cy="923.4791295174045" fill="white" r="2" /><circle cx="408.09447390488646" cy="902.0077863822056" fill="rgb(140,86,75)" r="4" /><circle cx="408.09447390488646" cy="902.0077863822056" fill="white" r="2" /><circle cx="412.80296802023486" cy="880.8715711075367" fill="rgb(140,86,75)" r="4" /><circle cx="412.80296802023486" cy="880.8715711075367" fill="white" r="2" /><circle cx="414.13880024267337" cy="859.4686023030155" fill="rgb(140,86,75)" r="4" /><circle cx="414.13880024267337" cy="859.4686023030155" fill="white" r="2" /><circle cx="417.15549830610485" cy="838.2592856569291" fill="rgb(140,86,75)" r="4" /><circle cx="417.15549830610485" cy="838.2592856569291" fill="white" r="2" /><circle cx="417.35631395583806" cy="816.7997177949292" fill="rgb(140,86,75)" r="4" /><circle cx="417.35631395583806" cy="816.7997177949292" fill="white" r="2" /><circle cx="418.5160729007881" cy="795.4599447806698" fill="rgb(140,86,75)" r="4" /><circle cx="418.5160729007881" cy="795.4599447806698" fill="white" r="2" /><circle cx="418.65506324383847" cy="774.0550209619286" fill="rgb(140,86,75)" r="4" /><circle cx="418.65506324383847" cy="774.0550209619286" fill="white" r="2" /><circle cx="417.2669958781737" cy="752.3469039034917" fill="rgb(140,86,75)" r="4" /><circle cx="417.2669958781737" cy="752.3469039034917" fill="white" r="2" /><circle cx="417.2212289591086" cy="730.4076876012281" fill="rgb(140,86,75)" r="4" /><circle cx="417.2212289591086" cy="730.4076876012281" fill="white" r="2" /><circle cx="421.3277507712343" cy="708.4136802486197" fill="rgb(140,86,75)" r="4" /><circle cx="421.3277507712343" cy="708.4136802486197" fill="white" r="2" /><circle cx="432.97398561225043" cy="688.2207580612537" fill="rgb(140,86,75)" r="4" /><circle cx="432.97398561225043" cy="688.2207580612537" fill="white" r="2" /><path d="M 784.691173 400.950538 L 762.776161 391.735142 L 740.251171 381.811523 L 716.830539 371.257855 L 694.729671 355.905802 L 712.959797 347.990215 L 699.898536 331.516909 L 691.991439 312.882480 L 675.212325 294.757741 L 651.736076 296.301590 L 632.166676 303.483171 L 604.027403 298.803534 L 617.186710 304.907186 L 631.610883 291.484969 L 633.020282 279.818495 L 639.031476 256.277323 L 613.818181 262.180282 L 605.196059 287.000836 L 580.847837 302.312340 L 578.952732 286.108163 L 564.137011 304.306066 L 558.736965 318.624318 L 545.231751 305.282620 L 529.260627 291.193661 L 512.398402 305.721823 L 523.629642 322.127634 L 535.351246 333.049816 L 509.679846 344.816813 L 485.441814 356.776814 L 478.354156 381.969390 L 472.281770 407.056766 L 467.923782 436.574702 L 488.142249 440.814350" fill="none" stroke="rgb(196,156,148)" stroke-width="5" /><circle cx="784.6911732638796" cy="400.95053842645626" fill="rgb(196,156,148)" r="7" /><circle cx="762.7761610512825" cy="391.7351420633907" fill="rgb(196,156,148)" r="4" /><circle cx="762.7761610512825" cy="391.7351420633907" fill="white" r="2" /><circle cx="740.2511712376592" cy="381.81152252862813" fill="rgb(196,156,148)" r="4" /><circle cx="740.2511712376592" cy="381.81152252862813" fill="white" r="2" /><circle cx="716.8305385727706" cy="371.2578554205193" fill="rgb(196,156,148)" r="4" /><circle cx="716.8305385727706" cy="371.2578554205193" fill="white" r="2" /><circle cx="694.7296710513581" cy="355.905802448258" fill="rgb(196,156,148)" r="4" /><circle cx="694.7296710513581" cy="355.905802448258" fill="white" r="2" /><circle cx="712.9597965385207" cy="347.99021494477415" fill="rgb(196,156,148)" r="4" /><circle cx="712.9597965385207" cy="347.99021494477415" fill="white" r="2" /><circle cx="699.8985361789976" cy="331.5169087867771" fill="rgb(196,156,148)" r="4" /><circle cx="699.8985361789976" cy="331.5169087867771" fill="white" r="2" /><circle cx="691.9914386977802" cy="312.8824799325656" fill="rgb(196,156,148)" r="4" /><circle cx="691.9914386977802" cy="312.8824799325656" fill="white" r="2" /><circle cx="675.2123249570019" cy="294.7577407339489" fill="rgb(196,156,148)" r="4" /><circle cx="675.2123249570019" cy="294.7577407339489" fill="white" r="2" /><circle cx="651.7360762278548" cy="296.3015898329041" fill="rgb(196,156,148)" r="4" /><circle cx="651.7360762278548" cy="296.3015898329041" fill="white" r="2" /><circle cx="632.1666756661474" cy="303.4831712949125" fill="rgb(196,156,148)" r="4" /><circle cx="632.1666756661474" cy="303.4831712949125" fill="white" r="2" /><circle cx="604.0274029890375" cy="298.80353390992644" fill="rgb(196,156,148)" r="4" /><circle cx="604.0274029890375" cy="298.80353390992644" fill="white" r="2" /><circle cx="617.1867098624678" cy="304.90718570318694" fill="rgb(196,156,148)" r="4" /><circle cx="617.1867098624678" cy="304.90718570318694" fill="white" r="2" /><circle cx="631.6108825482511" cy="291.484969462088" fill="rgb(196,156,148)" r="4" /><circle cx="631.6108825482511" cy="291.484969462088" fill="white" r="2" /><circle cx="633.0202821713627" cy="279.8184953489606" fill="rgb(196,156,148)" r="4" /><circle cx="633.0202821713627" cy="279.8184953489606" fill="white" r="2" /><circle cx="639.0314764702072" cy="256.277323476496" fill="rgb(196,156,148)" r="4" /><circle cx="639.0314764702072" cy="256.277323476496" fill="white" r="2" /><circle cx="613.8181807114391" cy="262.18028163927886" fill="rgb(196,156,148)" r="4" /><circle cx="613.8181807114391" cy="262.18028163927886" fill="white" r="2" /><circle cx="605.1960586476753" cy="287.0008362950677" fill="rgb(196,156,148)" r="4" /><circle cx="605.1960586476753" cy="287.0008362950677" fill="white" r="2" /><circle cx="580.8478370292714" cy="302.31233955356964" fill="rgb(196,156,148)" r="4" /><circle cx="580.8478370292714" cy="302.31233955356964" fill="white" r="2" /><circle cx="578.9527324686744" cy="286.1081625590971" fill="rgb(196,156,148)" r="4" /><circle cx="578.9527324686744" cy="286.1081625590971" fill="white" r="2" /><circle cx="564.1370105765537" cy="304.3060659582091" fill="rgb(196,156,148)" r="4" /><circle cx="564.1370105765537" cy="304.3060659582091" fill="white" r="2" /><circle cx="558.7369650984701" cy="318.6243177217489" fill="rgb(196,156,148)" r="4" /><circle cx="558.7369650984701" cy="318.6243177217489" fill="white" r="2" /><circle cx="545.2317509185724" cy="305.28261979671805" fill="rgb(196,156,148)" r="4" /><circle cx="545.2317509185724" cy="305.28261979671805" fill="white" r="2" /><circle cx="529.260627343754" cy="291.19366066435026" fill="rgb(196,156,148)" r="4" /><circle cx="529.260627343754" cy="291.19366066435026" fill="white" r="2" /><circle cx="512.3984024121326" cy="305.7218227364293" fill="rgb(196,156,148)" r="4" /><circle cx="512.3984024121326" cy="305.7218227364293" fill="white" r="2" /><circle cx="523.6296423246725" cy="322.1276340226103" fill="rgb(196,156,148)" r="4" /><circle cx="523.6296423246725" cy="322.1276340226103" fill="white" r="2" /><circle cx="535.351246135566" cy="333.04981551675223" fill="rgb(196,156,148)" r="4" /><circle cx="535.351246135566" cy="333.04981551675223" fill="white" r="2" /><circle cx="509.6798458927568" cy="344.81681332576824" fill="rgb(196,156,148)" r="4" /><circle cx="509.6798458927568" cy="344.81681332576824" fill="white" r="2" /><circle cx="485.44181434692285" cy="356.77681425691304" fill="rgb(196,156,148)" r="4" /><circle cx="485.44181434692285" cy="356.77681425691304" fill="white" r="2" /><circle cx="478.3541555974629" cy="381.9693895136293" fill="rgb(196,156,148)" r="4" /><circle cx="478.3541555974629" cy="381.9693895136293" fill="white" r="2" /><circle cx="472.2817696611386" cy="407.0567661714275" fill="rgb(196,156,148)" r="4" /><circle cx="472.2817696611386" cy="407.0567661714275" fill="white" r="2" /><circle cx="467.92378218845954" cy="436.57470191932833" fill="rgb(196,156,148)" r="4" /><circle cx="467.92378218845954" cy="436.57470191932833" fill="white" r="2" /><circle cx="488.14224912930183" cy="440.8143502074053" fill="rgb(196,156,148)" r="4" /><circle cx="488.14224912930183" cy="440.8143502074053" fill="white" r="2" /><path d="M 469.264495 649.669312 L 449.282389 637.911052" fill="none" stroke="rgb(227,119,194)" stroke-width="5" /><circle cx="469.2644954669869" cy="649.6693115744403" fill="rgb(227,119,194)" r="7" /><circle cx="449.2823891443244" cy="637.9110524317823" fill="rgb(227,119,194)" r="4" /><circle cx="449.2823891443244" cy="637.9110524317823" fill="white" r="2" /><path d="M 408.544686 244.559156 L 399.756224 260.620521 L 401.554309 285.882620 L 388.261577 280.204582 L 370.969498 266.900162 L 352.715379 254.355546" fill="none" stroke="rgb(247,182,210)" stroke-width="5" /><circle cx="408.54468571403214" cy="244.5591564481073" fill="rgb(247,182,210)" r="7" /><circle cx="399.7562236115261" cy="260.62052085846386" fill="rgb(247,182,210)" r="4" /><circle cx="399.7562236115261" cy="260.62052085846386" fill="white" r="2" /><circle cx="401.5543094899609" cy="285.8826199110739" fill="rgb(247,182,210)" r="4" /><circle cx="401.5543094899609" cy="285.8826199110739" fill="white" r="2" /><circle cx="388.26157659521806" cy="280.2045820289072" fill="rgb(247,182,210)" r="4" /><circle cx="388.26157659521806" cy="280.2045820289072" fill="white" r="2" /><circle cx="370.9694975717552" cy="266.90016237161046" fill="rgb(247,182,210)" r="4" /><circle cx="370.9694975717552" cy="266.90016237161046" fill="white" r="2" /><circle cx="352.7153794679075" cy="254.35554551597968" fill="rgb(247,182,210)" r="4" /><circle cx="352.7153794679075" cy="254.35554551597968" fill="white" r="2" /><path d="M 440.022938 478.094495 L 459.281548 473.270178 L 474.275572 473.133613 L 474.698291 490.362692" fill="none" stroke="rgb(127,127,127)" stroke-width="5" /><circle cx="440.022938087367" cy="478.0944952543781" fill="rgb(127,127,127)" r="7" /><circle cx="459.28154795664085" cy="473.2701776620117" fill="rgb(127,127,127)" r="4" /><circle cx="459.28154795664085" cy="473.2701776620117" fill="white" r="2" /><circle cx="474.2755718597187" cy="473.1336133193431" fill="rgb(127,127,127)" r="4" /><circle cx="474.2755718597187" cy="473.1336133193431" fill="white" r="2" /><circle cx="474.6982910061704" cy="490.3626919347285" fill="rgb(127,127,127)" r="4" /><circle cx="474.6982910061704" cy="490.3626919347285" fill="white" r="2" /><path d="M 166.357040 633.741771 L 187.516471 627.899454 L 208.990098 621.458870 L 230.650076 614.146136 L 252.458231 606.008801 L 274.440981 597.121382 L 296.906479 587.607596 L 320.042121 577.963465 L 344.223706 568.908068 L 369.651469 561.693454 L 396.699394 558.108283 L 426.808426 562.554399 L 433.785115 537.836197 L 438.880776 514.240602 L 444.300595 489.615959 L 453.877726 461.637879 L 474.275572 473.133613 L 476.182236 450.676730 L 467.923782 436.574702 L 451.408138 424.513728 L 435.080466 411.755342" fill="none" stroke="rgb(199,199,199)" stroke-width="5" /><circle cx="166.3570401963417" cy="633.7417707927009" fill="rgb(199,199,199)" r="7" /><circle cx="187.5164706859055" cy="627.8994536522113" fill="rgb(199,199,199)" r="4" /><circle cx="187.5164706859055" cy="627.8994536522113" fill="white" r="2" /><circle cx="208.9900978456447" cy="621.4588698287226" fill="rgb(199,199,199)" r="4" /><circle cx="208.9900978456447" cy="621.4588698287226" fill="white" r="2" /><circle cx="230.6500763221917" cy="614.1461359616168" fill="rgb(199,199,199)" r="4" /><circle cx="230.6500763221917" cy="614.1461359616168" fill="white" r="2" /><circle cx="252.45823055985178" cy="606.008801219278" fill="rgb(199,199,199)" r="4" /><circle cx="252.45823055985178" cy="606.008801219278" fill="white" r="2" /><circle cx="274.44098124815486" cy="597.1213823649861" fill="rgb(199,199,199)" r="4" /><circle cx="274.44098124815486" cy="597.1213823649861" fill="white" r="2" /><circle cx="296.90647874011114" cy="587.607596328931" fill="rgb(199,199,199)" r="4" /><circle cx="296.90647874011114" cy="587.607596328931" fill="white" r="2" /><circle cx="320.0421208269603" cy="577.9634648473326" fill="rgb(199,199,199)" r="4" /><circle cx="320.0421208269603" cy="577.9634648473326" fill="white" r="2" /><circle cx="344.22370619714644" cy="568.9080684856427" fill="rgb(199,199,199)" r="4" /><circle cx="344.22370619714644" cy="568.9080684856427" fill="white" r="2" /><circle cx="369.6514687564052" cy="561.6934539967136" fill="rgb(199,199,199)" r="4" /><circle cx="369.6514687564052" cy="561.6934539967136" fill="white" r="2" /><circle cx="396.6993938271685" cy="558.1082833438747" fill="rgb(199,199,199)" r="4" /><circle cx="396.6993938271685" cy="558.1082833438747" fill="white" r="2" /><circle cx="426.80842633885436" cy="562.5543990274954" fill="rgb(199,199,199)" r="4" /><circle cx="426.80842633885436" cy="562.5543990274954" fill="white" r="2" /><circle cx="433.7851148581628" cy="537.8361970563594" fill="rgb(199,199,199)" r="4" /><circle cx="433.7851148581628" cy="537.8361970563594" fill="white" r="2" /><circle cx="438.8807763140376" cy="514.2406016113941" fill="rgb(199,199,199)" r="4" /><circle cx="438.8807763140376" cy="514.2406016113941" fill="white" r="2" /><circle cx="444.30059468565486" cy="489.61595938124356" fill="rgb(199,199,199)" r="4" /><circle cx="444.30059468565486" cy="489.61595938124356" fill="white" r="2" /><circle cx="453.8777256078079" cy="461.6378792102084" fill="rgb(199,199,199)" r="4" /><circle cx="453.8777256078079" cy="461.6378792102084" fill="white" r="2" /><circle cx="474.2755718597187" cy="473.1336133193431" fill="rgb(199,199,199)" r="4" /><circle cx="474.2755718597187" cy="473.1336133193431" fill="white" r="2" /><circle cx="476.18223562029846" cy="450.6767298431598" fill="rgb(199,199,199)" r="4" /><circle cx="476.18223562029846" cy="450.6767298431598" fill="white" r="2" /><circle cx="467.92378218845954" cy="436.57470191932833" fill="rgb(199,199,199)" r="4" /><circle cx="467.92378218845954" cy="436.57470191932833" fill="white" r="2" /><circle cx="451.4081381915554" cy="424.51372781721915" fill="rgb(199,199,199)" r="4" /><circle cx="451.4081381915554" cy="424.51372781721915" fill="white" r="2" /><circle cx="435.08046644315743" cy="411.7553416039109" fill="rgb(199,199,199)" r="4" /><circle cx="435.08046644315743" cy="411.7553416039109" fill="white" r="2" /><path d="M 603.298546 280.133143 L 604.027403 298.803534 L 578.952732 286.108163 L 566.095334 262.752095 L 554.538512 238.898991 L 534.901872 234.737351 L 517.871220 217.390950" fill="none" stroke="rgb(188,189,34)" stroke-width="5" /><circle cx="603.298545755209" cy="280.1331433657472" fill="rgb(188,189,34)" r="7" /><circle cx="604.0274029890375" cy="298.80353390992644" fill="rgb(188,189,34)" r="4" /><circle cx="604.0274029890375" cy="298.80353390992644" fill="white" r="2" /><circle cx="578.9527324686744" cy="286.1081625590971" fill="rgb(188,189,34)" r="4" /><circle cx="578.9527324686744" cy="286.1081625590971" fill="white" r="2" /><circle cx="566.0953343206063" cy="262.7520946124583" fill="rgb(188,189,34)" r="4" /><circle cx="566.0953343206063" cy="262.7520946124583" fill="white" r="2" /><circle cx="554.5385118175298" cy="238.89899073496082" fill="rgb(188,189,34)" r="4" /><circle cx="554.5385118175298" cy="238.89899073496082" fill="white" r="2" /><circle cx="534.9018715732351" cy="234.7373510520162" fill="rgb(188,189,34)" r="4" /><circle cx="534.9018715732351" cy="234.7373510520162" fill="white" r="2" /><circle cx="517.8712200390944" cy="217.3909501930668" fill="rgb(188,189,34)" r="4" /><circle cx="517.8712200390944" cy="217.3909501930668" fill="white" r="2" /><path d="M 459.101467 490.253886 L 459.281548 473.270178 L 453.877726 461.637879 L 467.923782 436.574702" fill="none" stroke="rgb(219,219,141)" stroke-width="5" /><circle cx="459.10146678166853" cy="490.2538861727609" fill="rgb(219,219,141)" r="7" /><circle cx="459.28154795664085" cy="473.2701776620117" fill="rgb(219,219,141)" r="4" /><circle cx="459.28154795664085" cy="473.2701776620117" fill="white" r="2" /><circle cx="453.8777256078079" cy="461.6378792102084" fill="rgb(219,219,141)" r="4" /><circle cx="453.8777256078079" cy="461.6378792102084" fill="white" r="2" /><circle cx="467.92378218845954" cy="436.57470191932833" fill="rgb(219,219,141)" r="4" /><circle cx="467.92378218845954" cy="436.57470191932833" fill="white" r="2" /><path d="M 240.447712 433.037690 L 264.035364 435.160212 L 287.982586 437.283027 L 311.628560 439.497295 L 334.178327 442.077583 L 350.983133 444.526401 L 331.648411 461.347373 L 306.349436 468.578582 L 280.084404 472.016453 L 253.755339 473.024457 L 228.002769 472.039242 L 203.148068 470.000541 L 179.169327 467.595020 L 155.982890 465.131385 L 133.587579 462.767008" fill="none" stroke="rgb(23,190,207)" stroke-width="5" /><circle cx="240.44771159395634" cy="433.03769040741736" fill="rgb(23,190,207)" r="7" /><circle cx="264.0353638405577" cy="435.1602118938381" fill="rgb(23,190,207)" r="4" /><circle cx="264.0353638405577" cy="435.1602118938381" fill="white" r="2" /><circle cx="287.9825858796599" cy="437.28302687902686" fill="rgb(23,190,207)" r="4" /><circle cx="287.9825858796599" cy="437.28302687902686" fill="white" r="2" /><circle cx="311.62856004321867" cy="439.4972954122834" fill="rgb(23,190,207)" r="4" /><circle cx="311.62856004321867" cy="439.4972954122834" fill="white" r="2" /><circle cx="334.17832729849664" cy="442.0775834555525" fill="rgb(23,190,207)" r="4" /><circle cx="334.17832729849664" cy="442.0775834555525" fill="white" r="2" /><circle cx="350.9831331413478" cy="444.52640099900617" fill="rgb(23,190,207)" r="4" /><circle cx="350.9831331413478" cy="444.52640099900617" fill="white" r="2" /><circle cx="331.64841100237516" cy="461.3473725598923" fill="rgb(23,190,207)" r="4" /><circle cx="331.64841100237516" cy="461.3473725598923" fill="white" r="2" /><circle cx="306.3494360618532" cy="468.57858206357105" fill="rgb(23,190,207)" r="4" /><circle cx="306.3494360618532" cy="468.57858206357105" fill="white" r="2" /><circle cx="280.0844042093337" cy="472.0164534814192" fill="rgb(23,190,207)" r="4" /><circle cx="280.0844042093337" cy="472.0164534814192" fill="white" r="2" /><circle cx="253.7553391176051" cy="473.02445733446416" fill="rgb(23,190,207)" r="4" /><circle cx="253.7553391176051" cy="473.02445733446416" fill="white" r="2" /><circle cx="228.00276871202155" cy="472.03924187353545" fill="rgb(23,190,207)" r="4" /><circle cx="228.00276871202155" cy="472.03924187353545" fill="white" r="2" /><circle cx="203.14806833668234" cy="470.00054110709016" fill="rgb(23,190,207)" r="4" /><circle cx="203.14806833668234" cy="470.00054110709016" fill="white" r="2" /><circle cx="179.1693268508026" cy="467.59501977612854" fill="rgb(23,190,207)" r="4" /><circle cx="179.1693268508026" cy="467.59501977612854" fill="white" r="2" /><circle cx="155.98288992152146" cy="465.1313847552495" fill="rgb(23,190,207)" r="4" /><circle cx="155.98288992152146" cy="465.1313847552495" fill="white" r="2" /><circle cx="133.58757853482734" cy="462.76700843346356" fill="rgb(23,190,207)" r="4" /><circle cx="133.58757853482734" cy="462.76700843346356" fill="white" r="2" /><path d="M 516.261623 273.207045 L 529.260627 291.193661" fill="none" stroke="rgb(158,218,229)" stroke-width="5" /><circle cx="516.2616234360052" cy="273.20704477014067" fill="rgb(158,218,229)" r="7" /><circle cx="529.260627343754" cy="291.19366066435026" fill="rgb(158,218,229)" r="4" /><circle cx="529.260627343754" cy="291.19366066435026" fill="white" r="2" /><path d="M 506.353189 148.760460 L 514.386122 172.504446 L 525.911046 195.914472 L 540.552822 218.987651 L 554.538512 238.898991 L 557.537322 215.121402 L 549.554726 189.196677 L 540.515437 164.242165 L 532.192648 140.316138" fill="none" stroke="rgb(31,119,180)" stroke-width="5" /><circle cx="506.3531890459971" cy="148.76045964892734" fill="rgb(31,119,180)" r="7" /><circle cx="514.3861217306359" cy="172.50444564927722" fill="rgb(31,119,180)" r="4" /><circle cx="514.3861217306359" cy="172.50444564927722" fill="white" r="2" /><circle cx="525.9110459565602" cy="195.91447191775407" fill="rgb(31,119,180)" r="4" /><circle cx="525.9110459565602" cy="195.91447191775407" fill="white" r="2" /><circle cx="540.5528215071555" cy="218.98765067465007" fill="rgb(31,119,180)" r="4" /><circle cx="540.5528215071555" cy="218.98765067465007" fill="white" r="2" /><circle cx="554.5385118175298" cy="238.89899073496082" fill="rgb(31,119,180)" r="4" /><circle cx="554.5385118175298" cy="238.89899073496082" fill="white" r="2" /><circle cx="557.5373215761508" cy="215.1214022627566" fill="rgb(31,119,180)" r="4" /><circle cx="557.5373215761508" cy="215.1214022627566" fill="white" r="2" /><circle cx="549.5547255418254" cy="189.19667667514582" fill="rgb(31,119,180)" r="4" /><circle cx="549.5547255418254" cy="189.19667667514582" fill="white" r="2" /><circle cx="540.515436784841" cy="164.24216459083016" fill="rgb(31,119,180)" r="4" /><circle cx="540.515436784841" cy="164.24216459083016" fill="white" r="2" /><circle cx="532.1926478115673" cy="140.31613824125355" fill="rgb(31,119,180)" r="4" /><circle cx="532.1926478115673" cy="140.31613824125355" fill="white" r="2" /><path d="M 694.729671 355.905802 L 674.238841 338.077989 L 659.693413 317.704896 L 651.736076 296.301590 L 633.020282 279.818495 L 605.196059 287.000836 L 580.847837 302.312340 L 558.736965 318.624318 L 535.351246 333.049816 L 545.273123 346.197718 L 552.769157 364.070172 L 550.751664 384.530130 L 541.431701 403.091643 L 522.407160 413.419866 L 499.903658 418.558611 L 479.452079 426.010681 L 467.923782 436.574702 L 460.183512 424.182481" fill="none" stroke="rgb(174,199,232)" stroke-width="5" /><circle cx="694.7296710513581" cy="355.905802448258" fill="rgb(174,199,232)" r="7" /><circle cx="674.2388405026312" cy="338.0779892325757" fill="rgb(174,199,232)" r="4" /><circle cx="674.2388405026312" cy="338.0779892325757" fill="white" r="2" /><circle cx="659.6934127014033" cy="317.7048962832741" fill="rgb(174,199,232)" r="4" /><circle cx="659.6934127014033" cy="317.7048962832741" fill="white" r="2" /><circle cx="651.7360762278548" cy="296.3015898329041" fill="rgb(174,199,232)" r="4" /><circle cx="651.7360762278548" cy="296.3015898329041" fill="white" r="2" /><circle cx="633.0202821713627" cy="279.8184953489606" fill="rgb(174,199,232)" r="4" /><circle cx="633.0202821713627" cy="279.8184953489606" fill="white" r="2" /><circle cx="605.1960586476753" cy="287.0008362950677" fill="rgb(174,199,232)" r="4" /><circle cx="605.1960586476753" cy="287.0008362950677" fill="white" r="2" /><circle cx="580.8478370292714" cy="302.31233955356964" fill="rgb(174,199,232)" r="4" /><circle cx="580.8478370292714" cy="302.31233955356964" fill="white" r="2" /><circle cx="558.7369650984701" cy="318.6243177217489" fill="rgb(174,199,232)" r="4" /><circle cx="558.7369650984701" cy="318.6243177217489" fill="white" r="2" /><circle cx="535.351246135566" cy="333.04981551675223" fill="rgb(174,199,232)" r="4" /><circle cx="535.351246135566" cy="333.04981551675223" fill="white" r="2" /><circle cx="545.2731229291077" cy="346.19771775539755" fill="rgb(174,199,232)" r="4" /><circle cx="545.2731229291077" cy="346.19771775539755" fill="white" r="2" /><circle cx="552.7691566004361" cy="364.07017155171815" fill="rgb(174,199,232)" r="4" /><circle cx="552.7691566004361" cy="364.07017155171815" fill="white" r="2" /><circle cx="550.751664333271" cy="384.53013030155535" fill="rgb(174,199,232)" r="4" /><circle cx="550.751664333271" cy="384.53013030155535" fill="white" r="2" /><circle cx="541.4317009417941" cy="403.09164269771725" fill="rgb(174,199,232)" r="4" /><circle cx="541.4317009417941" cy="403.09164269771725" fill="white" r="2" /><circle cx="522.4071597029472" cy="413.4198655838634" fill="rgb(174,199,232)" r="4" /><circle cx="522.4071597029472" cy="413.4198655838634" fill="white" r="2" /><circle cx="499.9036581930359" cy="418.5586114518895" fill="rgb(174,199,232)" r="4" /><circle cx="499.9036581930359" cy="418.5586114518895" fill="white" r="2" /><circle cx="479.45207907578117" cy="426.0106806158048" fill="rgb(174,199,232)" r="4" /><circle cx="479.45207907578117" cy="426.0106806158048" fill="white" r="2" /><circle cx="467.92378218845954" cy="436.57470191932833" fill="rgb(174,199,232)" r="4" /><circle cx="467.92378218845954" cy="436.57470191932833" fill="white" r="2" /><circle cx="460.18351151145725" cy="424.1824811678417" fill="rgb(174,199,232)" r="4" /><circle cx="460.18351151145725" cy="424.1824811678417" fill="white" r="2" /><path d="M 734.334846 220.012239 L 732.522274 240.536701 L 710.828892 256.803673 L 692.801550 277.064122 L 712.323465 283.356036 L 735.037815 288.580952" fill="none" stroke="rgb(255,127,14)" stroke-width="5" /><circle cx="734.3348460875749" cy="220.01223943562596" fill="rgb(255,127,14)" r="7" /><circle cx="732.522273716595" cy="240.53670057289443" fill="rgb(255,127,14)" r="4" /><circle cx="732.522273716595" cy="240.53670057289443" fill="white" r="2" /><circle cx="710.8288916358541" cy="256.80367330319206" fill="rgb(255,127,14)" r="4" /><circle cx="710.8288916358541" cy="256.80367330319206" fill="white" r="2" /><circle cx="692.8015501871018" cy="277.0641219733123" fill="rgb(255,127,14)" r="4" /><circle cx="692.8015501871018" cy="277.0641219733123" fill="white" r="2" /><circle cx="712.3234654789129" cy="283.3560360539272" fill="rgb(255,127,14)" r="4" /><circle cx="712.3234654789129" cy="283.3560360539272" fill="white" r="2" /><circle cx="735.0378150401466" cy="288.5809517220115" fill="rgb(255,127,14)" r="4" /><circle cx="735.0378150401466" cy="288.5809517220115" fill="white" r="2" /><path d="M 442.019423 561.829544 L 426.808426 562.554399 L 413.196719 558.207926 L 405.434496 578.142198 L 421.723105 593.618274 L 439.525940 587.675627 L 458.569042 590.485866 L 471.316640 610.398073 L 469.643558 635.792918 L 449.282389 637.911052 L 448.776771 654.075783" fill="none" stroke="rgb(255,187,120)" stroke-width="5" /><circle cx="442.01942292825754" cy="561.8295443093009" fill="rgb(255,187,120)" r="7" /><circle cx="426.80842633885436" cy="562.5543990274954" fill="rgb(255,187,120)" r="4" /><circle cx="426.80842633885436" cy="562.5543990274954" fill="white" r="2" /><circle cx="413.19671899343695" cy="558.2079263435988" fill="rgb(255,187,120)" r="4" /><circle cx="413.19671899343695" cy="558.2079263435988" fill="white" r="2" /><circle cx="405.4344958829865" cy="578.1421980782645" fill="rgb(255,187,120)" r="4" /><circle cx="405.4344958829865" cy="578.1421980782645" fill="white" r="2" /><circle cx="421.7231047797015" cy="593.618273951183" fill="rgb(255,187,120)" r="4" /><circle cx="421.7231047797015" cy="593.618273951183" fill="white" r="2" /><circle cx="439.5259401589472" cy="587.6756272610221" fill="rgb(255,187,120)" r="4" /><circle cx="439.5259401589472" cy="587.6756272610221" fill="white" r="2" /><circle cx="458.56904219148566" cy="590.4858655625238" fill="rgb(255,187,120)" r="4" /><circle cx="458.56904219148566" cy="590.4858655625238" fill="white" r="2" /><circle cx="471.3166403941398" cy="610.3980732463824" fill="rgb(255,187,120)" r="4" /><circle cx="471.3166403941398" cy="610.3980732463824" fill="white" r="2" /><circle cx="469.6435577130726" cy="635.7929182379152" fill="rgb(255,187,120)" r="4" /><circle cx="469.6435577130726" cy="635.7929182379152" fill="white" r="2" /><circle cx="449.2823891443244" cy="637.9110524317823" fill="rgb(255,187,120)" r="4" /><circle cx="449.2823891443244" cy="637.9110524317823" fill="white" r="2" /><circle cx="448.77677107114033" cy="654.0757825118453" fill="rgb(255,187,120)" r="4" /><circle cx="448.77677107114033" cy="654.0757825118453" fill="white" r="2" /><path d="M 352.814328 663.968513 L 373.934378 652.605612 L 397.788009 638.605216 L 425.985254 624.267306 L 447.469612 613.826461 L 474.250803 620.266170 L 497.429010 635.205187 L 515.644731 653.518800 L 531.674587 671.795244 L 546.620840 689.368998" fill="none" stroke="rgb(44,160,44)" stroke-width="5" /><circle cx="352.81432829819215" cy="663.9685132803588" fill="rgb(44,160,44)" r="7" /><circle cx="373.9343779721627" cy="652.605612049631" fill="rgb(44,160,44)" r="4" /><circle cx="373.9343779721627" cy="652.605612049631" fill="white" r="2" /><circle cx="397.78800938332165" cy="638.6052163322855" fill="rgb(44,160,44)" r="4" /><circle cx="397.78800938332165" cy="638.6052163322855" fill="white" r="2" /><circle cx="425.98525449209006" cy="624.2673061081343" fill="rgb(44,160,44)" r="4" /><circle cx="425.98525449209006" cy="624.2673061081343" fill="white" r="2" /><circle cx="447.4696123084467" cy="613.8264605265267" fill="rgb(44,160,44)" r="4" /><circle cx="447.4696123084467" cy="613.8264605265267" fill="white" r="2" /><circle cx="474.2508029791396" cy="620.2661703352101" fill="rgb(44,160,44)" r="4" /><circle cx="474.2508029791396" cy="620.2661703352101" fill="white" r="2" /><circle cx="497.4290104672082" cy="635.2051870881174" fill="rgb(44,160,44)" r="4" /><circle cx="497.4290104672082" cy="635.2051870881174" fill="white" r="2" /><circle cx="515.6447306216686" cy="653.5187999552908" fill="rgb(44,160,44)" r="4" /><circle cx="515.6447306216686" cy="653.5187999552908" fill="white" r="2" /><circle cx="531.6745867811965" cy="671.7952437693024" fill="rgb(44,160,44)" r="4" /><circle cx="531.6745867811965" cy="671.7952437693024" fill="white" r="2" /><circle cx="546.6208401394472" cy="689.3689981221987" fill="rgb(44,160,44)" r="4" /><circle cx="546.6208401394472" cy="689.3689981221987" fill="white" r="2" /><path d="M 541.089524 1230.821002 L 531.057908 1212.244127 L 520.645324 1193.598993 L 509.751399 1174.971782 L 498.231198 1156.427431 L 486.057104 1138.024617 L 473.206601 1119.815179 L 459.407988 1101.863521 L 444.237112 1084.287420 L 428.121483 1067.297359 L 410.375709 1051.149925 L 390.070866 1035.948322 L 367.317951 1046.669467 L 346.910505 1059.042101 L 327.754430 1072.593256 L 309.713874 1086.965357 L 292.584550 1101.915250 L 276.566111 1117.390800 L 261.302306 1133.214146 L 246.124478 1149.206709 L 231.953775 1165.540175 L 218.429759 1182.093890 L 204.934030 1198.707649 L 191.789061 1215.438872 L 179.036756 1232.278838 L 166.610844 1249.182960 L 154.291975 1266.000000" fill="none" stroke="rgb(152,223,138)" stroke-width="5" /><circle cx="541.0895241506593" cy="1230.821002397177" fill="rgb(152,223,138)" r="7" /><circle cx="531.0579079447493" cy="1212.2441266359795" fill="rgb(152,223,138)" r="4" /><circle cx="531.0579079447493" cy="1212.2441266359795" fill="white" r="2" /><circle cx="520.6453243814949" cy="1193.5989925420915" fill="rgb(152,223,138)" r="4" /><circle cx="520.6453243814949" cy="1193.5989925420915" fill="white" r="2" /><circle cx="509.75139911415664" cy="1174.9717818848108" fill="rgb(152,223,138)" r="4" /><circle cx="509.75139911415664" cy="1174.9717818848108" fill="white" r="2" /><circle cx="498.231197791879" cy="1156.427431487185" fill="rgb(152,223,138)" r="4" /><circle cx="498.231197791879" cy="1156.427431487185" fill="white" r="2" /><circle cx="486.0571040392902" cy="1138.0246174068402" fill="rgb(152,223,138)" r="4" /><circle cx="486.0571040392902" cy="1138.0246174068402" fill="white" r="2" /><circle cx="473.2066014568211" cy="1119.8151792707363" fill="rgb(152,223,138)" r="4" /><circle cx="473.2066014568211" cy="1119.8151792707363" fill="white" r="2" /><circle cx="459.4079879306521" cy="1101.863521280424" fill="rgb(152,223,138)" r="4" /><circle cx="459.4079879306521" cy="1101.863521280424" fill="white" r="2" /><circle cx="444.23711151859175" cy="1084.2874201802929" fill="rgb(152,223,138)" r="4" /><circle cx="444.23711151859175" cy="1084.2874201802929" fill="white" r="2" /><circle cx="428.12148261044825" cy="1067.2973590796405" fill="rgb(152,223,138)" r="4" /><circle cx="428.12148261044825" cy="1067.2973590796405" fill="white" r="2" /><circle cx="410.37570872030847" cy="1051.1499251631585" fill="rgb(152,223,138)" r="4" /><circle cx="410.37570872030847" cy="1051.1499251631585" fill="white" r="2" /><circle cx="390.0708655311518" cy="1035.9483218796943" fill="rgb(152,223,138)" r="4" /><circle cx="390.0708655311518" cy="1035.9483218796943" fill="white" r="2" /><circle cx="367.3179506071299" cy="1046.6694674135563" fill="rgb(152,223,138)" r="4" /><circle cx="367.3179506071299" cy="1046.6694674135563" fill="white" r="2" /><circle cx="346.910504687684" cy="1059.0421013785622" fill="rgb(152,223,138)" r="4" /><circle cx="346.910504687684" cy="1059.0421013785622" fill="white" r="2" /><circle cx="327.7544299836929" cy="1072.5932560191782" fill="rgb(152,223,138)" r="4" /><circle cx="327.7544299836929" cy="1072.5932560191782" fill="white" r="2" /><circle cx="309.71387433242245" cy="1086.9653573774767" fill="rgb(152,223,138)" r="4" /><circle cx="309.71387433242245" cy="1086.9653573774767" fill="white" r="2" /><circle cx="292.58454995185843" cy="1101.9152498174267" fill="rgb(152,223,138)" r="4" /><circle cx="292.58454995185843" cy="1101.9152498174267" fill="white" r="2" /><circle cx="276.56611102084815" cy="1117.3907998820694" fill="rgb(152,223,138)" r="4" /><circle cx="276.56611102084815" cy="1117.3907998820694" fill="white" r="2" /><circle cx="261.3023064527084" cy="1133.214146032789" fill="rgb(152,223,138)" r="4" /><circle cx="261.3023064527084" cy="1133.214146032789" fill="white" r="2" /><circle cx="246.12447832845328" cy="1149.2067093415426" fill="rgb(152,223,138)" r="4" /><circle cx="246.12447832845328" cy="1149.2067093415426" fill="white" r="2" /><circle cx="231.95377478856372" cy="1165.540175261983" fill="rgb(152,223,138)" r="4" /><circle cx="231.95377478856372" cy="1165.540175261983" fill="white" r="2" /><circle cx="218.4297589561676" cy="1182.0938895703987" fill="rgb(152,223,138)" r="4" /><circle cx="218.4297589561676" cy="1182.0938895703987" fill="white" r="2" /><circle cx="204.93402977610506" cy="1198.707649311497" fill="rgb(152,223,138)" r="4" /><circle cx="204.93402977610506" cy="1198.707649311497" fill="white" r="2" /><circle cx="191.7890609704327" cy="1215.4388723898833" fill="rgb(152,223,138)" r="4" /><circle cx="191.7890609704327" cy="1215.4388723898833" fill="white" r="2" /><circle cx="179.03675569303738" cy="1232.278837792408" fill="rgb(152,223,138)" r="4" /><circle cx="179.03675569303738" cy="1232.278837792408" fill="white" r="2" /><circle cx="166.61084420248523" cy="1249.1829597350375" fill="rgb(152,223,138)" r="4" /><circle cx="166.61084420248523" cy="1249.1829597350375" fill="white" r="2" /><circle cx="154.29197470778388" cy="1266.0" fill="rgb(152,223,138)" r="4" /><circle cx="154.29197470778388" cy="1266.0" fill="white" r="2" /><path d="M 433.412882 426.810012 L 455.707678 440.251357 L 476.182236 450.676730" fill="none" stroke="rgb(214,39,40)" stroke-width="5" /><circle cx="433.41288178450407" cy="426.8100116378705" fill="rgb(214,39,40)" r="7" /><circle cx="455.70767830644104" cy="440.2513571845947" fill="rgb(214,39,40)" r="4" /><circle cx="455.70767830644104" cy="440.2513571845947" fill="white" r="2" /><circle cx="476.18223562029846" cy="450.6767298431598" fill="rgb(214,39,40)" r="4" /><circle cx="476.18223562029846" cy="450.6767298431598" fill="white" r="2" /><path d="M 687.191997 622.246430 L 669.683704 606.900158 L 651.565372 590.754177 L 632.761080 573.846357 L 612.544003 556.800005 L 590.583660 540.465663 L 567.362737 524.898242 L 543.961620 510.157662 L 520.549884 496.881730 L 497.415020 489.712961 L 507.407526 508.159744 L 526.428032 523.273449 L 546.904265 538.418937 L 567.432180 554.018368 L 587.338539 569.849279 L 606.148459 585.614409" fill="none" stroke="rgb(255,152,150)" stroke-width="5" /><circle cx="687.1919968373304" cy="622.2464300232361" fill="rgb(255,152,150)" r="7" /><circle cx="669.6837037744582" cy="606.9001577195446" fill="rgb(255,152,150)" r="4" /><circle cx="669.6837037744582" cy="606.9001577195446" fill="white" r="2" /><circle cx="651.5653718503214" cy="590.7541770012884" fill="rgb(255,152,150)" r="4" /><circle cx="651.5653718503214" cy="590.7541770012884" fill="white" r="2" /><circle cx="632.7610795834291" cy="573.8463565055913" fill="rgb(255,152,150)" r="4" /><circle cx="632.7610795834291" cy="573.8463565055913" fill="white" r="2" /><circle cx="612.5440026066426" cy="556.8000054661694" fill="rgb(255,152,150)" r="4" /><circle cx="612.5440026066426" cy="556.8000054661694" fill="white" r="2" /><circle cx="590.5836597529727" cy="540.4656632363898" fill="rgb(255,152,150)" r="4" /><circle cx="590.5836597529727" cy="540.4656632363898" fill="white" r="2" /><circle cx="567.3627372940413" cy="524.8982418455952" fill="rgb(255,152,150)" r="4" /><circle cx="567.3627372940413" cy="524.8982418455952" fill="white" r="2" /><circle cx="543.9616201241246" cy="510.15766214281183" fill="rgb(255,152,150)" r="4" /><circle cx="543.9616201241246" cy="510.15766214281183" fill="white" r="2" /><circle cx="520.5498844964745" cy="496.8817295374037" fill="rgb(255,152,150)" r="4" /><circle cx="520.5498844964745" cy="496.8817295374037" fill="white" r="2" /><circle cx="497.41501969430965" cy="489.71296138650206" fill="rgb(255,152,150)" r="4" /><circle cx="497.41501969430965" cy="489.71296138650206" fill="white" r="2" /><circle cx="507.4075261706524" cy="508.1597435421939" fill="rgb(255,152,150)" r="4" /><circle cx="507.4075261706524" cy="508.1597435421939" fill="white" r="2" /><circle cx="526.4280315285097" cy="523.2734493407881" fill="rgb(255,152,150)" r="4" /><circle cx="526.4280315285097" cy="523.2734493407881" fill="white" r="2" /><circle cx="546.9042654637341" cy="538.4189369831804" fill="rgb(255,152,150)" r="4" /><circle cx="546.9042654637341" cy="538.4189369831804" fill="white" r="2" /><circle cx="567.4321800129019" cy="554.0183684433094" fill="rgb(255,152,150)" r="4" /><circle cx="567.4321800129019" cy="554.0183684433094" fill="white" r="2" /><circle cx="587.3385394493317" cy="569.8492787967863" fill="rgb(255,152,150)" r="4" /><circle cx="587.3385394493317" cy="569.8492787967863" fill="white" r="2" /><circle cx="606.1484590245004" cy="585.6144090570302" fill="rgb(255,152,150)" r="4" /><circle cx="606.1484590245004" cy="585.6144090570302" fill="white" r="2" /><path d="M 469.482741 669.996779 L 448.776771 654.075783 L 422.729296 659.343795" fill="none" stroke="rgb(148,103,189)" stroke-width="5" /><circle cx="469.48274092008415" cy="669.9967787542198" fill="rgb(148,103,189)" r="7" /><circle cx="448.77677107114033" cy="654.0757825118453" fill="rgb(148,103,189)" r="4" /><circle cx="448.77677107114033" cy="654.0757825118453" fill="white" r="2" /><circle cx="422.7292964101735" cy="659.343794903519" fill="rgb(148,103,189)" r="4" /><circle cx="422.7292964101735" cy="659.343794903519" fill="white" r="2" /><path d="M 882.794797 94.538025 L 869.142882 111.023971 L 855.094283 127.989585 L 838.981968 143.387419 L 823.266750 159.795725 L 807.278227 176.561246 L 790.737317 193.432379 L 773.596763 210.442102 L 755.642429 227.934618 L 732.522274 240.536701 L 710.828892 256.803673" fill="none" stroke="rgb(197,176,213)" stroke-width="5" /><circle cx="882.7947968787777" cy="94.53802462420978" fill="rgb(197,176,213)" r="7" /><circle cx="869.1428818670197" cy="111.02397137423311" fill="rgb(197,176,213)" r="4" /><circle cx="869.1428818670197" cy="111.02397137423311" fill="white" r="2" /><circle cx="855.0942831868298" cy="127.98958479269928" fill="rgb(197,176,213)" r="4" /><circle cx="855.0942831868298" cy="127.98958479269928" fill="white" r="2" /><circle cx="838.9819682595472" cy="143.38741875094814" fill="rgb(197,176,213)" r="4" /><circle cx="838.9819682595472" cy="143.38741875094814" fill="white" r="2" /><circle cx="823.2667496485822" cy="159.79572474053825" fill="rgb(197,176,213)" r="4" /><circle cx="823.2667496485822" cy="159.79572474053825" fill="white" r="2" /><circle cx="807.2782269687631" cy="176.5612457735223" fill="rgb(197,176,213)" r="4" /><circle cx="807.2782269687631" cy="176.5612457735223" fill="white" r="2" /><circle cx="790.7373173042902" cy="193.43237926825128" fill="rgb(197,176,213)" r="4" /><circle cx="790.7373173042902" cy="193.43237926825128" fill="white" r="2" /><circle cx="773.5967626410624" cy="210.44210178868693" fill="rgb(197,176,213)" r="4" /><circle cx="773.5967626410624" cy="210.44210178868693" fill="white" r="2" /><circle cx="755.6424287405615" cy="227.93461809376197" fill="rgb(197,176,213)" r="4" /><circle cx="755.6424287405615" cy="227.93461809376197" fill="white" r="2" /><circle cx="732.522273716595" cy="240.53670057289443" fill="rgb(197,176,213)" r="4" /><circle cx="732.522273716595" cy="240.53670057289443" fill="white" r="2" /><circle cx="710.8288916358541" cy="256.80367330319206" fill="rgb(197,176,213)" r="4" /><circle cx="710.8288916358541" cy="256.80367330319206" fill="white" r="2" /><path d="M 707.611683 307.463566 L 691.991439 312.882480 L 718.171823 321.563959 L 741.887269 330.874506 L 764.642666 339.964688 L 787.003053 348.816518 L 808.780620 357.829064 L 829.917845 366.914555" fill="none" stroke="rgb(140,86,75)" stroke-width="5" /><circle cx="707.6116827672489" cy="307.46356633105813" fill="rgb(140,86,75)" r="7" /><circle cx="691.9914386977802" cy="312.8824799325656" fill="rgb(140,86,75)" r="4" /><circle cx="691.9914386977802" cy="312.8824799325656" fill="white" r="2" /><circle cx="718.1718226061984" cy="321.5639592303949" fill="rgb(140,86,75)" r="4" /><circle cx="718.1718226061984" cy="321.5639592303949" fill="white" r="2" /><circle cx="741.8872688272022" cy="330.87450586815226" fill="rgb(140,86,75)" r="4" /><circle cx="741.8872688272022" cy="330.87450586815226" fill="white" r="2" /><circle cx="764.6426655664729" cy="339.9646881604566" fill="rgb(140,86,75)" r="4" /><circle cx="764.6426655664729" cy="339.9646881604566" fill="white" r="2" /><circle cx="787.0030527788298" cy="348.8165176649753" fill="rgb(140,86,75)" r="4" /><circle cx="787.0030527788298" cy="348.8165176649753" fill="white" r="2" /><circle cx="808.7806203661423" cy="357.8290642295317" fill="rgb(140,86,75)" r="4" /><circle cx="808.7806203661423" cy="357.8290642295317" fill="white" r="2" /><circle cx="829.9178447093894" cy="366.91455460650155" fill="rgb(140,86,75)" r="4" /><circle cx="829.9178447093894" cy="366.91455460650155" fill="white" r="2" /><path d="M 389.249236 298.717027 L 401.554309 285.882620" fill="none" stroke="rgb(196,156,148)" stroke-width="5" /><circle cx="389.24923640506336" cy="298.7170267641475" fill="rgb(196,156,148)" r="7" /><circle cx="401.5543094899609" cy="285.8826199110739" fill="rgb(196,156,148)" r="4" /><circle cx="401.5543094899609" cy="285.8826199110739" fill="white" r="2" /><path d="M 419.479714 467.931013 L 438.611381 459.725072 L 419.964513 448.196368" fill="none" stroke="rgb(227,119,194)" stroke-width="5" /><circle cx="419.47971419404894" cy="467.93101290059604" fill="rgb(227,119,194)" r="7" /><circle cx="438.61138139275283" cy="459.7250721089712" fill="rgb(227,119,194)" r="4" /><circle cx="438.61138139275283" cy="459.7250721089712" fill="white" r="2" /><circle cx="419.9645134722147" cy="448.196368459379" fill="rgb(227,119,194)" r="4" /><circle cx="419.9645134722147" cy="448.196368459379" fill="white" r="2" /><path d="M 381.004624 596.996600 L 403.502278 598.567074 L 421.723105 593.618274 L 419.154011 612.474642 L 417.666875 636.528992 L 422.729296 659.343795" fill="none" stroke="rgb(247,182,210)" stroke-width="5" /><circle cx="381.0046238596416" cy="596.9965997608351" fill="rgb(247,182,210)" r="7" /><circle cx="403.5022776983385" cy="598.5670740427869" fill="rgb(247,182,210)" r="4" /><circle cx="403.5022776983385" cy="598.5670740427869" fill="white" r="2" /><circle cx="421.7231047797015" cy="593.618273951183" fill="rgb(247,182,210)" r="4" /><circle cx="421.7231047797015" cy="593.618273951183" fill="white" r="2" /><circle cx="419.15401105244587" cy="612.4746416912946" fill="rgb(247,182,210)" r="4" /><circle cx="419.15401105244587" cy="612.4746416912946" fill="white" r="2" /><circle cx="417.66687465164995" cy="636.5289923709444" fill="rgb(247,182,210)" r="4" /><circle cx="417.66687465164995" cy="636.5289923709444" fill="white" r="2" /><circle cx="422.7292964101735" cy="659.343794903519" fill="rgb(247,182,210)" r="4" /><circle cx="422.7292964101735" cy="659.343794903519" fill="white" r="2" /><path d="M 573.010666 120.661725 L 579.104956 144.695393 L 585.543482 169.718466 L 592.039442 195.194399 L 597.779100 220.137983 L 604.377070 242.862915 L 613.818181 262.180282" fill="none" stroke="rgb(127,127,127)" stroke-width="5" /><circle cx="573.0106661127984" cy="120.66172454866509" fill="rgb(127,127,127)" r="7" /><circle cx="579.1049557048981" cy="144.69539251609254" fill="rgb(127,127,127)" r="4" /><circle cx="579.1049557048981" cy="144.69539251609254" fill="white" r="2" /><circle cx="585.54348208972" cy="169.7184655831396" fill="rgb(127,127,127)" r="4" /><circle cx="585.54348208972" cy="169.7184655831396" fill="white" r="2" /><circle cx="592.0394417219095" cy="195.19439907923194" fill="rgb(127,127,127)" r="4" /><circle cx="592.0394417219095" cy="195.19439907923194" fill="white" r="2" /><circle cx="597.7790997601246" cy="220.13798327174948" fill="rgb(127,127,127)" r="4" /><circle cx="597.7790997601246" cy="220.13798327174948" fill="white" r="2" /><circle cx="604.3770701726488" cy="242.86291470569273" fill="rgb(127,127,127)" r="4" /><circle cx="604.3770701726488" cy="242.86291470569273" fill="white" r="2" /><circle cx="613.8181807114391" cy="262.18028163927886" fill="rgb(127,127,127)" r="4" /><circle cx="613.8181807114391" cy="262.18028163927886" fill="white" r="2" /><path d="M 1070.604243 267.373140 L 1049.716048 267.337148 L 1028.491376 267.501472 L 1007.376342 270.628413 L 985.982500 273.215145 L 964.043305 272.976340 L 942.044307 274.201473 L 919.702290 274.808181 L 896.843835 273.492007 L 873.673227 272.851665 L 849.839415 270.575938 L 825.456419 268.729596 L 800.270683 266.432958 L 774.096789 263.666930 L 746.491727 259.737148 L 717.586260 255.540835 L 688.395313 254.757089 L 661.558954 256.034332 L 667.706795 239.619164" fill="none" stroke="rgb(199,199,199)" stroke-width="5" /><circle cx="1070.6042429986571" cy="267.37314015724996" fill="rgb(199,199,199)" r="7" /><circle cx="1049.7160477925972" cy="267.3371484130502" fill="rgb(199,199,199)" r="4" /><circle cx="1049.7160477925972" cy="267.3371484130502" fill="white" r="2" /><circle cx="1028.491375897021" cy="267.50147222629596" fill="rgb(199,199,199)" r="4" /><circle cx="1028.491375897021" cy="267.50147222629596" fill="white" r="2" /><circle cx="1007.3763423533356" cy="270.6284133048285" fill="rgb(199,199,199)" r="4" /><circle cx="1007.3763423533356" cy="270.6284133048285" fill="white" r="2" /><circle cx="985.9824995876207" cy="273.21514454464506" fill="rgb(199,199,199)" r="4" /><circle cx="985.9824995876207" cy="273.21514454464506" fill="white" r="2" /><circle cx="964.0433051640592" cy="272.9763398314087" fill="rgb(199,199,199)" r="4" /><circle cx="964.0433051640592" cy="272.9763398314087" fill="white" r="2" /><circle cx="942.0443071482032" cy="274.20147281100856" fill="rgb(199,199,199)" r="4" /><circle cx="942.0443071482032" cy="274.20147281100856" fill="white" r="2" /><circle cx="919.7022898716411" cy="274.8081809499487" fill="rgb(199,199,199)" r="4" /><circle cx="919.7022898716411" cy="274.8081809499487" fill="white" r="2" /><circle cx="896.8438348955642" cy="273.4920073837075" fill="rgb(199,199,199)" r="4" /><circle cx="896.8438348955642" cy="273.4920073837075" fill="white" r="2" /><circle cx="873.6732267809737" cy="272.8516648478937" fill="rgb(199,199,199)" r="4" /><circle cx="873.6732267809737" cy="272.8516648478937" fill="white" r="2" /><circle cx="849.8394149488727" cy="270.5759381506721" fill="rgb(199,199,199)" r="4" /><circle cx="849.8394149488727" cy="270.5759381506721" fill="white" r="2" /><circle cx="825.4564186394244" cy="268.7295956605498" fill="rgb(199,199,199)" r="4" /><circle cx="825.4564186394244" cy="268.7295956605498" fill="white" r="2" /><circle cx="800.2706827555413" cy="266.43295762382496" fill="rgb(199,199,199)" r="4" /><circle cx="800.2706827555413" cy="266.43295762382496" fill="white" r="2" /><circle cx="774.0967892599923" cy="263.6669299020839" fill="rgb(199,199,199)" r="4" /><circle cx="774.0967892599923" cy="263.6669299020839" fill="white" r="2" /><circle cx="746.491727252497" cy="259.7371478558514" fill="rgb(199,199,199)" r="4" /><circle cx="746.491727252497" cy="259.7371478558514" fill="white" r="2" /><circle cx="717.5862599997187" cy="255.54083522646278" fill="rgb(199,199,199)" r="4" /><circle cx="717.5862599997187" cy="255.54083522646278" fill="white" r="2" /><circle cx="688.395313496721" cy="254.7570890259142" fill="rgb(199,199,199)" r="4" /><circle cx="688.395313496721" cy="254.7570890259142" fill="white" r="2" /><circle cx="661.5589542429889" cy="256.03433210999543" fill="rgb(199,199,199)" r="4" /><circle cx="661.5589542429889" cy="256.03433210999543" fill="white" r="2" /><circle cx="667.7067946881331" cy="239.61916375007158" fill="rgb(199,199,199)" r="4" /><circle cx="667.7067946881331" cy="239.61916375007158" fill="white" r="2" /><path d="M 380.142829 637.155769 L 399.173495 624.952762 L 403.502278 598.567074 L 414.330377 575.320935 L 426.808426 562.554399 L 439.525940 587.675627 L 447.469612 613.826461 L 449.282389 637.911052 L 434.847165 661.440793 L 411.776673 650.707658 L 422.729296 659.343795" fill="none" stroke="rgb(188,189,34)" stroke-width="5" /><circle cx="380.1428294492915" cy="637.1557693303675" fill="rgb(188,189,34)" r="7" /><circle cx="399.1734947010527" cy="624.9527619967645" fill="rgb(188,189,34)" r="4" /><circle cx="399.1734947010527" cy="624.9527619967645" fill="white" r="2" /><circle cx="403.5022776983385" cy="598.5670740427869" fill="rgb(188,189,34)" r="4" /><circle cx="403.5022776983385" cy="598.5670740427869" fill="white" r="2" /><circle cx="414.33037658749055" cy="575.3209348722344" fill="rgb(188,189,34)" r="4" /><circle cx="414.33037658749055" cy="575.3209348722344" fill="white" r="2" /><circle cx="426.80842633885436" cy="562.5543990274954" fill="rgb(188,189,34)" r="4" /><circle cx="426.80842633885436" cy="562.5543990274954" fill="white" r="2" /><circle cx="439.5259401589472" cy="587.6756272610221" fill="rgb(188,189,34)" r="4" /><circle cx="439.5259401589472" cy="587.6756272610221" fill="white" r="2" /><circle cx="447.4696123084467" cy="613.8264605265267" fill="rgb(188,189,34)" r="4" /><circle cx="447.4696123084467" cy="613.8264605265267" fill="white" r="2" /><circle cx="449.2823891443244" cy="637.9110524317823" fill="rgb(188,189,34)" r="4" /><circle cx="449.2823891443244" cy="637.9110524317823" fill="white" r="2" /><circle cx="434.84716500235857" cy="661.4407925497853" fill="rgb(188,189,34)" r="4" /><circle cx="434.84716500235857" cy="661.4407925497853" fill="white" r="2" /><circle cx="411.7766734075563" cy="650.7076581827367" fill="rgb(188,189,34)" r="4" /><circle cx="411.7766734075563" cy="650.7076581827367" fill="white" r="2" /><circle cx="422.7292964101735" cy="659.343794903519" fill="rgb(188,189,34)" r="4" /><circle cx="422.7292964101735" cy="659.343794903519" fill="white" r="2" /><path d="M 208.376987 156.202394 L 205.665251 178.688639" fill="none" stroke="rgb(219,219,141)" stroke-width="5" /><circle cx="208.3769873695511" cy="156.20239445220162" fill="rgb(219,219,141)" r="7" /><circle cx="205.6652511996128" cy="178.68863928065463" fill="rgb(219,219,141)" r="4" /><circle cx="205.6652511996128" cy="178.68863928065463" fill="white" r="2" /><path d="M 374.728970 627.194655 L 399.173495 624.952762 L 411.776673 650.707658" fill="none" stroke="rgb(23,190,207)" stroke-width="5" /><circle cx="374.7289696208366" cy="627.1946550880682" fill="rgb(23,190,207)" r="7" /><circle cx="399.1734947010527" cy="624.9527619967645" fill="rgb(23,190,207)" r="4" /><circle cx="399.1734947010527" cy="624.9527619967645" fill="white" r="2" /><circle cx="411.7766734075563" cy="650.7076581827367" fill="rgb(23,190,207)" r="4" /><circle cx="411.7766734075563" cy="650.7076581827367" fill="white" r="2" /><path d="M 193.282910 385.826331 L 216.664706 388.299171 L 241.021023 391.323529 L 266.009109 395.629398 L 291.084619 401.813320 L 315.580252 410.487873 L 337.686369 423.292850 L 350.983133 444.526401 L 375.603194 447.520037 L 400.043347 451.747669 L 426.774827 456.774935 L 453.877726 461.637879 L 438.611381 459.725072" fill="none" stroke="rgb(158,218,229)" stroke-width="5" /><circle cx="193.28291005138314" cy="385.8263311981508" fill="rgb(158,218,229)" r="7" /><circle cx="216.66470587387073" cy="388.29917094359314" fill="rgb(158,218,229)" r="4" /><circle cx="216.66470587387073" cy="388.29917094359314" fill="white" r="2" /><circle cx="241.0210233094387" cy="391.32352851608863" fill="rgb(158,218,229)" r="4" /><circle cx="241.0210233094387" cy="391.32352851608863" fill="white" r="2" /><circle cx="266.00910871690326" cy="395.6293984950373" fill="rgb(158,218,229)" r="4" /><circle cx="266.00910871690326" cy="395.6293984950373" fill="white" r="2" /><circle cx="291.08461941360235" cy="401.8133200968935" fill="rgb(158,218,229)" r="4" /><circle cx="291.08461941360235" cy="401.8133200968935" fill="white" r="2" /><circle cx="315.5802516297484" cy="410.4878726406854" fill="rgb(158,218,229)" r="4" /><circle cx="315.5802516297484" cy="410.4878726406854" fill="white" r="2" /><circle cx="337.6863691378732" cy="423.2928497745233" fill="rgb(158,218,229)" r="4" /><circle cx="337.6863691378732" cy="423.2928497745233" fill="white" r="2" /><circle cx="350.9831331413478" cy="444.52640099900617" fill="rgb(158,218,229)" r="4" /><circle cx="350.9831331413478" cy="444.52640099900617" fill="white" r="2" /><circle cx="375.60319371871105" cy="447.52003726866275" fill="rgb(158,218,229)" r="4" /><circle cx="375.60319371871105" cy="447.52003726866275" fill="white" r="2" /><circle cx="400.04334711750744" cy="451.7476693484795" fill="rgb(158,218,229)" r="4" /><circle cx="400.04334711750744" cy="451.7476693484795" fill="white" r="2" /><circle cx="426.7748269591128" cy="456.7749349828659" fill="rgb(158,218,229)" r="4" /><circle cx="426.7748269591128" cy="456.7749349828659" fill="white" r="2" /><circle cx="453.8777256078079" cy="461.6378792102084" fill="rgb(158,218,229)" r="4" /><circle cx="453.8777256078079" cy="461.6378792102084" fill="white" r="2" /><circle cx="438.61138139275283" cy="459.7250721089712" fill="rgb(158,218,229)" r="4" /><circle cx="438.61138139275283" cy="459.7250721089712" fill="white" r="2" /><path d="M 675.212325 294.757741 L 692.801550 277.064122 L 712.323465 283.356036" fill="none" stroke="rgb(31,119,180)" stroke-width="5" /><circle cx="675.2123249570019" cy="294.7577407339489" fill="rgb(31,119,180)" r="7" /><circle cx="692.8015501871018" cy="277.0641219733123" fill="rgb(31,119,180)" r="4" /><circle cx="692.8015501871018" cy="277.0641219733123" fill="white" r="2" /><circle cx="712.3234654789129" cy="283.3560360539272" fill="rgb(31,119,180)" r="4" /><circle cx="712.3234654789129" cy="283.3560360539272" fill="white" r="2" /></svg>