<?xml version="1.0" encoding="utf-8" ?>
<svg baseProfile="full" fill="white" height="1040" version="1.1" width="1040" xmlns="http://www.w3.org/2000/svg" xmlns:ev="http://www.w3.org/2001/xml-events" xmlns:xlink="http://www.w3.org/1999/xlink"><defs /><path d="M 261.784531 370.957097 L 256.417797 381.707193 L 239.210098 372.744642" fill="none" stroke="rgb(31,119,180)" stroke-width="5" /><circle cx="261.78453068797216" cy="370.9570966321455" fill="rgb(31,119,180)" r="7" /><circle cx="256.4177972259256" cy="381.707193261951" fill="rgb(31,119,180)" r="4" /><circle cx="256.4177972259256" cy="381.707193261951" fill="white" r="2" /><circle cx="239.21009833604768" cy="372.74464161692737" fill="rgb(31,119,180)" r="4" /><circle cx="239.21009833604768" cy="372.74464161692737" fill="white" r="2" /><path d="M 185.937064 504.485326 L 195.281818 492.233683 L 205.667023 480.389719 L 216.624932 468.804217 L 228.280293 458.707502 L 241.469579 451.641909 L 255.099394 443.641845 L 269.379891 440.475802 L 274.111049 457.739106 L 274.870507 475.744542 L 265.651743 477.781636" fill="none" stroke="rgb(174,199,232)" stroke-width="5" /><circle cx="185.93706411693097" cy="504.4853256646442" fill="rgb(174,199,232)" r="7" /><circle cx="195.28181796490964" cy="492.23368342797136" fill="rgb(174,199,232)" r="4" /><circle cx="195.28181796490964" cy="492.23368342797136" fill="white" r="2" /><circle cx="205.66702331312953" cy="480.38971851629674" fill="rgb(174,199,232)" r="4" /><circle cx="205.66702331312953" cy="480.38971851629674" fill="white" r="2" /><circle cx="216.62493227370405" cy="468.8042172738976" fill="rgb(174,199,232)" r="4" /><circle cx="216.62493227370405" cy="468.8042172738976" fill="white" r="2" /><circle cx="228.28029278381408" cy="458.70750152269414" fill="rgb(174,199,232)" r="4" /><circle cx="228.28029278381408" cy="458.70750152269414" fill="white" r="2" /><circle cx="241.46957924503533" cy="451.6419088700584" fill="rgb(174,199,232)" r="4" /><circle cx="241.46957924503533" cy="451.6419088700584" fill="white" r="2" /><circle cx="255.09939437813864" cy="443.6418447189387" fill="rgb(174,199,232)" r="4" /><circle cx="255.09939437813864" cy="443.6418447189387" fill="white" r="2" /><circle cx="269.37989145517054" cy="440.4758023182463" fill="rgb(174,199,232)" r="4" /><circle cx="269.37989145517054" cy="440.4758023182463" fill="white" r="2" /><circle cx="274.1110487741287" cy="457.7391061138049" fill="rgb(174,199,232)" r="4" /><circle cx="274.1110487741287" cy="457.7391061138049" fill="white" r="2" /><circle cx="274.8705068231102" cy="475.74454162445045" fill="rgb(174,199,232)" r="4" /><circle cx="274.8705068231102" cy="475.74454162445045" fill="white" r="2" /><circle cx="265.6517429801149" cy="477.7816362638717" fill="rgb(174,199,232)" r="4" /><circle cx="265.6517429801149" cy="477.7816362638717" fill="white" r="2" /><path d="M 261.082607 421.167768 L 270.939556 423.036403 L 269.379891 440.475802" fill="none" stroke="rgb(255,127,14)" stroke-width="5" /><circle cx="261.08260686027074" cy="421.16776830528175" fill="rgb(255,127,14)" r="7" /><circle cx="270.93955597963685" cy="423.0364030652128" fill="rgb(255,127,14)" r="4" /><circle cx="270.93955597963685" cy="423.0364030652128" fill="white" r="2" /><circle cx="269.37989145517054" cy="440.4758023182463" fill="rgb(255,127,14)" r="4" /><circle cx="269.37989145517054" cy="440.4758023182463" fill="white" r="2" /><path d="M 595.330814 267.975888 L 582.784039 278.862822 L 570.631039 289.186110 L 560.458112 301.394629 L 543.822873 305.489210 L 527.752726 312.456039 L 513.070018 321.586371 L 496.212432 312.288882 L 480.632116 304.749747 L 465.379616 297.806576 L 449.974709 292.438182 L 434.163768 288.480792 L 417.599013 285.833446 L 399.738775 282.487531 L 398.509882 264.803279 L 399.295812 249.163429 L 399.596042 233.875854 L 399.398833 218.272978 L 399.000476 203.011132 L 398.338187 187.921032 L 397.464895 173.177151" fill="none" stroke="rgb(255,187,120)" stroke-width="5" /><circle cx="595.3308141486285" cy="267.97588831353954" fill="rgb(255,187,120)" r="7" /><circle cx="582.7840385578404" cy="278.86282163382083" fill="rgb(255,187,120)" r="4" /><circle cx="582.7840385578404" cy="278.86282163382083" fill="white" r="2" /><circle cx="570.6310391792539" cy="289.186110331055" fill="rgb(255,187,120)" r="4" /><circle cx="570.6310391792539" cy="289.186110331055" fill="white" r="2" /><circle cx="560.4581124568867" cy="301.3946288353125" fill="rgb(255,187,120)" r="4" /><circle cx="560.4581124568867" cy="301.3946288353125" fill="white" r="2" /><circle cx="543.8228734102915" cy="305.48920998266254" fill="rgb(255,187,120)" r="4" /><circle cx="543.8228734102915" cy="305.48920998266254" fill="white" r="2" /><circle cx="527.7527257668517" cy="312.4560389353243" fill="rgb(255,187,120)" r="4" /><circle cx="527.7527257668517" cy="312.4560389353243" fill="white" r="2" /><circle cx="513.0700178043764" cy="321.58637135794874" fill="rgb(255,187,120)" r="4" /><circle cx="513.0700178043764" cy="321.58637135794874" fill="white" r="2" /><circle cx="496.2124316086505" cy="312.2888821239451" fill="rgb(255,187,120)" r="4" /><circle cx="496.2124316086505" cy="312.2888821239451" fill="white" r="2" /><circle cx="480.63211623888" cy="304.7497474792967" fill="rgb(255,187,120)" r="4" /><circle cx="480.63211623888" cy="304.7497474792967" fill="white" r="2" /><circle cx="465.3796161991272" cy="297.80657602861294" fill="rgb(255,187,120)" r="4" /><circle cx="465.3796161991272" cy="297.80657602861294" fill="white" r="2" /><circle cx="449.97470908008734" cy="292.43818227888227" fill="rgb(255,187,120)" r="4" /><circle cx="449.97470908008734" cy="292.43818227888227" fill="white" r="2" /><circle cx="434.1637680180228" cy="288.4807919778854" fill="rgb(255,187,120)" r="4" /><circle cx="434.1637680180228" cy="288.4807919778854" fill="white" r="2" /><circle cx="417.5990126362999" cy="285.8334459524161" fill="rgb(255,187,120)" r="4" /><circle cx="417.5990126362999" cy="285.8334459524161" fill="white" r="2" /><circle cx="399.7387753338144" cy="282.48753124685544" fill="rgb(255,187,120)" r="4" /><circle cx="399.7387753338144" cy="282.48753124685544" fill="white" r="2" /><circle cx="398.5098817337426" cy="264.80327936731476" fill="rgb(255,187,120)" r="4" /><circle cx="398.5098817337426" cy="264.80327936731476" fill="white" r="2" /><circle cx="399.29581232456604" cy="249.163428898937" fill="rgb(255,187,120)" r="4" /><circle cx="399.29581232456604" cy="249.163428898937" fill="white" r="2" /><circle cx="399.59604152546086" cy="233.8758539916811" fill="rgb(255,187,120)" r="4" /><circle cx="399.59604152546086" cy="233.8758539916811" fill="white" r="2" /><circle cx="399.39883294281" cy="218.27297751806555" fill="rgb(255,187,120)" r="4" /><circle cx="399.39883294281" cy="218.27297751806555" fill="white" r="2" /><circle cx="399.0004758476947" cy="203.0111318368756" fill="rgb(255,187,120)" r="4" /><circle cx="399.0004758476947" cy="203.0111318368756" fill="white" r="2" /><circle cx="398.33818709631055" cy="187.9210317645291" fill="rgb(255,187,120)" r="4" /><circle cx="398.33818709631055" cy="187.9210317645291" fill="white" r="2" /><circle cx="397.46489471162795" cy="173.17715092816735" fill="rgb(255,187,120)" r="4" /><circle cx="397.46489471162795" cy="173.17715092816735" fill="white" r="2" /><path d="M 592.070707 337.808025 L 582.307445 325.960167 L 571.911516 313.810619 L 560.458112 301.394629 L 543.822873 305.489210 L 551.880890 315.295351" fill="none" stroke="rgb(44,160,44)" stroke-width="5" /><circle cx="592.0707074948004" cy="337.80802478935004" fill="rgb(44,160,44)" r="7" /><circle cx="582.3074449506828" cy="325.9601668976182" fill="rgb(44,160,44)" r="4" /><circle cx="582.3074449506828" cy="325.9601668976182" fill="white" r="2" /><circle cx="571.9115162307512" cy="313.8106187326986" fill="rgb(44,160,44)" r="4" /><circle cx="571.9115162307512" cy="313.8106187326986" fill="white" r="2" /><circle cx="560.4581124568867" cy="301.3946288353125" fill="rgb(44,160,44)" r="4" /><circle cx="560.4581124568867" cy="301.3946288353125" fill="white" r="2" /><circle cx="543.8228734102915" cy="305.48920998266254" fill="rgb(44,160,44)" r="4" /><circle cx="543.8228734102915" cy="305.48920998266254" fill="white" r="2" /><circle cx="551.8808904727924" cy="315.29535117117484" fill="rgb(44,160,44)" r="4" /><circle cx="551.8808904727924" cy="315.29535117117484" fill="white" r="2" /><path d="M 403.999128 274.149438 L 399.738775 282.487531" fill="none" stroke="rgb(152,223,138)" stroke-width="5" /><circle cx="403.9991278456957" cy="274.14943800549844" fill="rgb(152,223,138)" r="7" /><circle cx="399.7387753338144" cy="282.48753124685544" fill="rgb(152,223,138)" r="4" /><circle cx="399.7387753338144" cy="282.48753124685544" fill="white" r="2" /><path d="M 270.457048 493.915505 L 274.870507 475.744542 L 287.102627 478.853066" fill="none" stroke="rgb(214,39,40)" stroke-width="5" /><circle cx="270.4570475391446" cy="493.9155054347029" fill="rgb(214,39,40)" r="7" /><circle cx="274.8705068231102" cy="475.74454162445045" fill="rgb(214,39,40)" r="4" /><circle cx="274.8705068231102" cy="475.74454162445045" fill="white" r="2" /><circle cx="287.1026273505716" cy="478.8530656276883" fill="rgb(214,39,40)" r="4" /><circle cx="287.1026273505716" cy="478.8530656276883" fill="white" r="2" /><path d="M 272.823722 510.851039 L 260.989459 522.016350 L 249.416442 534.801504 L 238.234968 547.356263 L 228.222254 560.094804 L 219.948735 573.031805" fill="none" stroke="rgb(255,152,150)" stroke-width="5" /><circle cx="272.8237215370197" cy="510.85103853792066" fill="rgb(255,152,150)" r="7" /><circle cx="260.98945907301345" cy="522.0163503340412" fill="rgb(255,152,150)" r="4" /><circle cx="260.98945907301345" cy="522.0163503340412" fill="white" r="2" /><circle cx="249.4164415122133" cy="534.801503805043" fill="rgb(255,152,150)" r="4" /><circle cx="249.4164415122133" cy="534.801503805043" fill="white" r="2" /><circle cx="238.23496828935933" cy="547.3562629023829" fill="rgb(255,152,150)" r="4" /><circle cx="238.23496828935933" cy="547.3562629023829" fill="white" r="2" /><circle cx="228.22225357520034" cy="560.0948040457783" fill="rgb(255,152,150)" r="4" /><circle cx="228.22225357520034" cy="560.0948040457783" fill="white" r="2" /><circle cx="219.94873524117756" cy="573.0318046021016" fill="rgb(255,152,150)" r="4" /><circle cx="219.94873524117756" cy="573.0318046021016" fill="white" r="2" /><path d="M 227.463532 510.614719 L 242.525390 505.693822 L 236.056454 518.987112" fill="none" stroke="rgb(148,103,189)" stroke-width="5" /><circle cx="227.46353238818523" cy="510.6147189544123" fill="rgb(148,103,189)" r="7" /><circle cx="242.52538993261425" cy="505.6938219646685" fill="rgb(148,103,189)" r="4" /><circle cx="242.52538993261425" cy="505.6938219646685" fill="white" r="2" /><circle cx="236.05645354431618" cy="518.9871116048246" fill="rgb(148,103,189)" r="4" /><circle cx="236.05645354431618" cy="518.9871116048246" fill="white" r="2" /><path d="M 497.475779 347.813553 L 503.083047 331.615467 L 513.070018 321.586371 L 522.292244 333.839642 L 533.407405 346.271263 L 544.079272 359.174840 L 553.653614 371.891531" fill="none" stroke="rgb(197,176,213)" stroke-width="5" /><circle cx="497.4757789573929" cy="347.81355262213555" fill="rgb(197,176,213)" r="7" /><circle cx="503.0830474474858" cy="331.61546713408296" fill="rgb(197,176,213)" r="4" /><circle cx="503.0830474474858" cy="331.61546713408296" fill="white" r="2" /><circle cx="513.0700178043764" cy="321.58637135794874" fill="rgb(197,176,213)" r="4" /><circle cx="513.0700178043764" cy="321.58637135794874" fill="white" r="2" /><circle cx="522.2922439469398" cy="333.8396422190802" fill="rgb(197,176,213)" r="4" /><circle cx="522.2922439469398" cy="333.8396422190802" fill="white" r="2" /><circle cx="533.4074051833924" cy="346.271262912311" fill="rgb(197,176,213)" r="4" /><circle cx="533.4074051833924" cy="346.271262912311" fill="white" r="2" /><circle cx="544.0792720098705" cy="359.17483974755356" fill="rgb(197,176,213)" r="4" /><circle cx="544.0792720098705" cy="359.17483974755356" fill="white" r="2" /><circle cx="553.6536139943008" cy="371.89153109199947" fill="rgb(197,176,213)" r="4" /><circle cx="553.6536139943008" cy="371.89153109199947" fill="white" r="2" /><path d="M 316.240615 159.565094 L 318.667447 174.185945 L 321.089252 189.226535 L 323.855571 204.853542 L 326.852050 220.755551 L 330.139569 236.813969 L 333.821403 252.936021 L 338.080269 268.959872 L 343.307414 284.647359 L 350.378606 299.616410 L 339.754445 313.596995 L 328.894882 326.764535 L 317.981769 339.552285 L 306.891483 351.885427 L 295.921189 364.059321 L 284.363539 375.892844 L 273.619718 388.195064 L 270.028915 404.678287" fill="none" stroke="rgb(140,86,75)" stroke-width="5" /><circle cx="316.2406153857093" cy="159.56509421039203" fill="rgb(140,86,75)" r="7" /><circle cx="318.6674472200817" cy="174.1859447401442" fill="rgb(140,86,75)" r="4" /><circle cx="318.6674472200817" cy="174.1859447401442" fill="white" r="2" /><circle cx="321.089251938737" cy="189.22653505459022" fill="rgb(140,86,75)" r="4" /><circle cx="321.089251938737" cy="189.22653505459022" fill="white" r="2" /><circle cx="323.8555711547696" cy="204.85354208179942" fill="rgb(140,86,75)" r="4" /><circle cx="323.8555711547696" cy="204.85354208179942" fill="white" r="2" /><circle cx="326.8520501932494" cy="220.7555508503013" fill="rgb(140,86,75)" r="4" /><circle cx="326.8520501932494" cy="220.7555508503013" fill="white" r="2" /><circle cx="330.1395686848782" cy="236.81396887443387" fill="rgb(140,86,75)" r="4" /><circle cx="330.1395686848782" cy="236.81396887443387" fill="white" r="2" /><circle cx="333.8214033462671" cy="252.93602062129358" fill="rgb(140,86,75)" r="4" /><circle cx="333.8214033462671" cy="252.93602062129358" fill="white" r="2" /><circle cx="338.0802685371977" cy="268.9598723891202" fill="rgb(140,86,75)" r="4" /><circle cx="338.0802685371977" cy="268.9598723891202" fill="white" r="2" /><circle cx="343.30741375383815" cy="284.6473585143446" fill="rgb(140,86,75)" r="4" /><circle cx="343.30741375383815" cy="284.6473585143446" fill="white" r="2" /><circle cx="350.3786060615511" cy="299.61641013110517" fill="rgb(140,86,75)" r="4" /><circle cx="350.3786060615511" cy="299.61641013110517" fill="white" r="2" /><circle cx="339.75444464142913" cy="313.5969952322598" fill="rgb(140,86,75)" r="4" /><circle cx="339.75444464142913" cy="313.5969952322598" fill="white" r="2" /><circle cx="328.89488158562807" cy="326.76453474864377" fill="rgb(140,86,75)" r="4" /><circle cx="328.89488158562807" cy="326.76453474864377" fill="white" r="2" /><circle cx="317.98176919067447" cy="339.5522848945375" fill="rgb(140,86,75)" r="4" /><circle cx="317.98176919067447" cy="339.5522848945375" fill="white" r="2" /><circle cx="306.89148276314927" cy="351.8854267836734" fill="rgb(140,86,75)" r="4" /><circle cx="306.89148276314927" cy="351.8854267836734" fill="white" r="2" /><circle cx="295.92118893944655" cy="364.0593209408346" fill="rgb(140,86,75)" r="4" /><circle cx="295.92118893944655" cy="364.0593209408346" fill="white" r="2" /><circle cx="284.36353891489733" cy="375.89284392368955" fill="rgb(140,86,75)" r="4" /><circle cx="284.36353891489733" cy="375.89284392368955" fill="white" r="2" /><circle cx="273.61971832374195" cy="388.1950636684001" fill="rgb(140,86,75)" r="4" /><circle cx="273.61971832374195" cy="388.1950636684001" fill="white" r="2" /><circle cx="270.0289148174979" cy="404.67828685306205" fill="rgb(140,86,75)" r="4" /><circle cx="270.0289148174979" cy="404.67828685306205" fill="white" r="2" /><path d="M 19.928554 229.728741 L 31.879899 237.057302 L 44.275196 244.296732 L 57.010386 251.506047 L 70.016850 258.742751 L 83.243044 266.057690 L 96.639535 273.493388 L 110.382936 281.139736 L 123.822683 289.045065 L 137.311934 297.177924 L 150.714448 306.030310 L 163.929195 315.063285 L 177.785262 324.269126 L 193.844061 330.839038 L 184.476189 339.336134" fill="none" stroke="rgb(196,156,148)" stroke-width="5" /><circle cx="19.928554303189404" cy="229.72874073646085" fill="rgb(196,156,148)" r="7" /><circle cx="31.87989856661156" cy="237.0573016525298" fill="rgb(196,156,148)" r="4" /><circle cx="31.87989856661156" cy="237.0573016525298" fill="white" r="2" /><circle cx="44.27519574567494" cy="244.29673241653396" fill="rgb(196,156,148)" r="4" /><circle cx="44.27519574567494" cy="244.29673241653396" fill="white" r="2" /><circle cx="57.01038641565091" cy="251.5060468107646" fill="rgb(196,156,148)" r="4" /><circle cx="57.01038641565091" cy="251.5060468107646" fill="white" r="2" /><circle cx="70.01685024391614" cy="258.74275080384837" fill="rgb(196,156,148)" r="4" /><circle cx="70.01685024391614" cy="258.74275080384837" fill="white" r="2" /><circle cx="83.24304405936286" cy="266.05768957823426" fill="rgb(196,156,148)" r="4" /><circle cx="83.24304405936286" cy="266.05768957823426" fill="white" r="2" /><circle cx="96.63953518577384" cy="273.4933876901875" fill="rgb(196,156,148)" r="4" /><circle cx="96.63953518577384" cy="273.4933876901875" fill="white" r="2" /><circle cx="110.38293550715603" cy="281.1397356939109" fill="rgb(196,156,148)" r="4" /><circle cx="110.38293550715603" cy="281.1397356939109" fill="white" r="2" /><circle cx="123.82268304649986" cy="289.0450650990276" fill="rgb(196,156,148)" r="4" /><circle cx="123.82268304649986" cy="289.0450650990276" fill="white" r="2" /><circle cx="137.31193389424038" cy="297.17792438228423" fill="rgb(196,156,148)" r="4" /><circle cx="137.31193389424038" cy="297.17792438228423" fill="white" r="2" /><circle cx="150.71444753395943" cy="306.0303101778367" fill="rgb(196,156,148)" r="4" /><circle cx="150.71444753395943" cy="306.0303101778367" fill="white" r="2" /><circle cx="163.92919469278348" cy="315.0632853265271" fill="rgb(196,156,148)" r="4" /><circle cx="163.92919469278348" cy="315.0632853265271" fill="white" r="2" /><circle cx="177.78526228898343" cy="324.26912561199714" fill="rgb(196,156,148)" r="4" /><circle cx="177.78526228898343" cy="324.26912561199714" fill="white" r="2" /><circle cx="193.84406064936042" cy="330.8390377321149" fill="rgb(196,156,148)" r="4" /><circle cx="193.84406064936042" cy="330.8390377321149" fill="white" r="2" /><circle cx="184.47618854072618" cy="339.33613394023564" fill="rgb(196,156,148)" r="4" /><circle cx="184.47618854072618" cy="339.33613394023564" fill="white" r="2" /><path d="M 119.650971 147.697021 L 129.269560 158.227781 L 137.633535 170.577398 L 146.672793 182.516190 L 155.638965 194.873012 L 164.456791 207.624465 L 173.208670 220.696117 L 181.431415 234.654387 L 189.981148 248.372322 L 198.355196 262.435006 L 206.408632 276.961984 L 213.561254 292.239837 L 218.593332 308.970163 L 221.428720 326.227279 L 222.660640 342.859262 L 231.743306 335.040341 L 237.063429 322.142039 L 238.341006 307.871168" fill="none" stroke="rgb(227,119,194)" stroke-width="5" /><circle cx="119.6509707039053" cy="147.6970211222653" fill="rgb(227,119,194)" r="7" /><circle cx="129.26955964276414" cy="158.22778118155261" fill="rgb(227,119,194)" r="4" /><circle cx="129.26955964276414" cy="158.22778118155261" fill="white" r="2" /><circle cx="137.63353456126006" cy="170.57739753967604" fill="rgb(227,119,194)" r="4" /><circle cx="137.63353456126006" cy="170.57739753967604" fill="white" r="2" /><circle cx="146.67279270145156" cy="182.5161902407414" fill="rgb(227,119,194)" r="4" /><circle cx="146.67279270145156" cy="182.5161902407414" fill="white" r="2" /><circle cx="155.6389650960773" cy="194.87301190422764" fill="rgb(227,119,194)" r="4" /><circle cx="155.6389650960773" cy="194.87301190422764" fill="white" r="2" /><circle cx="164.45679059642546" cy="207.62446526211312" fill="rgb(227,119,194)" r="4" /><circle cx="164.45679059642546" cy="207.62446526211312" fill="white" r="2" /><circle cx="173.20866984684193" cy="220.69611736266347" fill="rgb(227,119,194)" r="4" /><circle cx="173.20866984684193" cy="220.69611736266347" fill="white" r="2" /><circle cx="181.4314151468594" cy="234.65438745654495" fill="rgb(227,119,194)" r="4" /><circle cx="181.4314151468594" cy="234.65438745654495" fill="white" r="2" /><circle cx="189.98114755660276" cy="248.37232183774722" fill="rgb(227,119,194)" r="4" /><circle cx="189.98114755660276" cy="248.37232183774722" fill="white" r="2" /><circle cx="198.3551957625691" cy="262.4350064838677" fill="rgb(227,119,194)" r="4" /><circle cx="198.3551957625691" cy="262.4350064838677" fill="white" r="2" /><circle cx="206.40863205236838" cy="276.96198372164577" fill="rgb(227,119,194)" r="4" /><circle cx="206.40863205236838" cy="276.96198372164577" fill="white" r="2" /><circle cx="213.5612541000656" cy="292.23983695235347" fill="rgb(227,119,194)" r="4" /><circle cx="213.5612541000656" cy="292.23983695235347" fill="white" r="2" /><circle cx="218.59333222965202" cy="308.9701633408957" fill="rgb(227,119,194)" r="4" /><circle cx="218.59333222965202" cy="308.9701633408957" fill="white" r="2" /><circle cx="221.42871985255243" cy="326.2272789819615" fill="rgb(227,119,194)" r="4" /><circle cx="221.42871985255243" cy="326.2272789819615" fill="white" r="2" /><circle cx="222.66063961052993" cy="342.8592618835483" fill="rgb(227,119,194)" r="4" /><circle cx="222.66063961052993" cy="342.8592618835483" fill="white" r="2" /><circle cx="231.7433057164541" cy="335.04034119510567" fill="rgb(227,119,194)" r="4" /><circle cx="231.7433057164541" cy="335.04034119510567" fill="white" r="2" /><circle cx="237.06342873227126" cy="322.1420388060539" fill="rgb(227,119,194)" r="4" /><circle cx="237.06342873227126" cy="322.1420388060539" fill="white" r="2" /><circle cx="238.3410059538333" cy="307.87116759485025" fill="rgb(227,119,194)" r="4" /><circle cx="238.3410059538333" cy="307.87116759485025" fill="white" r="2" /><path d="M 10.000000 399.649896 L 24.396490 397.009233 L 38.547911 392.626124 L 53.145264 389.807723 L 68.025165 387.959487 L 83.433439 386.430033 L 99.239545 385.491215 L 115.489248 385.730014 L 132.036814 387.915826 L 148.352134 393.072016 L 162.403052 404.584559 L 178.132522 398.977707 L 194.005451 392.929656 L 209.845919 387.028424 L 225.208714 380.616228 L 239.210098 372.744642 L 232.060627 357.134281 L 222.660640 342.859262 L 207.970581 338.976680 L 193.844061 330.839038 L 193.864745 317.600007 L 189.399872 304.085427" fill="none" stroke="rgb(247,182,210)" stroke-width="5" /><circle cx="10.0" cy="399.64989602164167" fill="rgb(247,182,210)" r="7" /><circle cx="24.396490084070464" cy="397.00923274234486" fill="rgb(247,182,210)" r="4" /><circle cx="24.396490084070464" cy="397.00923274234486" fill="white" r="2" /><circle cx="38.547910789588364" cy="392.62612423470944" fill="rgb(247,182,210)" r="4" /><circle cx="38.547910789588364" cy="392.62612423470944" fill="white" r="2" /><circle cx="53.14526389498542" cy="389.80772275591704" fill="rgb(247,182,210)" r="4" /><circle cx="53.14526389498542" cy="389.80772275591704" fill="white" r="2" /><circle cx="68.02516522466082" cy="387.9594872253387" fill="rgb(247,182,210)" r="4" /><circle cx="68.02516522466082" cy="387.9594872253387" fill="white" r="2" /><circle cx="83.43343881554345" cy="386.4300331833014" fill="rgb(247,182,210)" r="4" /><circle cx="83.43343881554345" cy="386.4300331833014" fill="white" r="2" /><circle cx="99.23954492158279" cy="385.49121526495634" fill="rgb(247,182,210)" r="4" /><circle cx="99.23954492158279" cy="385.49121526495634" fill="white" r="2" /><circle cx="115.48924803752502" cy="385.7300138868547" fill="rgb(247,182,210)" r="4" /><circle cx="115.48924803752502" cy="385.7300138868547" fill="white" r="2" /><circle cx="132.03681378253276" cy="387.9158263555353" fill="rgb(247,182,210)" r="4" /><circle cx="132.03681378253276" cy="387.9158263555353" fill="white" r="2" /><circle cx="148.35213410356272" cy="393.0720157366763" fill="rgb(247,182,210)" r="4" /><circle cx="148.35213410356272" cy="393.0720157366763" fill="white" r="2" /><circle cx="162.4030524619167" cy="404.58455941218193" fill="rgb(247,182,210)" r="4" /><circle cx="162.4030524619167" cy="404.58455941218193" fill="white" r="2" /><circle cx="178.1325220202681" cy="398.97770703194453" fill="rgb(247,182,210)" r="4" /><circle cx="178.1325220202681" cy="398.97770703194453" fill="white" r="2" /><circle cx="194.00545071330558" cy="392.92965578362237" fill="rgb(247,182,210)" r="4" /><circle cx="194.00545071330558" cy="392.92965578362237" fill="white" r="2" /><circle cx="209.8459194010713" cy="387.0284240605558" fill="rgb(247,182,210)" r="4" /><circle cx="209.8459194010713" cy="387.0284240605558" fill="white" r="2" /><circle cx="225.20871381493518" cy="380.616227972184" fill="rgb(247,182,210)" r="4" /><circle cx="225.20871381493518" cy="380.616227972184" fill="white" r="2" /><circle cx="239.21009833604768" cy="372.74464161692737" fill="rgb(247,182,210)" r="4" /><circle cx="239.21009833604768" cy="372.74464161692737" fill="white" r="2" /><circle cx="232.0606269676842" cy="357.13428141644664" fill="rgb(247,182,210)" r="4" /><circle cx="232.0606269676842" cy="357.13428141644664" fill="white" r="2" /><circle cx="222.66063961052993" cy="342.8592618835483" fill="rgb(247,182,210)" r="4" /><circle cx="222.66063961052993" cy="342.8592618835483" fill="white" r="2" /><circle cx="207.97058142894792" cy="338.97667981107116" fill="rgb(247,182,210)" r="4" /><circle cx="207.97058142894792" cy="338.97667981107116" fill="white" r="2" /><circle cx="193.84406064936042" cy="330.8390377321149" fill="rgb(247,182,210)" r="4" /><circle cx="193.84406064936042" cy="330.8390377321149" fill="white" r="2" /><circle cx="193.86474526164818" cy="317.6000068681048" fill="rgb(247,182,210)" r="4" /><circle cx="193.86474526164818" cy="317.6000068681048" fill="white" r="2" /><circle cx="189.39987177962527" cy="304.0854269226854" fill="rgb(247,182,210)" r="4" /><circle cx="189.39987177962527" cy="304.0854269226854" fill="white" r="2" /><path d="M 51.452138 516.945586 L 62.619085 507.815469 L 74.068064 498.906805" fill="none" stroke="rgb(127,127,127)" stroke-width="5" /><circle cx="51.452137812826926" cy="516.9455864588006" fill="rgb(127,127,127)" r="7" /><circle cx="62.619084755295326" cy="507.81546861306373" fill="rgb(127,127,127)" r="4" /><circle cx="62.619084755295326" cy="507.81546861306373" fill="white" r="2" /><circle cx="74.06806374365681" cy="498.90680512277527" fill="rgb(127,127,127)" r="4" /><circle cx="74.06806374365681" cy="498.90680512277527" fill="white" r="2" /><path d="M 270.939556 423.036403 L 270.028915 404.678287 L 279.043556 407.211858" fill="none" stroke="rgb(199,199,199)" stroke-width="5" /><circle cx="270.93955597963685" cy="423.0364030652128" fill="rgb(199,199,199)" r="7" /><circle cx="270.0289148174979" cy="404.67828685306205" fill="rgb(199,199,199)" r="4" /><circle cx="270.0289148174979" cy="404.67828685306205" fill="white" r="2" /><circle cx="279.0435559675108" cy="407.21185840630295" fill="rgb(199,199,199)" r="4" /><circle cx="279.0435559675108" cy="407.21185840630295" fill="white" r="2" /><path d="M 111.822625 420.147785 L 125.787439 415.658014 L 139.510712 411.266973 L 152.823030 407.690109 L 162.403052 404.584559 L 156.979699 422.362246 L 146.455425 436.302044 L 134.441464 448.610011 L 122.164058 459.678931 L 109.674351 469.880664 L 97.533767 480.006549 L 85.738772 489.676578 L 74.068064 498.906805" fill="none" stroke="rgb(188,189,34)" stroke-width="5" /><circle cx="111.82262492226377" cy="420.14778489448923" fill="rgb(188,189,34)" r="7" /><circle cx="125.78743921880174" cy="415.6580137105841" fill="rgb(188,189,34)" r="4" /><circle cx="125.78743921880174" cy="415.6580137105841" fill="white" r="2" /><circle cx="139.5107119127999" cy="411.26697335527575" fill="rgb(188,189,34)" r="4" /><circle cx="139.5107119127999" cy="411.26697335527575" fill="white" r="2" /><circle cx="152.82303008334586" cy="407.6901088030404" fill="rgb(188,189,34)" r="4" /><circle cx="152.82303008334586" cy="407.6901088030404" fill="white" r="2" /><circle cx="162.4030524619167" cy="404.58455941218193" fill="rgb(188,189,34)" r="4" /><circle cx="162.4030524619167" cy="404.58455941218193" fill="white" r="2" /><circle cx="156.97969894376033" cy="422.36224566804486" fill="rgb(188,189,34)" r="4" /><circle cx="156.97969894376033" cy="422.36224566804486" fill="white" r="2" /><circle cx="146.45542498959534" cy="436.3020436238577" fill="rgb(188,189,34)" r="4" /><circle cx="146.45542498959534" cy="436.3020436238577" fill="white" r="2" /><circle cx="134.44146354983016" cy="448.61001109153096" fill="rgb(188,189,34)" r="4" /><circle cx="134.44146354983016" cy="448.61001109153096" fill="white" r="2" /><circle cx="122.16405773923837" cy="459.6789313477886" fill="rgb(188,189,34)" r="4" /><circle cx="122.16405773923837" cy="459.6789313477886" fill="white" r="2" /><circle cx="109.67435063969921" cy="469.8806641619212" fill="rgb(188,189,34)" r="4" /><circle cx="109.67435063969921" cy="469.8806641619212" fill="white" r="2" /><circle cx="97.53376683862456" cy="480.0065494112367" fill="rgb(188,189,34)" r="4" /><circle cx="97.53376683862456" cy="480.0065494112367" fill="white" r="2" /><circle cx="85.73877177956051" cy="489.6765777789182" fill="rgb(188,189,34)" r="4" /><circle cx="85.73877177956051" cy="489.6765777789182" fill="white" r="2" /><circle cx="74.06806374365681" cy="498.90680512277527" fill="rgb(188,189,34)" r="4" /><circle cx="74.06806374365681" cy="498.90680512277527" fill="white" r="2" /><path d="M 511.465905 219.203461 L 510.507196 234.167608 L 509.406473 249.947356 L 507.998288 265.891111 L 506.300374 282.063324 L 504.455550 298.655958 L 502.460415 316.498168 L 503.083047 331.615467" fill="none" stroke="rgb(219,219,141)" stroke-width="5" /><circle cx="511.46590483153295" cy="219.20346080377576" fill="rgb(219,219,141)" r="7" /><circle cx="510.5071955922749" cy="234.16760787726253" fill="rgb(219,219,141)" r="4" /><circle cx="510.5071955922749" cy="234.16760787726253" fill="white" r="2" /><circle cx="509.4064733286573" cy="249.94735642039436" fill="rgb(219,219,141)" r="4" /><circle cx="509.4064733286573" cy="249.94735642039436" fill="white" r="2" /><circle cx="507.9982882361952" cy="265.89111113171293" fill="rgb(219,219,141)" r="4" /><circle cx="507.9982882361952" cy="265.89111113171293" fill="white" r="2" /><circle cx="506.3003739330182" cy="282.0633235977621" fill="rgb(219,219,141)" r="4" /><circle cx="506.3003739330182" cy="282.0633235977621" fill="white" r="2" /><circle cx="504.4555502805252" cy="298.6559581616613" fill="rgb(219,219,141)" r="4" /><circle cx="504.4555502805252" cy="298.6559581616613" fill="white" r="2" /><circle cx="502.4604152734268" cy="316.4981684795098" fill="rgb(219,219,141)" r="4" /><circle cx="502.4604152734268" cy="316.4981684795098" fill="white" r="2" /><circle cx="503.0830474474858" cy="331.61546713408296" fill="rgb(219,219,141)" r="4" /><circle cx="503.0830474474858" cy="331.61546713408296" fill="white" r="2" /><path d="M 350.378606 299.616410 L 366.877530 295.446112" fill="none" stroke="rgb(23,190,207)" stroke-width="5" /><circle cx="350.3786060615511" cy="299.61641013110517" fill="rgb(23,190,207)" r="7" /><circle cx="366.8775302003846" cy="295.4461115268378" fill="rgb(23,190,207)" r="4" /><circle cx="366.8775302003846" cy="295.4461115268378" fill="white" r="2" /><path d="M 244.759979 438.665410 L 255.099394 443.641845" fill="none" stroke="rgb(158,218,229)" stroke-width="5" /><circle cx="244.75997902727335" cy="438.6654099892968" fill="rgb(158,218,229)" r="7" /><circle cx="255.09939437813864" cy="443.6418447189387" fill="rgb(158,218,229)" r="4" /><circle cx="255.09939437813864" cy="443.6418447189387" fill="white" r="2" /><path d="M 356.188362 418.488518 L 339.758660 411.138946 L 323.460060 403.959644 L 307.011142 397.446978 L 290.045109 391.654452 L 273.619718 388.195064 L 256.417797 381.707193 L 254.976312 373.778693" fill="none" stroke="rgb(31,119,180)" stroke-width="5" /><circle cx="356.18836234750285" cy="418.4885182123537" fill="rgb(31,119,180)" r="7" /><circle cx="339.7586602322386" cy="411.1389462144611" fill="rgb(31,119,180)" r="4" /><circle cx="339.7586602322386" cy="411.1389462144611" fill="white" r="2" /><circle cx="323.46005993695735" cy="403.95964367565296" fill="rgb(31,119,180)" r="4" /><circle cx="323.46005993695735" cy="403.95964367565296" fill="white" r="2" /><circle cx="307.01114218810454" cy="397.4469778303505" fill="rgb(31,119,180)" r="4" /><circle cx="307.01114218810454" cy="397.4469778303505" fill="white" r="2" /><circle cx="290.0451092035404" cy="391.6544521288602" fill="rgb(31,119,180)" r="4" /><circle cx="290.0451092035404" cy="391.6544521288602" fill="white" r="2" /><circle cx="273.61971832374195" cy="388.1950636684001" fill="rgb(31,119,180)" r="4" /><circle cx="273.61971832374195" cy="388.1950636684001" fill="white" r="2" /><circle cx="256.4177972259256" cy="381.707193261951" fill="rgb(31,119,180)" r="4" /><circle cx="256.4177972259256" cy="381.707193261951" fill="white" r="2" /><circle cx="254.97631236546485" cy="373.77869332295745" fill="rgb(31,119,180)" r="4" /><circle cx="254.97631236546485" cy="373.77869332295745" fill="white" r="2" /><path d="M 260.150970 452.867326 L 255.099394 443.641845" fill="none" stroke="rgb(174,199,232)" stroke-width="5" /><circle cx="260.15097001275865" cy="452.8673258637155" fill="rgb(174,199,232)" r="7" /><circle cx="255.09939437813864" cy="443.6418447189387" fill="rgb(174,199,232)" r="4" /><circle cx="255.09939437813864" cy="443.6418447189387" fill="white" r="2" /><path d="M 413.455580 340.581713 L 406.085023 329.569459 L 398.607138 319.291751 L 391.302582 309.576329 L 386.356365 298.986324 L 383.127338 288.622818 L 366.877530 295.446112" fill="none" stroke="rgb(255,127,14)" stroke-width="5" /><circle cx="413.4555796474249" cy="340.5817126043181" fill="rgb(255,127,14)" r="7" /><circle cx="406.0850226566109" cy="329.56945887844296" fill="rgb(255,127,14)" r="4" /><circle cx="406.0850226566109" cy="329.56945887844296" fill="white" r="2" /><circle cx="398.6071378457635" cy="319.2917508085473" fill="rgb(255,127,14)" r="4" /><circle cx="398.6071378457635" cy="319.2917508085473" fill="white" r="2" /><circle cx="391.30258187572025" cy="309.576328537218" fill="rgb(255,127,14)" r="4" /><circle cx="391.30258187572025" cy="309.576328537218" fill="white" r="2" /><circle cx="386.3563650376849" cy="298.98632397586147" fill="rgb(255,127,14)" r="4" /><circle cx="386.3563650376849" cy="298.98632397586147" fill="white" r="2" /><circle cx="383.1273383611766" cy="288.62281786084367" fill="rgb(255,127,14)" r="4" /><circle cx="383.1273383611766" cy="288.62281786084367" fill="white" r="2" /><circle cx="366.8775302003846" cy="295.4461115268378" fill="rgb(255,127,14)" r="4" /><circle cx="366.8775302003846" cy="295.4461115268378" fill="white" r="2" /><path d="M 288.718190 413.981619 L 279.043556 407.211858" fill="none" stroke="rgb(255,187,120)" stroke-width="5" /><circle cx="288.7181896097176" cy="413.98161886436657" fill="rgb(255,187,120)" r="7" /><circle cx="279.0435559675108" cy="407.21185840630295" fill="rgb(255,187,120)" r="4" /><circle cx="279.0435559675108" cy="407.21185840630295" fill="white" r="2" /><path d="M 599.046074 127.081244 L 598.015320 141.748431 L 597.337194 156.716920 L 596.955618 171.970866 L 596.293849 187.496866 L 595.598904 203.221369 L 594.890341 219.098598 L 594.249810 235.097804 L 594.008926 251.231959 L 595.330814 267.975888 L 611.553461 271.678948 L 627.076057 272.854528 L 642.344957 273.440371 L 657.422429 272.600318 L 672.359231 271.081455 L 687.314059 269.704380 L 702.503975 266.997493 L 718.714947 266.412421 L 727.397545 252.128061 L 736.868448 239.254616 L 746.769759 227.312260 L 756.631665 215.248874 L 766.621067 202.280315 L 782.217104 203.831555 L 797.224639 202.990318 L 811.670331 200.198455 L 825.544348 195.593086 L 839.691126 192.282032 L 852.985433 187.037483 L 865.801638 181.043134 L 878.214485 174.478878 L 890.295710 167.494775 L 902.072151 160.108945 L 913.621684 152.488333 L 924.948919 144.592525 L 936.085984 136.485588 L 947.084586 128.245243 L 957.980786 119.923819 L 968.784885 111.531003 L 979.513788 103.095809 L 990.189613 94.653770 L 1000.889535 86.337342 L 1011.439081 77.840107 L 1021.853946 69.360594 L 1030.000000 58.121964" fill="none" stroke="rgb(44,160,44)" stroke-width="5" /><circle cx="599.0460742468857" cy="127.08124357016806" fill="rgb(44,160,44)" r="7" /><circle cx="598.0153200297075" cy="141.7484305427846" fill="rgb(44,160,44)" r="4" /><circle cx="598.0153200297075" cy="141.7484305427846" fill="white" r="2" /><circle cx="597.3371938563753" cy="156.71692042186388" fill="rgb(44,160,44)" r="4" /><circle cx="597.3371938563753" cy="156.71692042186388" fill="white" r="2" /><circle cx="596.9556177357516" cy="171.9708664625333" fill="rgb(44,160,44)" r="4" /><circle cx="596.9556177357516" cy="171.9708664625333" fill="white" r="2" /><circle cx="596.2938494323308" cy="187.49686598502421" fill="rgb(44,160,44)" r="4" /><circle cx="596.2938494323308" cy="187.49686598502421" fill="white" r="2" /><circle cx="595.5989036745086" cy="203.22136864711405" fill="rgb(44,160,44)" r="4" /><circle cx="595.5989036745086" cy="203.22136864711405" fill="white" r="2" /><circle cx="594.8903414509332" cy="219.0985975960666" fill="rgb(44,160,44)" r="4" /><circle cx="594.8903414509332" cy="219.0985975960666" fill="white" r="2" /><circle cx="594.2498096657467" cy="235.09780373340243" fill="rgb(44,160,44)" r="4" /><circle cx="594.2498096657467" cy="235.09780373340243" fill="white" r="2" /><circle cx="594.0089263990278" cy="251.23195910767214" fill="rgb(44,160,44)" r="4" /><circle cx="594.0089263990278" cy="251.23195910767214" fill="white" r="2" /><circle cx="595.3308141486285" cy="267.97588831353954" fill="rgb(44,160,44)" r="4" /><circle cx="595.3308141486285" cy="267.97588831353954" fill="white" r="2" /><circle cx="611.5534614256833" cy="271.67894752765847" fill="rgb(44,160,44)" r="4" /><circle cx="611.5534614256833" cy="271.67894752765847" fill="white" r="2" /><circle cx="627.0760565591468" cy="272.85452794145533" fill="rgb(44,160,44)" r="4" /><circle cx="627.0760565591468" cy="272.85452794145533" fill="white" r="2" /><circle cx="642.3449574876727" cy="273.4403712642631" fill="rgb(44,160,44)" r="4" /><circle cx="642.3449574876727" cy="273.4403712642631" fill="white" r="2" /><circle cx="657.4224291893569" cy="272.6003176914855" fill="rgb(44,160,44)" r="4" /><circle cx="657.4224291893569" cy="272.6003176914855" fill="white" r="2" /><circle cx="672.3592312967651" cy="271.08145453798386" fill="rgb(44,160,44)" r="4" /><circle cx="672.3592312967651" cy="271.08145453798386" fill="white" r="2" /><circle cx="687.3140591398056" cy="269.70437957563297" fill="rgb(44,160,44)" r="4" /><circle cx="687.3140591398056" cy="269.70437957563297" fill="white" r="2" /><circle cx="702.5039751140497" cy="266.99749334358705" fill="rgb(44,160,44)" r="4" /><circle cx="702.5039751140497" cy="266.99749334358705" fill="white" r="2" /><circle cx="718.7149465432924" cy="266.4124211790656" fill="rgb(44,160,44)" r="4" /><circle cx="718.7149465432924" cy="266.4124211790656" fill="white" r="2" /><circle cx="727.3975453168434" cy="252.12806133789124" fill="rgb(44,160,44)" r="4" /><circle cx="727.3975453168434" cy="252.12806133789124" fill="white" r="2" /><circle cx="736.8684476955611" cy="239.2546155026305" fill="rgb(44,160,44)" r="4" /><circle cx="736.8684476955611" cy="239.2546155026305" fill="white" r="2" /><circle cx="746.7697592918386" cy="227.31225973346892" fill="rgb(44,160,44)" r="4" /><circle cx="746.7697592918386" cy="227.31225973346892" fill="white" r="2" /><circle cx="756.631664838944" cy="215.24887365124846" fill="rgb(44,160,44)" r="4" /><circle cx="756.631664838944" cy="215.24887365124846" fill="white" r="2" /><circle cx="766.6210673148739" cy="202.28031460713683" fill="rgb(44,160,44)" r="4" /><circle cx="766.6210673148739" cy="202.28031460713683" fill="white" r="2" /><circle cx="782.2171039558923" cy="203.83155518586543" fill="rgb(44,160,44)" r="4" /><circle cx="782.2171039558923" cy="203.83155518586543" fill="white" r="2" /><circle cx="797.2246388296585" cy="202.99031793607463" fill="rgb(44,160,44)" r="4" /><circle cx="797.2246388296585" cy="202.99031793607463" fill="white" r="2" /><circle cx="811.6703307665534" cy="200.19845489961708" fill="rgb(44,160,44)" r="4" /><circle cx="811.6703307665534" cy="200.19845489961708" fill="white" r="2" /><circle cx="825.5443482396154" cy="195.5930861026179" fill="rgb(44,160,44)" r="4" /><circle cx="825.5443482396154" cy="195.5930861026179" fill="white" r="2" /><circle cx="839.6911262075071" cy="192.28203229464344" fill="rgb(44,160,44)" r="4" /><circle cx="839.6911262075071" cy="192.28203229464344" fill="white" r="2" /><circle cx="852.9854326111462" cy="187.03748344302014" fill="rgb(44,160,44)" r="4" /><circle cx="852.9854326111462" cy="187.03748344302014" fill="white" r="2" /><circle cx="865.801638048326" cy="181.04313448254433" fill="rgb(44,160,44)" r="4" /><circle cx="865.801638048326" cy="181.04313448254433" fill="white" r="2" /><circle cx="878.2144846497773" cy="174.4788778050943" fill="rgb(44,160,44)" r="4" /><circle cx="878.2144846497773" cy="174.4788778050943" fill="white" r="2" /><circle cx="890.2957104550318" cy="167.4947753478911" fill="rgb(44,160,44)" r="4" /><circle cx="890.2957104550318" cy="167.4947753478911" fill="white" r="2" /><circle cx="902.0721510731471" cy="160.10894504111684" fill="rgb(44,160,44)" r="4" /><circle cx="902.0721510731471" cy="160.10894504111684" fill="white" r="2" /><circle cx="913.6216837129545" cy="152.48833306860834" fill="rgb(44,160,44)" r="4" /><circle cx="913.6216837129545" cy="152.48833306860834" fill="white" r="2" /><circle cx="924.9489191300488" cy="144.5925250466483" fill="rgb(44,160,44)" r="4" /><circle cx="924.9489191300488" cy="144.5925250466483" fill="white" r="2" /><circle cx="936.0859842241155" cy="136.48558816937356" fill="rgb(44,160,44)" r="4" /><circle cx="936.0859842241155" cy="136.48558816937356" fill="white" r="2" /><circle cx="947.0845864883262" cy="128.24524255551648" fill="rgb(44,160,44)" r="4" /><circle cx="947.0845864883262" cy="128.24524255551648" fill="white" r="2" /><circle cx="957.9807864274969" cy="119.92381907591444" fill="rgb(44,160,44)" r="4" /><circle cx="957.9807864274969" cy="119.92381907591444" fill="white" r="2" /><circle cx="968.7848848438596" cy="111.53100259188153" fill="rgb(44,160,44)" r="4" /><circle cx="968.7848848438596" cy="111.53100259188153" fill="white" r="2" /><circle cx="979.5137881851095" cy="103.09580881842469" fill="rgb(44,160,44)" r="4" /><circle cx="979.5137881851095" cy="103.09580881842469" fill="white" r="2" /><circle cx="990.189612562249" cy="94.65376991885508" fill="rgb(44,160,44)" r="4" /><circle cx="990.189612562249" cy="94.65376991885508" fill="white" r="2" /><circle cx="1000.8895351398337" cy="86.3373420306431" fill="rgb(44,160,44)" r="4" /><circle cx="1000.8895351398337" cy="86.3373420306431" fill="white" r="2" /><circle cx="1011.4390806778896" cy="77.84010701338673" fill="rgb(44,160,44)" r="4" /><circle cx="1011.4390806778896" cy="77.84010701338673" fill="white" r="2" /><circle cx="1021.8539458072713" cy="69.36059362836272" fill="rgb(44,160,44)" r="4" /><circle cx="1021.8539458072713" cy="69.36059362836272" fill="white" r="2" /><circle cx="1030.0" cy="58.12196364692522" fill="rgb(44,160,44)" r="4" /><circle cx="1030.0" cy="58.12196364692522" fill="white" r="2" /><path d="M 535.606014 320.784127 L 527.752726 312.456039" fill="none" stroke="rgb(152,223,138)" stroke-width="5" /><circle cx="535.6060135262322" cy="320.78412704291304" fill="rgb(152,223,138)" r="7" /><circle cx="527.7527257668517" cy="312.4560389353243" fill="rgb(152,223,138)" r="4" /><circle cx="527.7527257668517" cy="312.4560389353243" fill="white" r="2" /><path d="M 242.525390 505.693822 L 256.237267 498.014778 L 270.457048 493.915505 L 272.823722 510.851039 L 281.416071 524.302306 L 283.533935 540.558619 L 283.692134 557.354969 L 292.974565 568.522439 L 296.939293 583.015939 L 284.582886 585.669171" fill="none" stroke="rgb(214,39,40)" stroke-width="5" /><circle cx="242.52538993261425" cy="505.6938219646685" fill="rgb(214,39,40)" r="7" /><circle cx="256.2372670491247" cy="498.0147775195683" fill="rgb(214,39,40)" r="4" /><circle cx="256.2372670491247" cy="498.0147775195683" fill="white" r="2" /><circle cx="270.4570475391446" cy="493.9155054347029" fill="rgb(214,39,40)" r="4" /><circle cx="270.4570475391446" cy="493.9155054347029" fill="white" r="2" /><circle cx="272.8237215370197" cy="510.85103853792066" fill="rgb(214,39,40)" r="4" /><circle cx="272.8237215370197" cy="510.85103853792066" fill="white" r="2" /><circle cx="281.4160711854094" cy="524.302305684685" fill="rgb(214,39,40)" r="4" /><circle cx="281.4160711854094" cy="524.302305684685" fill="white" r="2" /><circle cx="283.53393492199314" cy="540.5586187956395" fill="rgb(214,39,40)" r="4" /><circle cx="283.53393492199314" cy="540.5586187956395" fill="white" r="2" /><circle cx="283.6921343821029" cy="557.3549692871956" fill="rgb(214,39,40)" r="4" /><circle cx="283.6921343821029" cy="557.3549692871956" fill="white" r="2" /><circle cx="292.97456541369553" cy="568.5224392187268" fill="rgb(214,39,40)" r="4" /><circle cx="292.97456541369553" cy="568.5224392187268" fill="white" r="2" /><circle cx="296.93929263319967" cy="583.0159391079782" fill="rgb(214,39,40)" r="4" /><circle cx="296.93929263319967" cy="583.0159391079782" fill="white" r="2" /><circle cx="284.582886429107" cy="585.669171480411" fill="rgb(214,39,40)" r="4" /><circle cx="284.582886429107" cy="585.669171480411" fill="white" r="2" /><path d="M 383.127338 288.622818 L 399.738775 282.487531" fill="none" stroke="rgb(255,152,150)" stroke-width="5" /><circle cx="383.1273383611766" cy="288.62281786084367" fill="rgb(255,152,150)" r="7" /><circle cx="399.7387753338144" cy="282.48753124685544" fill="rgb(255,152,150)" r="4" /><circle cx="399.7387753338144" cy="282.48753124685544" fill="white" r="2" /><path d="M 264.318139 601.507373 L 267.537143 586.412347 L 276.073265 572.696572 L 284.582886 585.669171" fill="none" stroke="rgb(148,103,189)" stroke-width="5" /><circle cx="264.3181391616332" cy="601.5073732881917" fill="rgb(148,103,189)" r="7" /><circle cx="267.5371434910723" cy="586.4123472462654" fill="rgb(148,103,189)" r="4" /><circle cx="267.5371434910723" cy="586.4123472462654" fill="white" r="2" /><circle cx="276.07326472316026" cy="572.6965720529407" fill="rgb(148,103,189)" r="4" /><circle cx="276.07326472316026" cy="572.6965720529407" fill="white" r="2" /><circle cx="284.582886429107" cy="585.669171480411" fill="rgb(148,103,189)" r="4" /><circle cx="284.582886429107" cy="585.669171480411" fill="white" r="2" /><path d="M 766.621067 202.280315 L 763.420032 186.539486 L 762.938864 170.882074 L 763.895013 155.624667 L 765.643907 140.719038 L 767.857530 126.234230" fill="none" stroke="rgb(197,176,213)" stroke-width="5" /><circle cx="766.6210673148739" cy="202.28031460713683" fill="rgb(197,176,213)" r="7" /><circle cx="763.4200320878525" cy="186.53948596692766" fill="rgb(197,176,213)" r="4" /><circle cx="763.4200320878525" cy="186.53948596692766" fill="white" r="2" /><circle cx="762.938863738375" cy="170.88207406392155" fill="rgb(197,176,213)" r="4" /><circle cx="762.938863738375" cy="170.88207406392155" fill="white" r="2" /><circle cx="763.8950127772854" cy="155.62466688953947" fill="rgb(197,176,213)" r="4" /><circle cx="763.8950127772854" cy="155.62466688953947" fill="white" r="2" /><circle cx="765.643907035065" cy="140.71903762878102" fill="rgb(197,176,213)" r="4" /><circle cx="765.643907035065" cy="140.71903762878102" fill="white" r="2" /><circle cx="767.8575295652563" cy="126.23423015475626" fill="rgb(197,176,213)" r="4" /><circle cx="767.8575295652563" cy="126.23423015475626" fill="white" r="2" /><path d="M 505.646887 392.362938 L 498.043802 378.350426 L 488.362352 362.118956 L 474.129215 370.435880 L 462.389559 381.222235 L 449.469565 390.495433 L 435.020868 397.318768 L 419.545931 402.016735 L 403.576825 405.548435 L 387.401075 407.901808 L 371.315729 411.555882 L 356.188362 418.488518 L 361.985066 434.756823 L 369.584495 450.389980 L 377.403744 465.742546 L 385.096532 480.981600 L 392.516396 496.121006 L 399.588177 511.141106 L 406.272706 526.012993 L 412.554714 540.706738 L 418.436341 555.188429 L 423.928253 569.413536 L 429.019786 583.313550" fill="none" stroke="rgb(140,86,75)" stroke-width="5" /><circle cx="505.64688731200437" cy="392.36293793275604" fill="rgb(140,86,75)" r="7" /><circle cx="498.0438017421465" cy="378.35042636094846" fill="rgb(140,86,75)" r="4" /><circle cx="498.0438017421465" cy="378.35042636094846" fill="white" r="2" /><circle cx="488.36235162839563" cy="362.1189558488177" fill="rgb(140,86,75)" r="4" /><circle cx="488.36235162839563" cy="362.1189558488177" fill="white" r="2" /><circle cx="474.12921488258553" cy="370.43587994171037" fill="rgb(140,86,75)" r="4" /><circle cx="474.12921488258553" cy="370.43587994171037" fill="white" r="2" /><circle cx="462.3895594414025" cy="381.22223514300526" fill="rgb(140,86,75)" r="4" /><circle cx="462.3895594414025" cy="381.22223514300526" fill="white" r="2" /><circle cx="449.4695645789423" cy="390.49543273337554" fill="rgb(140,86,75)" r="4" /><circle cx="449.4695645789423" cy="390.49543273337554" fill="white" r="2" /><circle cx="435.02086762673275" cy="397.31876764829" fill="rgb(140,86,75)" r="4" /><circle cx="435.02086762673275" cy="397.31876764829" fill="white" r="2" /><circle cx="419.5459311392392" cy="402.01673494878605" fill="rgb(140,86,75)" r="4" /><circle cx="419.5459311392392" cy="402.01673494878605" fill="white" r="2" /><circle cx="403.57682549935623" cy="405.54843508316475" fill="rgb(140,86,75)" r="4" /><circle cx="403.57682549935623" cy="405.54843508316475" fill="white" r="2" /><circle cx="387.40107476331707" cy="407.90180840967037" fill="rgb(140,86,75)" r="4" /><circle cx="387.40107476331707" cy="407.90180840967037" fill="white" r="2" /><circle cx="371.3157293526287" cy="411.5558821619152" fill="rgb(140,86,75)" r="4" /><circle cx="371.3157293526287" cy="411.5558821619152" fill="white" r="2" /><circle cx="356.18836234750285" cy="418.4885182123537" fill="rgb(140,86,75)" r="4" /><circle cx="356.18836234750285" cy="418.4885182123537" fill="white" r="2" /><circle cx="361.98506551814404" cy="434.75682323508977" fill="rgb(140,86,75)" r="4" /><circle cx="361.98506551814404" cy="434.75682323508977" fill="white" r="2" /><circle cx="369.5844952966874" cy="450.38997957556336" fill="rgb(140,86,75)" r="4" /><circle cx="369.5844952966874" cy="450.38997957556336" fill="white" r="2" /><circle cx="377.4037436784476" cy="465.74254621794546" fill="rgb(140,86,75)" r="4" /><circle cx="377.4037436784476" cy="465.74254621794546" fill="white" r="2" /><circle cx="385.0965322910874" cy="480.9815999416896" fill="rgb(140,86,75)" r="4" /><circle cx="385.0965322910874" cy="480.9815999416896" fill="white" r="2" /><circle cx="392.51639596870916" cy="496.1210063726681" fill="rgb(140,86,75)" r="4" /><circle cx="392.51639596870916" cy="496.1210063726681" fill="white" r="2" /><circle cx="399.5881766857475" cy="511.14110587014613" fill="rgb(140,86,75)" r="4" /><circle cx="399.5881766857475" cy="511.14110587014613" fill="white" r="2" /><circle cx="406.2727064282327" cy="526.012992985596" fill="rgb(140,86,75)" r="4" /><circle cx="406.2727064282327" cy="526.012992985596" fill="white" r="2" /><circle cx="412.55471371441604" cy="540.7067378022583" fill="rgb(140,86,75)" r="4" /><circle cx="412.55471371441604" cy="540.7067378022583" fill="white" r="2" /><circle cx="418.43634057219816" cy="555.1884294009812" fill="rgb(140,86,75)" r="4" /><circle cx="418.43634057219816" cy="555.1884294009812" fill="white" r="2" /><circle cx="423.92825271263877" cy="569.4135357334468" fill="rgb(140,86,75)" r="4" /><circle cx="423.92825271263877" cy="569.4135357334468" fill="white" r="2" /><circle cx="429.01978630464754" cy="583.3135500490049" fill="rgb(140,86,75)" r="4" /><circle cx="429.01978630464754" cy="583.3135500490049" fill="white" r="2" /><path d="M 298.475021 558.609552 L 283.692134 557.354969 L 276.073265 572.696572" fill="none" stroke="rgb(196,156,148)" stroke-width="5" /><circle cx="298.4750214736053" cy="558.6095522721374" fill="rgb(196,156,148)" r="7" /><circle cx="283.6921343821029" cy="557.3549692871956" fill="rgb(196,156,148)" r="4" /><circle cx="283.6921343821029" cy="557.3549692871956" fill="white" r="2" /><circle cx="276.07326472316026" cy="572.6965720529407" fill="rgb(196,156,148)" r="4" /><circle cx="276.07326472316026" cy="572.6965720529407" fill="white" r="2" /><path d="M 718.714947 266.412421 L 727.448957 280.193661 L 736.640269 293.299393 L 746.260976 305.110528 L 756.225310 316.727263 L 766.370147 327.873557 L 776.649282 338.678694 L 786.594655 348.881813" fill="none" stroke="rgb(227,119,194)" stroke-width="5" /><circle cx="718.7149465432924" cy="266.4124211790656" fill="rgb(227,119,194)" r="7" /><circle cx="727.4489569677669" cy="280.19366119874246" fill="rgb(227,119,194)" r="4" /><circle cx="727.4489569677669" cy="280.19366119874246" fill="white" r="2" /><circle cx="736.6402693953785" cy="293.2993929443525" fill="rgb(227,119,194)" r="4" /><circle cx="736.6402693953785" cy="293.2993929443525" fill="white" r="2" /><circle cx="746.260976431475" cy="305.11052771328906" fill="rgb(227,119,194)" r="4" /><circle cx="746.260976431475" cy="305.11052771328906" fill="white" r="2" /><circle cx="756.2253100617131" cy="316.72726287319915" fill="rgb(227,119,194)" r="4" /><circle cx="756.2253100617131" cy="316.72726287319915" fill="white" r="2" /><circle cx="766.3701466604846" cy="327.87355687540844" fill="rgb(227,119,194)" r="4" /><circle cx="766.3701466604846" cy="327.87355687540844" fill="white" r="2" /><circle cx="776.649282434579" cy="338.67869367140224" fill="rgb(227,119,194)" r="4" /><circle cx="776.649282434579" cy="338.67869367140224" fill="white" r="2" /><circle cx="786.5946550843205" cy="348.8818129267939" fill="rgb(227,119,194)" r="4" /><circle cx="786.5946550843205" cy="348.8818129267939" fill="white" r="2" /><path d="M 491.236376 372.701066 L 488.362352 362.118956 L 497.475779 347.813553 L 508.339383 357.726630 L 518.391358 370.787296" fill="none" stroke="rgb(247,182,210)" stroke-width="5" /><circle cx="491.2363763691751" cy="372.7010659938047" fill="rgb(247,182,210)" r="7" /><circle cx="488.36235162839563" cy="362.1189558488177" fill="rgb(247,182,210)" r="4" /><circle cx="488.36235162839563" cy="362.1189558488177" fill="white" r="2" /><circle cx="497.4757789573929" cy="347.81355262213555" fill="rgb(247,182,210)" r="4" /><circle cx="497.4757789573929" cy="347.81355262213555" fill="white" r="2" /><circle cx="508.33938310813386" cy="357.7266300819137" fill="rgb(247,182,210)" r="4" /><circle cx="508.33938310813386" cy="357.7266300819137" fill="white" r="2" /><circle cx="518.3913580386759" cy="370.7872960300967" fill="rgb(247,182,210)" r="4" /><circle cx="518.3913580386759" cy="370.7872960300967" fill="white" r="2" /></svg>