<?xml version="1.0" encoding="utf-8" ?>
<svg baseProfile="full" fill="white" height="760" version="1.1" width="760" xmlns="http://www.w3.org/2000/svg" xmlns:ev="http://www.w3.org/2001/xml-events" xmlns:xlink="http://www.w3.org/1999/xlink"><defs /><path d="M 184.651801 415.334520 L 192.065219 388.722414" fill="none" stroke="rgb(31,119,180)" stroke-width="5" /><circle cx="184.65180072175272" cy="415.334520159439" fill="rgb(31,119,180)" r="7" /><circle cx="192.06521891382263" cy="388.7224135008437" fill="rgb(31,119,180)" r="4" /><circle cx="192.06521891382263" cy="388.7224135008437" fill="white" r="2" /><path d="M 381.485747 302.317918 L 373.447055 324.260435 L 397.323286 335.021205" fill="none" stroke="rgb(174,199,232)" stroke-width="5" /><circle cx="381.4857469677361" cy="302.3179182490275" fill="rgb(174,199,232)" r="7" /><circle cx="373.4470553809302" cy="324.26043532377037" fill="rgb(174,199,232)" r="4" /><circle cx="373.4470553809302" cy="324.26043532377037" fill="white" r="2" /><circle cx="397.3232862013724" cy="335.02120524100235" fill="rgb(174,199,232)" r="4" /><circle cx="397.3232862013724" cy="335.02120524100235" fill="white" r="2" /><path d="M 279.989073 106.872113 L 263.660308 129.425917 L 256.506961 156.330425 L 275.832149 141.150435" fill="none" stroke="rgb(255,127,14)" stroke-width="5" /><circle cx="279.98907342104167" cy="106.87211252850967" fill="rgb(255,127,14)" r="7" /><circle cx="263.66030772186934" cy="129.4259167747876" fill="rgb(255,127,14)" r="4" /><circle cx="263.66030772186934" cy="129.4259167747876" fill="white" r="2" /><circle cx="256.5069609474437" cy="156.33042489287521" fill="rgb(255,127,14)" r="4" /><circle cx="256.5069609474437" cy="156.33042489287521" fill="white" r="2" /><circle cx="275.83214917620245" cy="141.15043451478357" fill="rgb(255,127,14)" r="4" /><circle cx="275.83214917620245" cy="141.15043451478357" fill="white" r="2" /><path d="M 305.625259 166.938026 L 290.529892 189.753409 L 276.771514 212.478382 L 270.338243 231.117482 L 251.037342 207.423560 L 241.602478 179.680133 L 256.506961 156.330425" fill="none" stroke="rgb(255,187,120)" stroke-width="5" /><circle cx="305.6252592540817" cy="166.93802633011" fill="rgb(255,187,120)" r="7" /><circle cx="290.52989189104125" cy="189.7534086970685" fill="rgb(255,187,120)" r="4" /><circle cx="290.52989189104125" cy="189.7534086970685" fill="white" r="2" /><circle cx="276.7715135645049" cy="212.4783818028279" fill="rgb(255,187,120)" r="4" /><circle cx="276.7715135645049" cy="212.4783818028279" fill="white" r="2" /><circle cx="270.33824323000465" cy="231.11748229825628" fill="rgb(255,187,120)" r="4" /><circle cx="270.33824323000465" cy="231.11748229825628" fill="white" r="2" /><circle cx="251.03734237511563" cy="207.42356000064066" fill="rgb(255,187,120)" r="4" /><circle cx="251.03734237511563" cy="207.42356000064066" fill="white" r="2" /><circle cx="241.60247814554862" cy="179.68013301091094" fill="rgb(255,187,120)" r="4" /><circle cx="241.60247814554862" cy="179.68013301091094" fill="white" r="2" /><circle cx="256.5069609474437" cy="156.33042489287521" fill="rgb(255,187,120)" r="4" /><circle cx="256.5069609474437" cy="156.33042489287521" fill="white" r="2" /><path d="M 211.863495 10.000000 L 206.788888 34.337388 L 197.174921 59.094738 L 189.444886 87.142182 L 197.099736 113.705306 L 206.259954 138.634612 L 221.517996 160.556302 L 241.602478 179.680133 L 217.823059 183.480148" fill="none" stroke="rgb(44,160,44)" stroke-width="5" /><circle cx="211.86349525270074" cy="10.0" fill="rgb(44,160,44)" r="7" /><circle cx="206.78888782041568" cy="34.3373882666409" fill="rgb(44,160,44)" r="4" /><circle cx="206.78888782041568" cy="34.3373882666409" fill="white" r="2" /><circle cx="197.17492131576802" cy="59.09473772593994" fill="rgb(44,160,44)" r="4" /><circle cx="197.17492131576802" cy="59.09473772593994" fill="white" r="2" /><circle cx="189.44488563589704" cy="87.14218225151922" fill="rgb(44,160,44)" r="4" /><circle cx="189.44488563589704" cy="87.14218225151922" fill="white" r="2" /><circle cx="197.09973581844275" cy="113.70530572713241" fill="rgb(44,160,44)" r="4" /><circle cx="197.09973581844275" cy="113.70530572713241" fill="white" r="2" /><circle cx="206.25995402807857" cy="138.6346117969519" fill="rgb(44,160,44)" r="4" /><circle cx="206.25995402807857" cy="138.6346117969519" fill="white" r="2" /><circle cx="221.5179959574286" cy="160.55630218247478" fill="rgb(44,160,44)" r="4" /><circle cx="221.5179959574286" cy="160.55630218247478" fill="white" r="2" /><circle cx="241.60247814554862" cy="179.68013301091094" fill="rgb(44,160,44)" r="4" /><circle cx="241.60247814554862" cy="179.68013301091094" fill="white" r="2" /><circle cx="217.82305880958748" cy="183.48014801101297" fill="rgb(44,160,44)" r="4" /><circle cx="217.82305880958748" cy="183.48014801101297" fill="white" r="2" /><path d="M 326.265034 347.179968 L 316.284607 372.301580 L 302.094276 399.571013" fill="none" stroke="rgb(152,223,138)" stroke-width="5" /><circle cx="326.26503409968217" cy="347.179967727787" fill="rgb(152,223,138)" r="7" /><circle cx="316.2846066387718" cy="372.3015797144559" fill="rgb(152,223,138)" r="4" /><circle cx="316.2846066387718" cy="372.3015797144559" fill="white" r="2" /><circle cx="302.09427586337114" cy="399.5710132004524" fill="rgb(152,223,138)" r="4" /><circle cx="302.09427586337114" cy="399.5710132004524" fill="white" r="2" /><path d="M 545.330976 256.563660 L 526.214619 275.647544 L 507.332988 297.130657 L 489.417631 320.956139 L 472.204207 346.188398 L 459.084907 375.731274 L 480.107414 374.178727 L 485.986343 356.614151 L 513.483954 349.382042 L 540.936331 340.481533 L 552.576962 317.844697 L 566.373078 331.462332 L 589.226725 335.807719 L 587.711193 314.372447 L 609.252296 300.566057 L 630.927981 289.125706" fill="none" stroke="rgb(214,39,40)" stroke-width="5" /><circle cx="545.3309760043092" cy="256.5636603980263" fill="rgb(214,39,40)" r="7" /><circle cx="526.21461895413" cy="275.64754379830885" fill="rgb(214,39,40)" r="4" /><circle cx="526.21461895413" cy="275.64754379830885" fill="white" r="2" /><circle cx="507.3329883375694" cy="297.130656727646" fill="rgb(214,39,40)" r="4" /><circle cx="507.3329883375694" cy="297.130656727646" fill="white" r="2" /><circle cx="489.4176309760234" cy="320.9561389571403" fill="rgb(214,39,40)" r="4" /><circle cx="489.4176309760234" cy="320.9561389571403" fill="white" r="2" /><circle cx="472.20420654514754" cy="346.1883977998727" fill="rgb(214,39,40)" r="4" /><circle cx="472.20420654514754" cy="346.1883977998727" fill="white" r="2" /><circle cx="459.08490720132374" cy="375.73127381887053" fill="rgb(214,39,40)" r="4" /><circle cx="459.08490720132374" cy="375.73127381887053" fill="white" r="2" /><circle cx="480.10741400629206" cy="374.17872747536524" fill="rgb(214,39,40)" r="4" /><circle cx="480.10741400629206" cy="374.17872747536524" fill="white" r="2" /><circle cx="485.98634318366624" cy="356.6141508166231" fill="rgb(214,39,40)" r="4" /><circle cx="485.98634318366624" cy="356.6141508166231" fill="white" r="2" /><circle cx="513.4839540384262" cy="349.38204160276376" fill="rgb(214,39,40)" r="4" /><circle cx="513.4839540384262" cy="349.38204160276376" fill="white" r="2" /><circle cx="540.9363313461229" cy="340.4815327812726" fill="rgb(214,39,40)" r="4" /><circle cx="540.9363313461229" cy="340.4815327812726" fill="white" r="2" /><circle cx="552.5769618973037" cy="317.8446970369666" fill="rgb(214,39,40)" r="4" /><circle cx="552.5769618973037" cy="317.8446970369666" fill="white" r="2" /><circle cx="566.3730779925518" cy="331.4623318039892" fill="rgb(214,39,40)" r="4" /><circle cx="566.3730779925518" cy="331.4623318039892" fill="white" r="2" /><circle cx="589.2267253677118" cy="335.8077192162703" fill="rgb(214,39,40)" r="4" /><circle cx="589.2267253677118" cy="335.8077192162703" fill="white" r="2" /><circle cx="587.7111931500161" cy="314.3724467376506" fill="rgb(214,39,40)" r="4" /><circle cx="587.7111931500161" cy="314.3724467376506" fill="white" r="2" /><circle cx="609.2522961942489" cy="300.5660569282864" fill="rgb(214,39,40)" r="4" /><circle cx="609.2522961942489" cy="300.5660569282864" fill="white" r="2" /><circle cx="630.9279805447209" cy="289.1257061336774" fill="rgb(214,39,40)" r="4" /><circle cx="630.9279805447209" cy="289.1257061336774" fill="white" r="2" /><path d="M 246.926347 252.403906 L 268.872083 259.956434 L 270.338243 231.117482 L 296.811923 221.427143 L 323.555317 210.505663 L 350.794553 204.716751 L 377.389852 209.435451 L 399.264932 225.103564 L 411.133561 249.508428 L 412.403149 277.641894 L 408.066668 306.872548 L 397.323286 335.021205" fill="none" stroke="rgb(255,152,150)" stroke-width="5" /><circle cx="246.92634671735158" cy="252.4039056697799" fill="rgb(255,152,150)" r="7" /><circle cx="268.87208342326505" cy="259.9564335973962" fill="rgb(255,152,150)" r="4" /><circle cx="268.87208342326505" cy="259.9564335973962" fill="white" r="2" /><circle cx="270.33824323000465" cy="231.11748229825628" fill="rgb(255,152,150)" r="4" /><circle cx="270.33824323000465" cy="231.11748229825628" fill="white" r="2" /><circle cx="296.8119226085823" cy="221.42714328872762" fill="rgb(255,152,150)" r="4" /><circle cx="296.8119226085823" cy="221.42714328872762" fill="white" r="2" /><circle cx="323.5553174493175" cy="210.505662707113" fill="rgb(255,152,150)" r="4" /><circle cx="323.5553174493175" cy="210.505662707113" fill="white" r="2" /><circle cx="350.79455325950687" cy="204.716751379249" fill="rgb(255,152,150)" r="4" /><circle cx="350.79455325950687" cy="204.716751379249" fill="white" r="2" /><circle cx="377.3898522346504" cy="209.4354508025333" fill="rgb(255,152,150)" r="4" /><circle cx="377.3898522346504" cy="209.4354508025333" fill="white" r="2" /><circle cx="399.264932404093" cy="225.10356429860843" fill="rgb(255,152,150)" r="4" /><circle cx="399.264932404093" cy="225.10356429860843" fill="white" r="2" /><circle cx="411.133561266697" cy="249.50842780373983" fill="rgb(255,152,150)" r="4" /><circle cx="411.133561266697" cy="249.50842780373983" fill="white" r="2" /><circle cx="412.4031487991674" cy="277.6418936480349" fill="rgb(255,152,150)" r="4" /><circle cx="412.4031487991674" cy="277.6418936480349" fill="white" r="2" /><circle cx="408.06666784816827" cy="306.8725480717898" fill="rgb(255,152,150)" r="4" /><circle cx="408.06666784816827" cy="306.8725480717898" fill="white" r="2" /><circle cx="397.3232862013724" cy="335.02120524100235" fill="rgb(255,152,150)" r="4" /><circle cx="397.3232862013724" cy="335.02120524100235" fill="white" r="2" /><path d="M 383.337227 390.275722 L 378.466368 370.321982 L 405.245406 363.890348 L 397.323286 335.021205" fill="none" stroke="rgb(148,103,189)" stroke-width="5" /><circle cx="383.33722712254456" cy="390.2757218271167" fill="rgb(148,103,189)" r="7" /><circle cx="378.4663676276511" cy="370.3219820839251" fill="rgb(148,103,189)" r="4" /><circle cx="378.4663676276511" cy="370.3219820839251" fill="white" r="2" /><circle cx="405.24540600099164" cy="363.8903479533965" fill="rgb(148,103,189)" r="4" /><circle cx="405.24540600099164" cy="363.8903479533965" fill="white" r="2" /><circle cx="397.3232862013724" cy="335.02120524100235" fill="rgb(148,103,189)" r="4" /><circle cx="397.3232862013724" cy="335.02120524100235" fill="white" r="2" /><path d="M 108.673475 32.886606 L 123.680582 51.609790 L 141.627972 68.317692 L 163.389183 81.153941 L 189.444886 87.142182 L 207.225586 73.280345" fill="none" stroke="rgb(197,176,213)" stroke-width="5" /><circle cx="108.6734747066223" cy="32.88660566361802" fill="rgb(197,176,213)" r="7" /><circle cx="123.68058152395622" cy="51.60979021146361" fill="rgb(197,176,213)" r="4" /><circle cx="123.68058152395622" cy="51.60979021146361" fill="white" r="2" /><circle cx="141.62797161676662" cy="68.31769209327304" fill="rgb(197,176,213)" r="4" /><circle cx="141.62797161676662" cy="68.31769209327304" fill="white" r="2" /><circle cx="163.38918263634352" cy="81.15394058235654" fill="rgb(197,176,213)" r="4" /><circle cx="163.38918263634352" cy="81.15394058235654" fill="white" r="2" /><circle cx="189.44488563589704" cy="87.14218225151922" fill="rgb(197,176,213)" r="4" /><circle cx="189.44488563589704" cy="87.14218225151922" fill="white" r="2" /><circle cx="207.22558646586984" cy="73.28034501033235" fill="rgb(197,176,213)" r="4" /><circle cx="207.22558646586984" cy="73.28034501033235" fill="white" r="2" /><path d="M 425.235816 586.646837 L 438.479369 564.653264 L 457.294002 545.908952 L 476.671251 564.823298 L 488.013943 588.142113 L 495.669461 612.116526 L 502.001721 635.907038 L 508.104073 659.355754 L 514.392538 682.460800" fill="none" stroke="rgb(140,86,75)" stroke-width="5" /><circle cx="425.2358162391726" cy="586.6468365048086" fill="rgb(140,86,75)" r="7" /><circle cx="438.47936929251495" cy="564.6532637924765" fill="rgb(140,86,75)" r="4" /><circle cx="438.47936929251495" cy="564.6532637924765" fill="white" r="2" /><circle cx="457.29400175608504" cy="545.9089521262675" fill="rgb(140,86,75)" r="4" /><circle cx="457.29400175608504" cy="545.9089521262675" fill="white" r="2" /><circle cx="476.67125092835266" cy="564.8232982384985" fill="rgb(140,86,75)" r="4" /><circle cx="476.67125092835266" cy="564.8232982384985" fill="white" r="2" /><circle cx="488.0139434118604" cy="588.1421131279878" fill="rgb(140,86,75)" r="4" /><circle cx="488.0139434118604" cy="588.1421131279878" fill="white" r="2" /><circle cx="495.66946119532327" cy="612.1165263946549" fill="rgb(140,86,75)" r="4" /><circle cx="495.66946119532327" cy="612.1165263946549" fill="white" r="2" /><circle cx="502.00172118672884" cy="635.9070384758863" fill="rgb(140,86,75)" r="4" /><circle cx="502.00172118672884" cy="635.9070384758863" fill="white" r="2" /><circle cx="508.1040732796152" cy="659.355754096862" fill="rgb(140,86,75)" r="4" /><circle cx="508.1040732796152" cy="659.355754096862" fill="white" r="2" /><circle cx="514.392537536289" cy="682.4607999997678" fill="rgb(140,86,75)" r="4" /><circle cx="514.392537536289" cy="682.4607999997678" fill="white" r="2" /><path d="M 339.451725 402.201987 L 316.089928 385.167763 L 298.140340 360.651032 L 301.392281 333.664841 L 277.176950 319.227088 L 250.951323 331.988643 L 230.449487 324.721987 L 204.164493 334.366151 L 176.037743 337.436244 L 155.033683 353.520808 L 136.416407 375.546214 L 117.986541 395.620567 L 95.626601 409.020832 L 69.855693 411.218264 L 46.291887 400.108835 L 40.492117 375.563755 L 49.500238 348.900189 L 30.818251 329.783216" fill="none" stroke="rgb(196,156,148)" stroke-width="5" /><circle cx="339.4517248538232" cy="402.20198681643797" fill="rgb(196,156,148)" r="7" /><circle cx="316.0899282793314" cy="385.16776300016073" fill="rgb(196,156,148)" r="4" /><circle cx="316.0899282793314" cy="385.16776300016073" fill="white" r="2" /><circle cx="298.14033968404453" cy="360.65103172017365" fill="rgb(196,156,148)" r="4" /><circle cx="298.14033968404453" cy="360.65103172017365" fill="white" r="2" /><circle cx="301.3922811771655" cy="333.664840583148" fill="rgb(196,156,148)" r="4" /><circle cx="301.3922811771655" cy="333.664840583148" fill="white" r="2" /><circle cx="277.1769503678458" cy="319.22708788000404" fill="rgb(196,156,148)" r="4" /><circle cx="277.1769503678458" cy="319.22708788000404" fill="white" r="2" /><circle cx="250.9513230025601" cy="331.98864306559466" fill="rgb(196,156,148)" r="4" /><circle cx="250.9513230025601" cy="331.98864306559466" fill="white" r="2" /><circle cx="230.44948698520162" cy="324.72198691538676" fill="rgb(196,156,148)" r="4" /><circle cx="230.44948698520162" cy="324.72198691538676" fill="white" r="2" /><circle cx="204.16449304009947" cy="334.3661513973905" fill="rgb(196,156,148)" r="4" /><circle cx="204.16449304009947" cy="334.3661513973905" fill="white" r="2" /><circle cx="176.0377429760837" cy="337.43624447855177" fill="rgb(196,156,148)" r="4" /><circle cx="176.0377429760837" cy="337.43624447855177" fill="white" r="2" /><circle cx="155.03368318026352" cy="353.5208081197151" fill="rgb(196,156,148)" r="4" /><circle cx="155.03368318026352" cy="353.5208081197151" fill="white" r="2" /><circle cx="136.4164074256166" cy="375.54621392245156" fill="rgb(196,156,148)" r="4" /><circle cx="136.4164074256166" cy="375.54621392245156" fill="white" r="2" /><circle cx="117.98654082676357" cy="395.6205672583265" fill="rgb(196,156,148)" r="4" /><circle cx="117.98654082676357" cy="395.6205672583265" fill="white" r="2" /><circle cx="95.62660084425521" cy="409.0208322606401" fill="rgb(196,156,148)" r="4" /><circle cx="95.62660084425521" cy="409.0208322606401" fill="white" r="2" /><circle cx="69.8556932175452" cy="411.21826442372526" fill="rgb(196,156,148)" r="4" /><circle cx="69.8556932175452" cy="411.21826442372526" fill="white" r="2" /><circle cx="46.29188690132049" cy="400.10883468843264" fill="rgb(196,156,148)" r="4" /><circle cx="46.29188690132049" cy="400.10883468843264" fill="white" r="2" /><circle cx="40.492117162025515" cy="375.5637548473147" fill="rgb(196,156,148)" r="4" /><circle cx="40.492117162025515" cy="375.5637548473147" fill="white" r="2" /><circle cx="49.50023787965341" cy="348.90018937878745" fill="rgb(196,156,148)" r="4" /><circle cx="49.50023787965341" cy="348.90018937878745" fill="white" r="2" /><circle cx="30.818251128340794" cy="329.78321622024276" fill="rgb(196,156,148)" r="4" /><circle cx="30.818251128340794" cy="329.78321622024276" fill="white" r="2" /><path d="M 535.004226 750.000000 L 527.864141 727.759354 L 520.979977 705.251966 L 514.392538 682.460800" fill="none" stroke="rgb(227,119,194)" stroke-width="5" /><circle cx="535.0042260049273" cy="750.0" fill="rgb(227,119,194)" r="7" /><circle cx="527.8641412562547" cy="727.7593539780011" fill="rgb(227,119,194)" r="4" /><circle cx="527.8641412562547" cy="727.7593539780011" fill="white" r="2" /><circle cx="520.9799769889213" cy="705.2519660393889" fill="rgb(227,119,194)" r="4" /><circle cx="520.9799769889213" cy="705.2519660393889" fill="white" r="2" /><circle cx="514.392537536289" cy="682.4607999997678" fill="rgb(227,119,194)" r="4" /><circle cx="514.392537536289" cy="682.4607999997678" fill="white" r="2" /><path d="M 647.140306 450.849854 L 622.707988 447.889834 L 597.792001 444.012828 L 572.581076 438.869692 L 547.328791 432.098775 L 522.407718 423.325288 L 498.317208 412.137553 L 475.662781 397.687157 L 459.084907 375.731274 L 433.327486 378.195723 L 454.687109 363.365437 L 485.986343 356.614151 L 513.483954 349.382042 L 525.102844 331.156575 L 540.936331 340.481533 L 566.373078 331.462332 L 587.711193 314.372447 L 609.252296 300.566057" fill="none" stroke="rgb(247,182,210)" stroke-width="5" /><circle cx="647.1403064212897" cy="450.84985361172863" fill="rgb(247,182,210)" r="7" /><circle cx="622.7079881873345" cy="447.8898342756116" fill="rgb(247,182,210)" r="4" /><circle cx="622.7079881873345" cy="447.8898342756116" fill="white" r="2" /><circle cx="597.7920005131962" cy="444.0128278682876" fill="rgb(247,182,210)" r="4" /><circle cx="597.7920005131962" cy="444.0128278682876" fill="white" r="2" /><circle cx="572.5810763211501" cy="438.8696918008225" fill="rgb(247,182,210)" r="4" /><circle cx="572.5810763211501" cy="438.8696918008225" fill="white" r="2" /><circle cx="547.328790772484" cy="432.09877460859144" fill="rgb(247,182,210)" r="4" /><circle cx="547.328790772484" cy="432.09877460859144" fill="white" r="2" /><circle cx="522.4077175030608" cy="423.32528784547196" fill="rgb(247,182,210)" r="4" /><circle cx="522.4077175030608" cy="423.32528784547196" fill="white" r="2" /><circle cx="498.31720828358857" cy="412.13755315860215" fill="rgb(247,182,210)" r="4" /><circle cx="498.31720828358857" cy="412.13755315860215" fill="white" r="2" /><circle cx="475.6627813995516" cy="397.68715715204644" fill="rgb(247,182,210)" r="4" /><circle cx="475.6627813995516" cy="397.68715715204644" fill="white" r="2" /><circle cx="459.08490720132374" cy="375.73127381887053" fill="rgb(247,182,210)" r="4" /><circle cx="459.08490720132374" cy="375.73127381887053" fill="white" r="2" /><circle cx="433.32748644415165" cy="378.1957227407702" fill="rgb(247,182,210)" r="4" /><circle cx="433.32748644415165" cy="378.1957227407702" fill="white" r="2" /><circle cx="454.6871087979721" cy="363.36543733123284" fill="rgb(247,182,210)" r="4" /><circle cx="454.6871087979721" cy="363.36543733123284" fill="white" r="2" /><circle cx="485.98634318366624" cy="356.6141508166231" fill="rgb(247,182,210)" r="4" /><circle cx="485.98634318366624" cy="356.6141508166231" fill="white" r="2" /><circle cx="513.4839540384262" cy="349.38204160276376" fill="rgb(247,182,210)" r="4" /><circle cx="513.4839540384262" cy="349.38204160276376" fill="white" r="2" /><circle cx="525.1028437067156" cy="331.15657545445043" fill="rgb(247,182,210)" r="4" /><circle cx="525.1028437067156" cy="331.15657545445043" fill="white" r="2" /><circle cx="540.9363313461229" cy="340.4815327812726" fill="rgb(247,182,210)" r="4" /><circle cx="540.9363313461229" cy="340.4815327812726" fill="white" r="2" /><circle cx="566.3730779925518" cy="331.4623318039892" fill="rgb(247,182,210)" r="4" /><circle cx="566.3730779925518" cy="331.4623318039892" fill="white" r="2" /><circle cx="587.7111931500161" cy="314.3724467376506" fill="rgb(247,182,210)" r="4" /><circle cx="587.7111931500161" cy="314.3724467376506" fill="white" r="2" /><circle cx="609.2522961942489" cy="300.5660569282864" fill="rgb(247,182,210)" r="4" /><circle cx="609.2522961942489" cy="300.5660569282864" fill="white" r="2" /><path d="M 457.294002 545.908952 L 453.484750 518.800382 L 448.184085 492.122243 L 442.901989 464.908067 L 438.068884 436.831740 L 434.260661 407.723159 L 433.327486 378.195723 L 405.245406 363.890348 L 416.689762 353.458918 L 430.751588 334.161890" fill="none" stroke="rgb(127,127,127)" stroke-width="5" /><circle cx="457.29400175608504" cy="545.9089521262675" fill="rgb(127,127,127)" r="7" /><circle cx="453.48475008101923" cy="518.8003820063605" fill="rgb(127,127,127)" r="4" /><circle cx="453.48475008101923" cy="518.8003820063605" fill="white" r="2" /><circle cx="448.1840853512437" cy="492.12224348949934" fill="rgb(127,127,127)" r="4" /><circle cx="448.1840853512437" cy="492.12224348949934" fill="white" r="2" /><circle cx="442.9019894890554" cy="464.90806721690143" fill="rgb(127,127,127)" r="4" /><circle cx="442.9019894890554" cy="464.90806721690143" fill="white" r="2" /><circle cx="438.0688836480861" cy="436.8317395618458" fill="rgb(127,127,127)" r="4" /><circle cx="438.0688836480861" cy="436.8317395618458" fill="white" r="2" /><circle cx="434.2606612427121" cy="407.7231588303018" fill="rgb(127,127,127)" r="4" /><circle cx="434.2606612427121" cy="407.7231588303018" fill="white" r="2" /><circle cx="433.32748644415165" cy="378.1957227407702" fill="rgb(127,127,127)" r="4" /><circle cx="433.32748644415165" cy="378.1957227407702" fill="white" r="2" /><circle cx="405.24540600099164" cy="363.8903479533965" fill="rgb(127,127,127)" r="4" /><circle cx="405.24540600099164" cy="363.8903479533965" fill="white" r="2" /><circle cx="416.68976199466846" cy="353.4589177117164" fill="rgb(127,127,127)" r="4" /><circle cx="416.68976199466846" cy="353.4589177117164" fill="white" r="2" /><circle cx="430.7515876097378" cy="334.161889737128" fill="rgb(127,127,127)" r="4" /><circle cx="430.7515876097378" cy="334.161889737128" fill="white" r="2" /><path d="M 303.199711 502.202413 L 313.343743 478.809264 L 323.305644 454.586959 L 332.523247 429.376528 L 339.451725 402.201987 L 365.723729 394.670834 L 378.466368 370.321982 L 353.736090 357.081068 L 326.265034 347.179968 L 301.392281 333.664841 L 293.315153 304.460742 L 266.374039 286.791423 L 268.872083 259.956434 L 280.217741 284.057887 L 277.176950 319.227088 L 267.193204 338.474395 L 246.864131 354.227995 L 250.951323 331.988643 L 230.449487 324.721987 L 250.799346 306.013135 L 221.153955 312.919781 L 204.164493 334.366151 L 201.436221 361.577445 L 192.065219 388.722414 L 167.642522 388.187022 L 172.337262 361.880846 L 176.037743 337.436244 L 152.527556 323.510138 L 125.374391 321.313265 L 98.771726 325.964802 L 73.645895 335.660253 L 49.500238 348.900189 L 24.421607 350.662081" fill="none" stroke="rgb(199,199,199)" stroke-width="5" /><circle cx="303.19971084087797" cy="502.2024130338407" fill="rgb(199,199,199)" r="7" /><circle cx="313.34374308887294" cy="478.80926424344796" fill="rgb(199,199,199)" r="4" /><circle cx="313.34374308887294" cy="478.80926424344796" fill="white" r="2" /><circle cx="323.30564352977376" cy="454.58695869171703" fill="rgb(199,199,199)" r="4" /><circle cx="323.30564352977376" cy="454.58695869171703" fill="white" r="2" /><circle cx="332.52324742936406" cy="429.3765284802044" fill="rgb(199,199,199)" r="4" /><circle cx="332.52324742936406" cy="429.3765284802044" fill="white" r="2" /><circle cx="339.4517248538232" cy="402.20198681643797" fill="rgb(199,199,199)" r="4" /><circle cx="339.4517248538232" cy="402.20198681643797" fill="white" r="2" /><circle cx="365.7237293618635" cy="394.6708339905992" fill="rgb(199,199,199)" r="4" /><circle cx="365.7237293618635" cy="394.6708339905992" fill="white" r="2" /><circle cx="378.4663676276511" cy="370.3219820839251" fill="rgb(199,199,199)" r="4" /><circle cx="378.4663676276511" cy="370.3219820839251" fill="white" r="2" /><circle cx="353.7360904496046" cy="357.08106827189016" fill="rgb(199,199,199)" r="4" /><circle cx="353.7360904496046" cy="357.08106827189016" fill="white" r="2" /><circle cx="326.26503409968217" cy="347.179967727787" fill="rgb(199,199,199)" r="4" /><circle cx="326.26503409968217" cy="347.179967727787" fill="white" r="2" /><circle cx="301.3922811771655" cy="333.664840583148" fill="rgb(199,199,199)" r="4" /><circle cx="301.3922811771655" cy="333.664840583148" fill="white" r="2" /><circle cx="293.31515286777284" cy="304.4607418367135" fill="rgb(199,199,199)" r="4" /><circle cx="293.31515286777284" cy="304.4607418367135" fill="white" r="2" /><circle cx="266.37403872786376" cy="286.7914226350388" fill="rgb(199,199,199)" r="4" /><circle cx="266.37403872786376" cy="286.7914226350388" fill="white" r="2" /><circle cx="268.87208342326505" cy="259.9564335973962" fill="rgb(199,199,199)" r="4" /><circle cx="268.87208342326505" cy="259.9564335973962" fill="white" r="2" /><circle cx="280.2177412799609" cy="284.057887124998" fill="rgb(199,199,199)" r="4" /><circle cx="280.2177412799609" cy="284.057887124998" fill="white" r="2" /><circle cx="277.1769503678458" cy="319.22708788000404" fill="rgb(199,199,199)" r="4" /><circle cx="277.1769503678458" cy="319.22708788000404" fill="white" r="2" /><circle cx="267.19320416236985" cy="338.4743947950074" fill="rgb(199,199,199)" r="4" /><circle cx="267.19320416236985" cy="338.4743947950074" fill="white" r="2" /><circle cx="246.8641308181049" cy="354.2279949219275" fill="rgb(199,199,199)" r="4" /><circle cx="246.8641308181049" cy="354.2279949219275" fill="white" r="2" /><circle cx="250.9513230025601" cy="331.98864306559466" fill="rgb(199,199,199)" r="4" /><circle cx="250.9513230025601" cy="331.98864306559466" fill="white" r="2" /><circle cx="230.44948698520162" cy="324.72198691538676" fill="rgb(199,199,199)" r="4" /><circle cx="230.44948698520162" cy="324.72198691538676" fill="white" r="2" /><circle cx="250.79934644136029" cy="306.0131353024808" fill="rgb(199,199,199)" r="4" /><circle cx="250.79934644136029" cy="306.0131353024808" fill="white" r="2" /><circle cx="221.1539547969777" cy="312.91978111785636" fill="rgb(199,199,199)" r="4" /><circle cx="221.1539547969777" cy="312.91978111785636" fill="white" r="2" /><circle cx="204.16449304009947" cy="334.3661513973905" fill="rgb(199,199,199)" r="4" /><circle cx="204.16449304009947" cy="334.3661513973905" fill="white" r="2" /><circle cx="201.43622090214203" cy="361.5774453699418" fill="rgb(199,199,199)" r="4" /><circle cx="201.43622090214203" cy="361.5774453699418" fill="white" r="2" /><circle cx="192.06521891382263" cy="388.7224135008437" fill="rgb(199,199,199)" r="4" /><circle cx="192.06521891382263" cy="388.7224135008437" fill="white" r="2" /><circle cx="167.6425218146605" cy="388.1870218823869" fill="rgb(199,199,199)" r="4" /><circle cx="167.6425218146605" cy="388.1870218823869" fill="white" r="2" /><circle cx="172.33726159819034" cy="361.88084636457705" fill="rgb(199,199,199)" r="4" /><circle cx="172.33726159819034" cy="361.88084636457705" fill="white" r="2" /><circle cx="176.0377429760837" cy="337.43624447855177" fill="rgb(199,199,199)" r="4" /><circle cx="176.0377429760837" cy="337.43624447855177" fill="white" r="2" /><circle cx="152.52755562509103" cy="323.5101384268964" fill="rgb(199,199,199)" r="4" /><circle cx="152.52755562509103" cy="323.5101384268964" fill="white" r="2" /><circle cx="125.37439141560709" cy="321.31326494637347" fill="rgb(199,199,199)" r="4" /><circle cx="125.37439141560709" cy="321.31326494637347" fill="white" r="2" /><circle cx="98.77172574984967" cy="325.9648022300666" fill="rgb(199,199,199)" r="4" /><circle cx="98.77172574984967" cy="325.9648022300666" fill="white" r="2" /><circle cx="73.64589538074125" cy="335.66025260305105" fill="rgb(199,199,199)" r="4" /><circle cx="73.64589538074125" cy="335.66025260305105" fill="white" r="2" /><circle cx="49.50023787965341" cy="348.90018937878745" fill="rgb(199,199,199)" r="4" /><circle cx="49.50023787965341" cy="348.90018937878745" fill="white" r="2" /><circle cx="24.42160692436193" cy="350.6620814679487" fill="rgb(199,199,199)" r="4" /><circle cx="24.42160692436193" cy="350.6620814679487" fill="white" r="2" /><path d="M 247.056560 278.467848 L 266.374039 286.791423 L 250.799346 306.013135 L 282.894414 311.008788 L 316.945203 311.731128 L 346.033021 316.586092 L 373.447055 324.260435" fill="none" stroke="rgb(188,189,34)" stroke-width="5" /><circle cx="247.05656037891043" cy="278.4678479772086" fill="rgb(188,189,34)" r="7" /><circle cx="266.37403872786376" cy="286.7914226350388" fill="rgb(188,189,34)" r="4" /><circle cx="266.37403872786376" cy="286.7914226350388" fill="white" r="2" /><circle cx="250.79934644136029" cy="306.0131353024808" fill="rgb(188,189,34)" r="4" /><circle cx="250.79934644136029" cy="306.0131353024808" fill="white" r="2" /><circle cx="282.8944141653531" cy="311.0087884981396" fill="rgb(188,189,34)" r="4" /><circle cx="282.8944141653531" cy="311.0087884981396" fill="white" r="2" /><circle cx="316.9452025473044" cy="311.7311281750937" fill="rgb(188,189,34)" r="4" /><circle cx="316.9452025473044" cy="311.7311281750937" fill="white" r="2" /><circle cx="346.0330214372875" cy="316.586092358957" fill="rgb(188,189,34)" r="4" /><circle cx="346.0330214372875" cy="316.586092358957" fill="white" r="2" /><circle cx="373.4470553809302" cy="324.26043532377037" fill="rgb(188,189,34)" r="4" /><circle cx="373.4470553809302" cy="324.26043532377037" fill="white" r="2" /></svg>