<?xml version="1.0" encoding="utf-8" ?>
<svg baseProfile="full" height="572" style="background-color:white; alpha:0%;" version="1.1" width="572" xmlns="http://www.w3.org/2000/svg" xmlns:ev="http://www.w3.org/2001/xml-events" xmlns:xlink="http://www.w3.org/1999/xlink"><defs /><path d="M 351.721678 383.495587 L 337.041867 384.930351 L 326.378520 392.442101 L 342.143968 403.066371 L 358.441574 405.584597 L 372.141865 414.946786 L 382.912602 426.493734" fill="none" stroke="rgb(31,119,180)" stroke-width="5" /><circle cx="351.72167816954624" cy="383.49558742133223" fill="rgb(31,119,180)" r="7" /><circle cx="337.04186673864456" cy="384.93035113447064" fill="rgb(31,119,180)" r="4" /><circle cx="337.04186673864456" cy="384.93035113447064" fill="white" r="2" /><circle cx="326.37851970301904" cy="392.4421010381135" fill="rgb(31,119,180)" r="4" /><circle cx="326.37851970301904" cy="392.4421010381135" fill="white" r="2" /><circle cx="342.1439683773611" cy="403.06637063148247" fill="rgb(31,119,180)" r="4" /><circle cx="342.1439683773611" cy="403.06637063148247" fill="white" r="2" /><circle cx="358.4415739093342" cy="405.58459709147434" fill="rgb(31,119,180)" r="4" /><circle cx="358.4415739093342" cy="405.58459709147434" fill="white" r="2" /><circle cx="372.14186517147857" cy="414.9467859539772" fill="rgb(31,119,180)" r="4" /><circle cx="372.14186517147857" cy="414.9467859539772" fill="white" r="2" /><circle cx="382.9126018326823" cy="426.4937338394658" fill="rgb(31,119,180)" r="4" /><circle cx="382.9126018326823" cy="426.4937338394658" fill="white" r="2" /><path d="M 274.765928 327.223548 L 274.562708 339.544554 L 289.529441 336.049400 L 298.729407 321.139524" fill="none" stroke="rgb(174,199,232)" stroke-width="5" /><circle cx="274.76592763063655" cy="327.22354779758746" fill="rgb(174,199,232)" r="7" /><circle cx="274.56270757980207" cy="339.5445538824075" fill="rgb(174,199,232)" r="4" /><circle cx="274.56270757980207" cy="339.5445538824075" fill="white" r="2" /><circle cx="289.5294409960129" cy="336.04939958465815" fill="rgb(174,199,232)" r="4" /><circle cx="289.5294409960129" cy="336.04939958465815" fill="white" r="2" /><circle cx="298.7294073841271" cy="321.13952378934994" fill="rgb(174,199,232)" r="4" /><circle cx="298.7294073841271" cy="321.13952378934994" fill="white" r="2" /><path d="M 340.901034 441.320373 L 331.840403 427.599563" fill="none" stroke="rgb(255,127,14)" stroke-width="5" /><circle cx="340.90103383592333" cy="441.32037323668135" fill="rgb(255,127,14)" r="7" /><circle cx="331.84040266160633" cy="427.5995633412428" fill="rgb(255,127,14)" r="4" /><circle cx="331.84040266160633" cy="427.5995633412428" fill="white" r="2" /><path d="M 326.378520 392.442101 L 307.821540 391.083630 L 316.030565 399.057520" fill="none" stroke="rgb(255,187,120)" stroke-width="5" /><circle cx="326.37851970301904" cy="392.4421010381135" fill="rgb(255,187,120)" r="7" /><circle cx="307.821540478392" cy="391.08362971464214" fill="rgb(255,187,120)" r="4" /><circle cx="307.821540478392" cy="391.08362971464214" fill="white" r="2" /><circle cx="316.0305651461235" cy="399.05751963798195" fill="rgb(255,187,120)" r="4" /><circle cx="316.0305651461235" cy="399.05751963798195" fill="white" r="2" /><path d="M 283.893328 12.515563 L 289.026405 25.389156 L 294.370299 38.348086 L 299.945932 51.359522 L 305.787080 64.395878 L 311.943666 77.424186 L 318.491161 90.397325 L 325.547704 103.242972 L 333.294300 115.855635 L 341.938406 128.158593 L 351.439460 140.554954 L 360.933330 155.221908 L 348.277033 155.512144 L 342.807056 165.842398" fill="none" stroke="rgb(44,160,44)" stroke-width="5" /><circle cx="283.8933276094247" cy="12.515562961732668" fill="rgb(44,160,44)" r="7" /><circle cx="289.02640493398707" cy="25.389155715649764" fill="rgb(44,160,44)" r="4" /><circle cx="289.02640493398707" cy="25.389155715649764" fill="white" r="2" /><circle cx="294.37029948460764" cy="38.348085798239524" fill="rgb(44,160,44)" r="4" /><circle cx="294.37029948460764" cy="38.348085798239524" fill="white" r="2" /><circle cx="299.9459315209557" cy="51.35952229805258" fill="rgb(44,160,44)" r="4" /><circle cx="299.9459315209557" cy="51.35952229805258" fill="white" r="2" /><circle cx="305.78707996288574" cy="64.3958780292654" fill="rgb(44,160,44)" r="4" /><circle cx="305.78707996288574" cy="64.3958780292654" fill="white" r="2" /><circle cx="311.9436658750831" cy="77.42418568104304" fill="rgb(44,160,44)" r="4" /><circle cx="311.9436658750831" cy="77.42418568104304" fill="white" r="2" /><circle cx="318.49116050584763" cy="90.39732475683216" fill="rgb(44,160,44)" r="4" /><circle cx="318.49116050584763" cy="90.39732475683216" fill="white" r="2" /><circle cx="325.54770381306724" cy="103.24297231479844" fill="rgb(44,160,44)" r="4" /><circle cx="325.54770381306724" cy="103.24297231479844" fill="white" r="2" /><circle cx="333.29429986965994" cy="115.85563458149788" fill="rgb(44,160,44)" r="4" /><circle cx="333.29429986965994" cy="115.85563458149788" fill="white" r="2" /><circle cx="341.93840562517516" cy="128.15859288188648" fill="rgb(44,160,44)" r="4" /><circle cx="341.93840562517516" cy="128.15859288188648" fill="white" r="2" /><circle cx="351.439459630133" cy="140.55495405693728" fill="rgb(44,160,44)" r="4" /><circle cx="351.439459630133" cy="140.55495405693728" fill="white" r="2" /><circle cx="360.93332968921203" cy="155.22190820282916" fill="rgb(44,160,44)" r="4" /><circle cx="360.93332968921203" cy="155.22190820282916" fill="white" r="2" /><circle cx="348.2770328962899" cy="155.5121442399913" fill="rgb(44,160,44)" r="4" /><circle cx="348.2770328962899" cy="155.5121442399913" fill="white" r="2" /><circle cx="342.8070556548667" cy="165.84239784797728" fill="rgb(44,160,44)" r="4" /><circle cx="342.8070556548667" cy="165.84239784797728" fill="white" r="2" /><path d="M 518.915944 10.000000 L 510.373927 20.612346 L 501.743347 31.268849 L 493.023421 41.963673 L 484.208800 52.695915 L 475.291674 63.467069 L 466.262372 74.280215 L 457.109522 85.139751 L 447.819251 96.050500 L 438.373771 107.017024 L 428.745314 118.039167 L 418.880159 129.101209 L 408.649521 140.134658 L 397.699331 150.883931 L 385.018988 160.384075 L 369.953218 169.289840 L 370.454015 187.241263 L 371.383708 203.549165 L 373.430459 219.635150 L 376.745540 235.588712 L 380.802183 243.277523" fill="none" stroke="rgb(152,223,138)" stroke-width="5" /><circle cx="518.9159437671112" cy="10.0" fill="rgb(152,223,138)" r="7" /><circle cx="510.3739267973754" cy="20.612345908585784" fill="rgb(152,223,138)" r="4" /><circle cx="510.3739267973754" cy="20.612345908585784" fill="white" r="2" /><circle cx="501.74334682616984" cy="31.268848782748723" fill="rgb(152,223,138)" r="4" /><circle cx="501.74334682616984" cy="31.268848782748723" fill="white" r="2" /><circle cx="493.0234211053925" cy="41.963672870414726" fill="rgb(152,223,138)" r="4" /><circle cx="493.0234211053925" cy="41.963672870414726" fill="white" r="2" /><circle cx="484.2088003369168" cy="52.69591549196856" fill="rgb(152,223,138)" r="4" /><circle cx="484.2088003369168" cy="52.69591549196856" fill="white" r="2" /><circle cx="475.2916739349273" cy="63.46706852044533" fill="rgb(152,223,138)" r="4" /><circle cx="475.2916739349273" cy="63.46706852044533" fill="white" r="2" /><circle cx="466.26237191611136" cy="74.28021493843119" fill="rgb(152,223,138)" r="4" /><circle cx="466.26237191611136" cy="74.28021493843119" fill="white" r="2" /><circle cx="457.1095220802845" cy="85.139750985107" fill="rgb(152,223,138)" r="4" /><circle cx="457.1095220802845" cy="85.139750985107" fill="white" r="2" /><circle cx="447.8192506987301" cy="96.05050034036891" fill="rgb(152,223,138)" r="4" /><circle cx="447.8192506987301" cy="96.05050034036891" fill="white" r="2" /><circle cx="438.37377137370686" cy="107.01702367719989" fill="rgb(152,223,138)" r="4" /><circle cx="438.37377137370686" cy="107.01702367719989" fill="white" r="2" /><circle cx="428.7453136259457" cy="118.03916681333389" fill="rgb(152,223,138)" r="4" /><circle cx="428.7453136259457" cy="118.03916681333389" fill="white" r="2" /><circle cx="418.88015880367874" cy="129.10120862661492" fill="rgb(152,223,138)" r="4" /><circle cx="418.88015880367874" cy="129.10120862661492" fill="white" r="2" /><circle cx="408.6495212077166" cy="140.13465798986184" fill="rgb(152,223,138)" r="4" /><circle cx="408.6495212077166" cy="140.13465798986184" fill="white" r="2" /><circle cx="397.69933085157146" cy="150.88393141821052" fill="rgb(152,223,138)" r="4" /><circle cx="397.69933085157146" cy="150.88393141821052" fill="white" r="2" /><circle cx="385.01898831548596" cy="160.38407506071272" fill="rgb(152,223,138)" r="4" /><circle cx="385.01898831548596" cy="160.38407506071272" fill="white" r="2" /><circle cx="369.9532178355973" cy="169.28983963586185" fill="rgb(152,223,138)" r="4" /><circle cx="369.9532178355973" cy="169.28983963586185" fill="white" r="2" /><circle cx="370.4540152907331" cy="187.24126294744408" fill="rgb(152,223,138)" r="4" /><circle cx="370.4540152907331" cy="187.24126294744408" fill="white" r="2" /><circle cx="371.3837084873608" cy="203.54916505099956" fill="rgb(152,223,138)" r="4" /><circle cx="371.3837084873608" cy="203.54916505099956" fill="white" r="2" /><circle cx="373.43045857245795" cy="219.6351504906318" fill="rgb(152,223,138)" r="4" /><circle cx="373.43045857245795" cy="219.6351504906318" fill="white" r="2" /><circle cx="376.7455397900749" cy="235.58871175542248" fill="rgb(152,223,138)" r="4" /><circle cx="376.7455397900749" cy="235.58871175542248" fill="white" r="2" /><circle cx="380.8021834651609" cy="243.27752254810895" fill="rgb(152,223,138)" r="4" /><circle cx="380.8021834651609" cy="243.27752254810895" fill="white" r="2" /><path d="M 306.978585 415.536490 L 310.498053 403.815499 L 326.069284 412.677922" fill="none" stroke="rgb(214,39,40)" stroke-width="5" /><circle cx="306.97858521723833" cy="415.5364898401422" fill="rgb(214,39,40)" r="7" /><circle cx="310.4980534133641" cy="403.8154986218756" fill="rgb(214,39,40)" r="4" /><circle cx="310.4980534133641" cy="403.8154986218756" fill="white" r="2" /><circle cx="326.06928440434365" cy="412.67792203924125" fill="rgb(214,39,40)" r="4" /><circle cx="326.06928440434365" cy="412.67792203924125" fill="white" r="2" /><path d="M 211.046342 318.474559 L 226.725945 323.054614 L 243.039798 326.542170 L 243.348913 313.160615" fill="none" stroke="rgb(255,152,150)" stroke-width="5" /><circle cx="211.0463423218655" cy="318.4745587404325" fill="rgb(255,152,150)" r="7" /><circle cx="226.72594476776308" cy="323.0546143707316" fill="rgb(255,152,150)" r="4" /><circle cx="226.72594476776308" cy="323.0546143707316" fill="white" r="2" /><circle cx="243.03979768782273" cy="326.5421697422533" fill="rgb(255,152,150)" r="4" /><circle cx="243.03979768782273" cy="326.5421697422533" fill="white" r="2" /><circle cx="243.3489128557086" cy="313.1606151091235" fill="rgb(255,152,150)" r="4" /><circle cx="243.3489128557086" cy="313.1606151091235" fill="white" r="2" /><path d="M 342.143968 403.066371 L 349.637703 417.525793 L 359.227105 430.990756" fill="none" stroke="rgb(148,103,189)" stroke-width="5" /><circle cx="342.1439683773611" cy="403.06637063148247" fill="rgb(148,103,189)" r="7" /><circle cx="349.63770334166196" cy="417.52579257404483" fill="rgb(148,103,189)" r="4" /><circle cx="349.63770334166196" cy="417.52579257404483" fill="white" r="2" /><circle cx="359.22710512535895" cy="430.99075606919155" fill="rgb(148,103,189)" r="4" /><circle cx="359.22710512535895" cy="430.99075606919155" fill="white" r="2" /><path d="M 562.000000 280.127071 L 547.873185 278.887095 L 533.477969 276.130827 L 520.719784 267.740349 L 529.797534 255.610076" fill="none" stroke="rgb(197,176,213)" stroke-width="5" /><circle cx="562.0" cy="280.12707059521347" fill="rgb(197,176,213)" r="7" /><circle cx="547.8731851838943" cy="278.88709523083804" fill="rgb(197,176,213)" r="4" /><circle cx="547.8731851838943" cy="278.88709523083804" fill="white" r="2" /><circle cx="533.4779692870308" cy="276.1308270381839" fill="rgb(197,176,213)" r="4" /><circle cx="533.4779692870308" cy="276.1308270381839" fill="white" r="2" /><circle cx="520.7197843096708" cy="267.7403486027158" fill="rgb(197,176,213)" r="4" /><circle cx="520.7197843096708" cy="267.7403486027158" fill="white" r="2" /><circle cx="529.7975341203669" cy="255.61007623935672" fill="rgb(197,176,213)" r="4" /><circle cx="529.7975341203669" cy="255.61007623935672" fill="white" r="2" /><path d="M 239.458778 408.289959 L 249.148779 416.617118 L 232.020886 418.163326 L 216.848707 424.818613 L 204.623117 435.364647 L 194.407142 447.139399 L 185.507920 459.258331 L 177.447143 471.325386" fill="none" stroke="rgb(140,86,75)" stroke-width="5" /><circle cx="239.45877823982667" cy="408.28995881478" fill="rgb(140,86,75)" r="7" /><circle cx="249.14877879332747" cy="416.61711806528416" fill="rgb(140,86,75)" r="4" /><circle cx="249.14877879332747" cy="416.61711806528416" fill="white" r="2" /><circle cx="232.02088584620847" cy="418.1633259047767" fill="rgb(140,86,75)" r="4" /><circle cx="232.02088584620847" cy="418.1633259047767" fill="white" r="2" /><circle cx="216.84870726767392" cy="424.81861267822006" fill="rgb(140,86,75)" r="4" /><circle cx="216.84870726767392" cy="424.81861267822006" fill="white" r="2" /><circle cx="204.62311739728685" cy="435.3646469631385" fill="rgb(140,86,75)" r="4" /><circle cx="204.62311739728685" cy="435.3646469631385" fill="white" r="2" /><circle cx="194.40714234866422" cy="447.13939899991766" fill="rgb(140,86,75)" r="4" /><circle cx="194.40714234866422" cy="447.13939899991766" fill="white" r="2" /><circle cx="185.5079201517774" cy="459.25833145347144" fill="rgb(140,86,75)" r="4" /><circle cx="185.5079201517774" cy="459.25833145347144" fill="white" r="2" /><circle cx="177.44714320827507" cy="471.3253860113866" fill="rgb(140,86,75)" r="4" /><circle cx="177.44714320827507" cy="471.3253860113866" fill="white" r="2" /><path d="M 459.532897 222.244221 L 446.447234 228.568164 L 434.961507 237.677173 L 427.416526 249.776805" fill="none" stroke="rgb(196,156,148)" stroke-width="5" /><circle cx="459.53289709602484" cy="222.24422132498853" fill="rgb(196,156,148)" r="7" /><circle cx="446.4472344653599" cy="228.5681639503626" fill="rgb(196,156,148)" r="4" /><circle cx="446.4472344653599" cy="228.5681639503626" fill="white" r="2" /><circle cx="434.9615073540429" cy="237.67717282136456" fill="rgb(196,156,148)" r="4" /><circle cx="434.9615073540429" cy="237.67717282136456" fill="white" r="2" /><circle cx="427.4165258042531" cy="249.77680535310984" fill="rgb(196,156,148)" r="4" /><circle cx="427.4165258042531" cy="249.77680535310984" fill="white" r="2" /><path d="M 319.325642 460.284951 L 310.373539 446.331925 L 300.280536 431.879633 L 288.710667 419.457341 L 282.659390 434.395323 L 279.136091 450.831992 L 271.015765 461.854706 L 264.767344 453.541903" fill="none" stroke="rgb(227,119,194)" stroke-width="5" /><circle cx="319.3256424214901" cy="460.28495107439176" fill="rgb(227,119,194)" r="7" /><circle cx="310.3735388256949" cy="446.3319253889039" fill="rgb(227,119,194)" r="4" /><circle cx="310.3735388256949" cy="446.3319253889039" fill="white" r="2" /><circle cx="300.2805356591764" cy="431.87963272529106" fill="rgb(227,119,194)" r="4" /><circle cx="300.2805356591764" cy="431.87963272529106" fill="white" r="2" /><circle cx="288.7106669240769" cy="419.4573409869304" fill="rgb(227,119,194)" r="4" /><circle cx="288.7106669240769" cy="419.4573409869304" fill="white" r="2" /><circle cx="282.6593899842093" cy="434.39532266367695" fill="rgb(227,119,194)" r="4" /><circle cx="282.6593899842093" cy="434.39532266367695" fill="white" r="2" /><circle cx="279.1360908644082" cy="450.83199165875857" fill="rgb(227,119,194)" r="4" /><circle cx="279.1360908644082" cy="450.83199165875857" fill="white" r="2" /><circle cx="271.0157654431142" cy="461.8547059608199" fill="rgb(227,119,194)" r="4" /><circle cx="271.0157654431142" cy="461.8547059608199" fill="white" r="2" /><circle cx="264.7673441604153" cy="453.54190305767423" fill="rgb(227,119,194)" r="4" /><circle cx="264.7673441604153" cy="453.54190305767423" fill="white" r="2" /><path d="M 380.359159 172.271446 L 369.953218 169.289840" fill="none" stroke="rgb(247,182,210)" stroke-width="5" /><circle cx="380.3591586403274" cy="172.27144599381143" fill="rgb(247,182,210)" r="7" /><circle cx="369.9532178355973" cy="169.28983963586185" fill="rgb(247,182,210)" r="4" /><circle cx="369.9532178355973" cy="169.28983963586185" fill="white" r="2" /><path d="M 287.216358 497.161473 L 286.003538 482.644614 L 284.897672 467.056412 L 279.136091 450.831992 L 264.767344 453.541903 L 254.440126 446.010792 L 248.154066 432.910615 L 249.148779 416.617118 L 261.414191 404.218174 L 275.081939 393.972935 L 290.577361 387.401811 L 286.372020 370.057244 L 277.159576 358.310416 L 274.562708 339.544554 L 259.094862 331.101469 L 243.039798 326.542170 L 243.655792 339.273248 L 257.652828 345.690705 L 273.759489 349.540250 L 289.817167 353.170697 L 289.529441 336.049400 L 298.729407 321.139524 L 308.529976 307.527384 L 319.125733 295.005259 L 330.184546 283.179251 L 341.454276 271.690568 L 352.768249 260.212353 L 364.029432 248.343790 L 376.745540 235.588712 L 394.933304 241.047790 L 410.994263 246.049307 L 427.416526 249.776805 L 441.949243 258.842027" fill="none" stroke="rgb(127,127,127)" stroke-width="5" /><circle cx="287.21635751816217" cy="497.1614730532779" fill="rgb(127,127,127)" r="7" /><circle cx="286.00353824336565" cy="482.6446139871668" fill="rgb(127,127,127)" r="4" /><circle cx="286.00353824336565" cy="482.6446139871668" fill="white" r="2" /><circle cx="284.89767223550643" cy="467.05641210835466" fill="rgb(127,127,127)" r="4" /><circle cx="284.89767223550643" cy="467.05641210835466" fill="white" r="2" /><circle cx="279.1360908644082" cy="450.83199165875857" fill="rgb(127,127,127)" r="4" /><circle cx="279.1360908644082" cy="450.83199165875857" fill="white" r="2" /><circle cx="264.7673441604153" cy="453.54190305767423" fill="rgb(127,127,127)" r="4" /><circle cx="264.7673441604153" cy="453.54190305767423" fill="white" r="2" /><circle cx="254.44012573824187" cy="446.01079248623955" fill="rgb(127,127,127)" r="4" /><circle cx="254.44012573824187" cy="446.01079248623955" fill="white" r="2" /><circle cx="248.15406648931457" cy="432.91061504154726" fill="rgb(127,127,127)" r="4" /><circle cx="248.15406648931457" cy="432.91061504154726" fill="white" r="2" /><circle cx="249.14877879332747" cy="416.61711806528416" fill="rgb(127,127,127)" r="4" /><circle cx="249.14877879332747" cy="416.61711806528416" fill="white" r="2" /><circle cx="261.41419080805576" cy="404.2181735078386" fill="rgb(127,127,127)" r="4" /><circle cx="261.41419080805576" cy="404.2181735078386" fill="white" r="2" /><circle cx="275.081938717872" cy="393.97293468272284" fill="rgb(127,127,127)" r="4" /><circle cx="275.081938717872" cy="393.97293468272284" fill="white" r="2" /><circle cx="290.5773606363517" cy="387.40181123290114" fill="rgb(127,127,127)" r="4" /><circle cx="290.5773606363517" cy="387.40181123290114" fill="white" r="2" /><circle cx="286.37202037092067" cy="370.05724357229064" fill="rgb(127,127,127)" r="4" /><circle cx="286.37202037092067" cy="370.05724357229064" fill="white" r="2" /><circle cx="277.1595755227923" cy="358.31041594359806" fill="rgb(127,127,127)" r="4" /><circle cx="277.1595755227923" cy="358.31041594359806" fill="white" r="2" /><circle cx="274.56270757980207" cy="339.5445538824075" fill="rgb(127,127,127)" r="4" /><circle cx="274.56270757980207" cy="339.5445538824075" fill="white" r="2" /><circle cx="259.09486150679436" cy="331.1014694780896" fill="rgb(127,127,127)" r="4" /><circle cx="259.09486150679436" cy="331.1014694780896" fill="white" r="2" /><circle cx="243.03979768782273" cy="326.5421697422533" fill="rgb(127,127,127)" r="4" /><circle cx="243.03979768782273" cy="326.5421697422533" fill="white" r="2" /><circle cx="243.65579150865793" cy="339.2732480350715" fill="rgb(127,127,127)" r="4" /><circle cx="243.65579150865793" cy="339.2732480350715" fill="white" r="2" /><circle cx="257.65282827021286" cy="345.6907051071484" fill="rgb(127,127,127)" r="4" /><circle cx="257.65282827021286" cy="345.6907051071484" fill="white" r="2" /><circle cx="273.7594885101758" cy="349.5402504234836" fill="rgb(127,127,127)" r="4" /><circle cx="273.7594885101758" cy="349.5402504234836" fill="white" r="2" /><circle cx="289.8171673959154" cy="353.1706967618656" fill="rgb(127,127,127)" r="4" /><circle cx="289.8171673959154" cy="353.1706967618656" fill="white" r="2" /><circle cx="289.5294409960129" cy="336.04939958465815" fill="rgb(127,127,127)" r="4" /><circle cx="289.5294409960129" cy="336.04939958465815" fill="white" r="2" /><circle cx="298.7294073841271" cy="321.13952378934994" fill="rgb(127,127,127)" r="4" /><circle cx="298.7294073841271" cy="321.13952378934994" fill="white" r="2" /><circle cx="308.52997643839467" cy="307.52738425526826" fill="rgb(127,127,127)" r="4" /><circle cx="308.52997643839467" cy="307.52738425526826" fill="white" r="2" /><circle cx="319.1257332403776" cy="295.00525886856934" fill="rgb(127,127,127)" r="4" /><circle cx="319.1257332403776" cy="295.00525886856934" fill="white" r="2" /><circle cx="330.1845455708821" cy="283.179251499743" fill="rgb(127,127,127)" r="4" /><circle cx="330.1845455708821" cy="283.179251499743" fill="white" r="2" /><circle cx="341.45427643860876" cy="271.69056813725365" fill="rgb(127,127,127)" r="4" /><circle cx="341.45427643860876" cy="271.69056813725365" fill="white" r="2" /><circle cx="352.7682488182723" cy="260.212353180173" fill="rgb(127,127,127)" r="4" /><circle cx="352.7682488182723" cy="260.212353180173" fill="white" r="2" /><circle cx="364.02943221439864" cy="248.34379047773172" fill="rgb(127,127,127)" r="4" /><circle cx="364.02943221439864" cy="248.34379047773172" fill="white" r="2" /><circle cx="376.7455397900749" cy="235.58871175542248" fill="rgb(127,127,127)" r="4" /><circle cx="376.7455397900749" cy="235.58871175542248" fill="white" r="2" /><circle cx="394.9333039806856" cy="241.04778982452822" fill="rgb(127,127,127)" r="4" /><circle cx="394.9333039806856" cy="241.04778982452822" fill="white" r="2" /><circle cx="410.99426315975194" cy="246.0493073081921" fill="rgb(127,127,127)" r="4" /><circle cx="410.99426315975194" cy="246.0493073081921" fill="white" r="2" /><circle cx="427.4165258042531" cy="249.77680535310984" fill="rgb(127,127,127)" r="4" /><circle cx="427.4165258042531" cy="249.77680535310984" fill="white" r="2" /><circle cx="441.9492433483016" cy="258.8420273310935" fill="rgb(127,127,127)" r="4" /><circle cx="441.9492433483016" cy="258.8420273310935" fill="white" r="2" /><path d="M 520.719784 267.740349 L 505.361237 267.635570 L 490.179611 266.453204 L 474.709469 265.370236 L 458.536243 264.375398 L 441.949243 258.842027 L 451.627026 251.756457" fill="none" stroke="rgb(199,199,199)" stroke-width="5" /><circle cx="520.7197843096708" cy="267.7403486027158" fill="rgb(199,199,199)" r="7" /><circle cx="505.36123705286053" cy="267.6355699475136" fill="rgb(199,199,199)" r="4" /><circle cx="505.36123705286053" cy="267.6355699475136" fill="white" r="2" /><circle cx="490.17961079069886" cy="266.4532040014217" fill="rgb(199,199,199)" r="4" /><circle cx="490.17961079069886" cy="266.4532040014217" fill="white" r="2" /><circle cx="474.7094686193589" cy="265.3702355237441" fill="rgb(199,199,199)" r="4" /><circle cx="474.7094686193589" cy="265.3702355237441" fill="white" r="2" /><circle cx="458.53624275105255" cy="264.37539760143704" fill="rgb(199,199,199)" r="4" /><circle cx="458.53624275105255" cy="264.37539760143704" fill="white" r="2" /><circle cx="441.9492433483016" cy="258.8420273310935" fill="rgb(199,199,199)" r="4" /><circle cx="441.9492433483016" cy="258.8420273310935" fill="white" r="2" /><circle cx="451.6270262995439" cy="251.75645712272234" fill="rgb(199,199,199)" r="4" /><circle cx="451.6270262995439" cy="251.75645712272234" fill="white" r="2" /><path d="M 367.909573 144.735568 L 360.933330 155.221908 L 369.953218 169.289840 L 356.912359 171.329269 L 342.807056 165.842398 L 329.212090 159.670511" fill="none" stroke="rgb(188,189,34)" stroke-width="5" /><circle cx="367.909573013243" cy="144.73556816329932" fill="rgb(188,189,34)" r="7" /><circle cx="360.93332968921203" cy="155.22190820282916" fill="rgb(188,189,34)" r="4" /><circle cx="360.93332968921203" cy="155.22190820282916" fill="white" r="2" /><circle cx="369.9532178355973" cy="169.28983963586185" fill="rgb(188,189,34)" r="4" /><circle cx="369.9532178355973" cy="169.28983963586185" fill="white" r="2" /><circle cx="356.91235942917046" cy="171.32926883749607" fill="rgb(188,189,34)" r="4" /><circle cx="356.91235942917046" cy="171.32926883749607" fill="white" r="2" /><circle cx="342.8070556548667" cy="165.84239784797728" fill="rgb(188,189,34)" r="4" /><circle cx="342.8070556548667" cy="165.84239784797728" fill="white" r="2" /><circle cx="329.2120899834505" cy="159.67051131020344" fill="rgb(188,189,34)" r="4" /><circle cx="329.2120899834505" cy="159.67051131020344" fill="white" r="2" /><path d="M 295.560938 368.396171 L 286.372020 370.057244 L 289.817167 353.170697 L 302.555687 349.398348 L 315.610359 345.015634 L 329.585712 342.753066 L 344.061098 343.037361" fill="none" stroke="rgb(219,219,141)" stroke-width="5" /><circle cx="295.5609379584082" cy="368.39617063297857" fill="rgb(219,219,141)" r="7" /><circle cx="286.37202037092067" cy="370.05724357229064" fill="rgb(219,219,141)" r="4" /><circle cx="286.37202037092067" cy="370.05724357229064" fill="white" r="2" /><circle cx="289.8171673959154" cy="353.1706967618656" fill="rgb(219,219,141)" r="4" /><circle cx="289.8171673959154" cy="353.1706967618656" fill="white" r="2" /><circle cx="302.5556869207295" cy="349.39834814982424" fill="rgb(219,219,141)" r="4" /><circle cx="302.5556869207295" cy="349.39834814982424" fill="white" r="2" /><circle cx="315.610359321656" cy="345.0156341201302" fill="rgb(219,219,141)" r="4" /><circle cx="315.610359321656" cy="345.0156341201302" fill="white" r="2" /><circle cx="329.5857120463448" cy="342.7530658538001" fill="rgb(219,219,141)" r="4" /><circle cx="329.5857120463448" cy="342.7530658538001" fill="white" r="2" /><circle cx="344.061097830572" cy="343.0373611801502" fill="rgb(219,219,141)" r="4" /><circle cx="344.061097830572" cy="343.0373611801502" fill="white" r="2" /><path d="M 235.127656 436.093568 L 248.154066 432.910615 L 239.461485 447.371060 L 232.872414 461.484753" fill="none" stroke="rgb(23,190,207)" stroke-width="5" /><circle cx="235.127655871953" cy="436.09356829202454" fill="rgb(23,190,207)" r="7" /><circle cx="248.15406648931457" cy="432.91061504154726" fill="rgb(23,190,207)" r="4" /><circle cx="248.15406648931457" cy="432.91061504154726" fill="white" r="2" /><circle cx="239.46148479738537" cy="447.37105996783123" fill="rgb(23,190,207)" r="4" /><circle cx="239.46148479738537" cy="447.37105996783123" fill="white" r="2" /><circle cx="232.8724139661322" cy="461.4847526863643" fill="rgb(23,190,207)" r="4" /><circle cx="232.8724139661322" cy="461.4847526863643" fill="white" r="2" /><path d="M 114.906276 253.265644 L 128.526539 257.769062 L 142.252445 262.877539 L 155.941374 268.710339 L 169.421728 275.421497 L 182.429222 283.243347 L 194.482464 292.573189 L 204.609384 304.076906 L 211.046342 318.474559 L 196.690356 325.846700 L 181.364422 329.980299 L 165.952418 332.877521 L 150.668410 335.137888 L 135.600959 336.962892 L 120.792804 338.440575 L 106.268378 339.631708 L 92.056835 340.594994" fill="none" stroke="rgb(158,218,229)" stroke-width="5" /><circle cx="114.90627582811396" cy="253.2656439968164" fill="rgb(158,218,229)" r="7" /><circle cx="128.5265388897523" cy="257.76906199333337" fill="rgb(158,218,229)" r="4" /><circle cx="128.5265388897523" cy="257.76906199333337" fill="white" r="2" /><circle cx="142.25244467669106" cy="262.8775386887339" fill="rgb(158,218,229)" r="4" /><circle cx="142.25244467669106" cy="262.8775386887339" fill="white" r="2" /><circle cx="155.94137359669554" cy="268.7103385602607" fill="rgb(158,218,229)" r="4" /><circle cx="155.94137359669554" cy="268.7103385602607" fill="white" r="2" /><circle cx="169.4217282093555" cy="275.42149658965997" fill="rgb(158,218,229)" r="4" /><circle cx="169.4217282093555" cy="275.42149658965997" fill="white" r="2" /><circle cx="182.42922170961688" cy="283.2433472331094" fill="rgb(158,218,229)" r="4" /><circle cx="182.42922170961688" cy="283.2433472331094" fill="white" r="2" /><circle cx="194.48246364936384" cy="292.5731887493753" fill="rgb(158,218,229)" r="4" /><circle cx="194.48246364936384" cy="292.5731887493753" fill="white" r="2" /><circle cx="204.6093844893549" cy="304.07690551647505" fill="rgb(158,218,229)" r="4" /><circle cx="204.6093844893549" cy="304.07690551647505" fill="white" r="2" /><circle cx="211.0463423218655" cy="318.4745587404325" fill="rgb(158,218,229)" r="4" /><circle cx="211.0463423218655" cy="318.4745587404325" fill="white" r="2" /><circle cx="196.69035572198777" cy="325.84670036480645" fill="rgb(158,218,229)" r="4" /><circle cx="196.69035572198777" cy="325.84670036480645" fill="white" r="2" /><circle cx="181.36442192918298" cy="329.9802990651834" fill="rgb(158,218,229)" r="4" /><circle cx="181.36442192918298" cy="329.9802990651834" fill="white" r="2" /><circle cx="165.9524175576391" cy="332.8775212622034" fill="rgb(158,218,229)" r="4" /><circle cx="165.9524175576391" cy="332.8775212622034" fill="white" r="2" /><circle cx="150.66841043092145" cy="335.13788777524746" fill="rgb(158,218,229)" r="4" /><circle cx="150.66841043092145" cy="335.13788777524746" fill="white" r="2" /><circle cx="135.60095944229755" cy="336.9628917912247" fill="rgb(158,218,229)" r="4" /><circle cx="135.60095944229755" cy="336.9628917912247" fill="white" r="2" /><circle cx="120.79280448833048" cy="338.44057531215367" fill="rgb(158,218,229)" r="4" /><circle cx="120.79280448833048" cy="338.44057531215367" fill="white" r="2" /><circle cx="106.2683779924126" cy="339.63170835386074" fill="rgb(158,218,229)" r="4" /><circle cx="106.2683779924126" cy="339.63170835386074" fill="white" r="2" /><circle cx="92.05683534032617" cy="340.5949940619882" fill="rgb(158,218,229)" r="4" /><circle cx="92.05683534032617" cy="340.5949940619882" fill="white" r="2" /><path d="M 288.710667 419.457341 L 288.219355 401.687679 L 290.577361 387.401811 L 307.821540 391.083630 L 310.498053 403.815499 L 316.030565 399.057520 L 321.069645 416.970004 L 331.840403 427.599563 L 326.069284 412.677922" fill="none" stroke="rgb(31,119,180)" stroke-width="5" /><circle cx="288.7106669240769" cy="419.4573409869304" fill="rgb(31,119,180)" r="7" /><circle cx="288.2193551074092" cy="401.6876792221599" fill="rgb(31,119,180)" r="4" /><circle cx="288.2193551074092" cy="401.6876792221599" fill="white" r="2" /><circle cx="290.5773606363517" cy="387.40181123290114" fill="rgb(31,119,180)" r="4" /><circle cx="290.5773606363517" cy="387.40181123290114" fill="white" r="2" /><circle cx="307.821540478392" cy="391.08362971464214" fill="rgb(31,119,180)" r="4" /><circle cx="307.821540478392" cy="391.08362971464214" fill="white" r="2" /><circle cx="310.4980534133641" cy="403.8154986218756" fill="rgb(31,119,180)" r="4" /><circle cx="310.4980534133641" cy="403.8154986218756" fill="white" r="2" /><circle cx="316.0305651461235" cy="399.05751963798195" fill="rgb(31,119,180)" r="4" /><circle cx="316.0305651461235" cy="399.05751963798195" fill="white" r="2" /><circle cx="321.06964525534516" cy="416.9700040864216" fill="rgb(31,119,180)" r="4" /><circle cx="321.06964525534516" cy="416.9700040864216" fill="white" r="2" /><circle cx="331.84040266160633" cy="427.5995633412428" fill="rgb(31,119,180)" r="4" /><circle cx="331.84040266160633" cy="427.5995633412428" fill="white" r="2" /><circle cx="326.06928440434365" cy="412.67792203924125" fill="rgb(31,119,180)" r="4" /><circle cx="326.06928440434365" cy="412.67792203924125" fill="white" r="2" /></svg>